<?xml version="1.0" encoding="UTF-8" standalone="no"?>
<svg width="34px" height="39px" viewBox="0 0 34 39" version="1.1" xmlns="http://www.w3.org/2000/svg" xmlns:xlink="http://www.w3.org/1999/xlink" xmlns:sketch="http://www.bohemiancoding.com/sketch/ns">
    <!-- Generator: Sketch 3.4 (15575) - http://www.bohemiancoding.com/sketch -->
    <title>Fill 301</title>
    <desc>Created with Sketch.</desc>
    <defs></defs>
    <g id="Page-1" stroke="none" stroke-width="1" fill="none" fill-rule="evenodd" sketch:type="MSPage">
        <g id="shutterstock_271055732" sketch:type="MSLayerGroup" transform="translate(0.000000, -12.982000)" fill="#333333">
            <path d="M30.9631233,29.085 C30.0361233,29.525 28.9621233,29.736 28.0141233,29.86 C25.3031233,30.213 22.6801233,30.364 19.9791233,30.953 C21.4561233,30.63 24.3651233,33.774 25.2001233,34.8 C27.1471233,37.187 27.1271233,40.604 26.2311233,43.4 C23.5091233,51.891 14.2961233,53.569 6.9191233,50.288 C5.1961233,49.522 3.2211233,47.756 2.0631233,46.23 C-2.2078767,40.607 2.5291233,32.491 7.9721233,29.827 C9.5211233,29.068 13.0161233,27.632 14.7631233,28.04 C12.0391233,27.403 9.8591233,26.211 8.2211233,24.465 C6.5841233,22.72 5.7661233,21.035 5.7661233,19.412 C5.7661233,17.92 6.5501233,16.477 8.1231233,15.087 C9.6961233,13.695 11.4021233,13 13.2431233,13 C14.9521233,13 16.3751233,13.486 17.5131233,14.456 C18.6501233,15.427 19.2181233,16.231 19.2181233,16.869 C19.2181233,17.594 18.7561233,18.375 17.8281233,19.216 C16.9011233,20.057 15.9371233,20.476 14.9371233,20.476 C14.5311233,20.476 14.1031233,20.263 13.6561233,19.835 C13.2061233,19.408 12.9811233,19.027 12.9811233,18.694 C12.9811233,18.274 13.1401233,17.901 13.4591233,17.575 C13.7781233,17.249 14.1761233,17.086 14.6541233,17.086 C14.8581233,17.086 15.0751233,17.123 15.3061233,17.195 C14.7991233,17.659 14.5471233,18.253 14.5471233,18.976 C14.5471233,19.208 14.6301233,19.423 14.7961233,19.619 C14.9631233,19.814 15.1621233,19.912 15.3941233,19.912 C15.7701233,19.912 16.1141233,19.672 16.4261233,19.195 C16.7371233,18.715 16.8931233,18.238 16.8931233,17.76 C16.8931233,16.717 16.5201233,15.796 15.7741233,15 C15.0281233,14.203 14.0691233,13.804 12.8941233,13.804 C11.4881233,13.804 10.4021233,14.289 9.6341233,15.261 C8.8661233,16.231 8.4821233,17.391 8.4821233,18.737 C8.4821233,21.375 9.2761233,23.502 10.8621233,25.116 C11.7801233,26.054 12.9331233,26.704 14.1871233,27.074 C14.5221233,27.173 18.0691233,27.494 17.9091233,27.989 C17.5151233,29.214 15.1551233,29.001 14.1891233,29.054 C12.2421233,29.159 10.4661233,29.534 8.7541233,30.518 C2.9501233,33.852 3.9101233,43.906 8.7051233,47.665 C12.9941233,51.026 19.9391233,51.087 22.3571233,45.495 C23.6971233,42.393 23.4111233,37.767 22.2141233,34.66 C21.7591233,33.479 20.7451233,32.747 19.7601233,32.007 C17.7061233,30.463 13.7631233,32.174 12.9591233,34.435 C12.2231233,36.504 12.3461233,41.245 15.2681233,41.6 C17.1671233,41.829 19.6071233,38.791 17.1751233,37.814 C16.3901233,37.499 12.9381233,38.648 14.9071233,36.327 C17.2031233,33.618 20.3041233,37.641 19.8191233,40.025 C19.4051233,42.064 17.5691233,43.487 15.4841233,43.518 C12.8241233,43.555 11.3141233,41.111 10.8891233,38.761 C10.3351233,35.689 11.1881233,33.406 13.9821233,31.953 C16.1241233,30.837 19.1601233,29.906 23.0871233,29.16 C25.6871233,28.666 29.8801233,28.32 31.6481233,26.054 C32.1651233,25.392 32.1491233,23.209 33.0341233,23.322 C34.2901233,23.483 33.0041233,27.191 32.5901233,27.779 C32.1831233,28.36 31.6091233,28.778 30.9631233,29.085" id="Fill-301" sketch:type="MSShapeGroup"></path>
        </g>
    </g>
</svg>