<svg xmlns="http://www.w3.org/2000/svg" xmlns:xlink="http://www.w3.org/1999/xlink" version="1.1" x="0px" y="0px" width="110.522px" height="58.663px" viewBox="0 0 110.522 58.663" enable-background="new 0 0 110.522 58.663" xml:space="preserve"><style>.style0{fill:  #758261;}.style1{fill:  #C1AB82;}.style2{fill:  #FCF6E4;}.style3{fill:  #7B7269;}.style4{fill:  #ABD5C2;}.style5{fill:  #93705D;}.style6{fill:  #FBDBBC;}.style7{fill:  #EF8F6C;}</style><g><g><g><path d="M8.802 22.114c0.803 0.1 1.657-0.152 2.486-0.369c0.688-0.175 1.397-0.361 2.033-0.361 c1.592-0.004 3.6 0.7 4.9 1.111l0.001-0.003c1.974 1.3 4.2 2.6 6.6 3.812c1.089 0.5 2.2 1.2 3.2 1.8 c0.006 0 0 0 0 0.021l0.007-0.007c0.234 0.1 0.5 0.3 0.7 0.423c2.353 1.4 4.8 2.9 7.3 3.6 c2.892 0.8 5.9 1.2 8.9 1.519c-0.428 0.077-0.859 0.149-1.289 0.221c-0.858 0.145-1.711 0.285-2.472 0.4 c-0.946 0.203-1.922 0.313-2.864 0.424c-1.005 0.114-2.045 0.233-3.084 0.462c-0.462 0.101-0.949 0.224-1.454 0.4 c-1.375 0.35-2.801 0.709-4.104 0.727c-1.049 0.012-2.034-0.214-3.077-0.455c-0.809-0.186-1.644-0.376-2.519-0.451l-0.056 0.7 c0.828 0.1 1.6 0.3 2.4 0.439c0.792 0.2 1.6 0.4 2.4 0.44c0.258 0 0.5 0 0.8 0 c1.384-0.017 2.913-0.407 4.264-0.747c0.493-0.125 0.976-0.247 1.432-0.347c1.007-0.22 2.029-0.34 3.018-0.453 c0.957-0.108 1.948-0.224 2.927-0.431c0.752-0.16 1.596-0.3 2.442-0.442c1.038-0.173 2.326-0.414 3.245-0.633 c0.822 0.1 1.6 0.2 2.5 0.295l0.09-0.657c-1.322-0.184-2.646-0.329-3.965-0.472c-3.27-0.355-6.357-0.691-9.384-1.565 c-2.483-0.716-4.876-2.156-7.188-3.552c-0.213-0.127-0.433-0.255-0.646-0.383c-0.679-0.683-1.279-1.985-1.808-3.145 c-0.288-0.629-0.558-1.222-0.828-1.692l-0.298-0.515c-0.682-1.176-1.271-2.193-1.756-3.503c-0.403-1.092-0.981-2.165-1.542-3.204 c-0.988-1.838-2.009-3.736-2.083-5.768l-0.662 0.023c0.077 2.2 1.1 4.2 2.2 6.06c0.551 1 1.1 2.1 1.5 3.1 c0.506 1.4 1.1 2.4 1.8 3.607l0.295 0.512c0.256 0.4 0.5 1 0.8 1.636c0.31 0.7 0.6 1.4 1 2 c-0.646-0.372-1.3-0.734-1.957-1.065c-4.949-2.487-8.894-5.172-12.063-8.201C11.074 15.6 5 9.8 4.3 5.45L3.616 5.6 c0.671 4.1 5.5 9 9 12.434c1.185 1.1 2.5 2.2 3.9 3.261c-1.045-0.291-2.179-0.532-3.185-0.529 c-0.721 0.003-1.469 0.197-2.196 0.384c-0.867 0.225-1.688 0.432-2.408 0.332l-0.096 0.7 C8.683 22.1 8.7 22.1 8.8 22.114z" class="style0"/><path d="M46.812 33.306c-0.592-1.524-1.227-3.139-2.109-4.539c-0.499-0.791-1.616-1.132-2-0.048 C42.062 30.6 45 33.5 46.8 33.306z M38.55 37.266c-0.218 0.805-0.185 2.4 0.8 2.6 c1.389 0.4 1.295-2.046 1.625-2.852c0.322-0.797 0.739-1.606 0.959-2.407c0.074-0.27-1.882 0.599-1.992 0.7 C39.325 35.8 38.8 36.5 38.5 37.266z M34.974 27.578c-0.305 0.798-0.081 1.7 0.3 2.4 c0.304 0.6 0.8 1.1 1.4 1.402c0.252 0.2 1.5 0.6 1.6 0.682c-0.402-0.831-0.974-1.595-1.271-2.476 c-0.244-0.733-0.239-1.708-0.74-2.331C35.688 26.6 35.2 26.9 35 27.578z M32.999 34.8 c0.654 0.3 2.2 0.5 2.9 0.303c-0.173 0.052-1.963-1.725-2.184-1.941c-0.475-0.464-1.591-1.565-2.2-0.692 c-0.119 0.169-0.142 0.363-0.099 0.564C31.554 33.8 32.5 34.6 33 34.843z M26.718 38.2 c-0.472 0.58-0.57 1.9 0.3 2.221c1.078 0.4 0.975-1.193 1.301-1.8c0.334-0.625 1.081-1.579 1.741-1.878 c-0.229 0.104-0.66-0.078-0.927-0.007c-0.255 0.071-0.459 0.297-0.694 0.415C27.77 37.5 27.2 37.6 26.7 38.197z M22.93 34.659c0.383 0.5 1.5 0.9 1.7 1.419c-0.44-1.289-0.397-2.766-1.112-3.952c-0.639-1.062-2.324-1.164-1.887 0.3 c0.011 0 0 0.1 0 0.113C21.926 33.3 22.4 34.1 22.9 34.659z M26.314 23.1 c0.029 0.5 0.5 1.4 0.3 1.919c0.313-0.853 0.819-1.611 1.296-2.381c0.343-0.559 1.55-3.615 0.068-3.659 c-0.535-0.017-0.981 1.214-1.163 1.616C26.467 21.3 26.3 22.3 26.3 23.097z M19.326 37.5 c-0.098 1 0.9 1.1 1.6 0.716c0.653-0.35 1.05-1.019 1.717-1.385c0.604-0.326 1.224-0.657 1.881-0.845 C23.317 34.4 19.5 35.4 19.3 37.46z M23.503 18.931c0.192-1.252 0.394-2.416 1.126-3.465 c0.306-0.437 1.003-1.785-0.189-1.654c-0.609 0.067-1.161 0.932-1.294 1.444C22.868 16.3 22.9 18 23.5 18.931z M19.425 7.837c-0.054 0.9 0.6 2.1 0.4 2.885c0.192-0.943 0.87-1.912 1.391-2.803c0.354-0.611 0.993-1.313 1.078-2.039 c0.125-1.084-1.256-0.92-1.915-0.399C19.735 6 19.5 7 19.4 7.837z M18.797 16.7 c0.185 0.3 0.6 0.7 1.1 0.874c1.082 0.4 2.3 0.4 3.3 1.031c-0.407-1.437-1.817-2.519-3.27-2.666 C18.771 15.8 18.5 16.2 18.8 16.683z M18.739 7.522c-0.948-0.885-2.669 0.103-1.72 1.2 c0.711 0.8 2.3 0.7 2.8 1.721C19.919 9.3 19.6 8.3 18.7 7.522z M22.189 20.4 c-0.394-0.075-0.768-0.031-0.999 0.259c-1.12 1.4 3.2 1.7 3.9 1.88c-0.248-0.633-0.93-1.274-1.512-1.593 C23.256 20.8 22.7 20.5 22.2 20.385z M18.999 27.174c-0.081 0.8 0.6 1 1.2 0.7 c0.701-0.352 1.244-0.998 2.046-1.309c0.67-0.262 1.36-0.525 2.079-0.442C24.13 24.8 19.2 25.6 19 27.174z M30.226 26.625c-0.051 0.8 0.2 2.1 0.9 2.676c-0.489-0.394 1.067-2.897 0.834-3.651c-0.136-0.431-0.337-0.602-0.555-0.602 C30.879 25 30.3 26 30.2 26.625z M18.359 20.154c0.048 0.4 0.1 0.8 0.2 1.2 c0.049 0.2 0.5 1 0.5 1.173c0.131-0.877 1.395-3.497 0.204-3.996C18.279 18.1 18.3 19.6 18.4 20.154z M11.623 24.278c0.593 0.7 0.782-0.238 0.866-0.807c0.111-0.783-0.082-1.688 0.329-2.312c-0.102 0.15-0.65 0.303-0.822 0.5 c-0.27 0.266-0.374 0.461-0.487 0.826C11.34 23 11.2 23.8 11.6 24.278z M12.978 14.9 c-0.298 1.3 0.2 2.8 1.1 3.73c-0.64-1.558 2.358-4.208 0.729-5.341C13.716 12.5 13.2 14.1 13 14.874z M6.826 21.655c0.824 0.4 1.569-0.062 2.4 0.177c-0.763-0.495-1.291-1.217-1.703-2.01c-0.301-0.585-0.509-1.786-1.319-1.836 c-0.67-0.04-1.292 0.675-1.235 1.359C5.071 20.4 5.9 21.3 6.8 21.655z M9.941 16.7 c-2.049-0.042-1.282 1.7 0.3 1.472c0.764-0.093 1.511-0.254 2.281-0.303C12.278 16.7 10.9 16.7 9.9 16.659z M6.955 24.248c0.207 0.7 1.1 1.5 1.4 0.388c0.245-1.042-0.187-2.331 0.743-3.123c-0.415 0.351-1.122 0.277-1.599 0.8 C7.042 22.8 6.8 23.5 7 24.248z M7.989 9.155c-0.447 1.307-0.364 2.4 0.3 3.6 c0.255-0.978 0.618-1.705 1.209-2.586c0.364-0.544 1.506-2.701 0.269-2.937C8.796 7 8.2 8.4 8 9.155z M26.455 30.9 c0.425 0 1.113-0.547 1.475-0.76c0.76-0.445 1.508-0.647 2.317-0.919c-0.762-0.421-2.217-0.29-3.015-0.024 C26.693 29.4 25.1 30.8 26.5 30.876z M3.686 3.671c-0.031 1 0.6 2.1 0.5 3.051c0.198-1.611 0.9-2.55 1.642-3.924 c0.364-0.674 0.646-2.289-0.638-1.87C5.107 1 5 1 5 1.027C4.118 1.5 3.7 2.8 3.7 3.671z M3.612 9.5 c-0.688 0.047-1.774 1.051-0.7 1.456c0.413 0.2 0.717-0.073 1.122-0.202c0.674-0.217 1.396-0.485 2.124-0.369 C5.543 9.8 4.5 9.5 3.6 9.523z M1.727 3.785C1.064 3.684-0.857 4.4 0.4 5.134c0.347 0.2 1.1 0.1 1.5 0.2 c0.837 0.2 1.5 0.5 2.3 0.865C3.759 5.1 3 4 1.7 3.785z M2.981 3.87C2.692 3.1 3.354-0.034 2.3 0 C0.423 0.1 2.8 3.4 3 3.87z" class="style0"/></g><g><path d="M98.896 21.009c-0.804-0.067-1.609-0.431-2.392-0.783c-0.645-0.289-1.313-0.59-1.942-0.698 c-1.567-0.273-3.666 0.049-5.061 0.262v-0.001c-2.17 0.976-4.53 1.857-7.123 2.648c-1.163 0.355-2.332 0.798-3.483 1.2 c-0.006 0.003-0.013 0.012-0.021 0.018l-0.006-0.007c-0.255 0.099-0.517 0.197-0.769 0.294c-2.558 1-5.199 2.037-7.854 2.3 c-2.99 0.334-6.052 0.178-9.03-0.003c0.405 0.1 0.8 0.3 1.2 0.436c0.822 0.3 1.6 0.6 2.4 0.9 c0.901 0.4 1.8 0.6 2.8 0.9c0.971 0.3 2 0.6 3 0.976c0.438 0.2 0.9 0.4 1.4 0.6 c1.297 0.6 2.6 1.2 3.9 1.408c1.029 0.2 2 0.1 3.1 0.071c0.828-0.046 1.684-0.094 2.56-0.021l-0.056 0.7 c-0.828-0.07-1.661-0.023-2.465 0.024c-0.811 0.044-1.643 0.091-2.487 0.021c-0.257-0.023-0.516-0.057-0.778-0.104 c-1.36-0.25-2.802-0.89-4.072-1.454c-0.47-0.206-0.924-0.409-1.354-0.583c-0.956-0.387-1.943-0.678-2.897-0.956 c-0.927-0.268-1.882-0.549-2.812-0.919c-0.716-0.281-1.523-0.565-2.333-0.845c-0.996-0.346-2.226-0.801-3.092-1.171 c-0.829-0.047-1.657-0.102-2.489-0.128l0.021-0.662c1.333 0 2.7 0.1 4 0.206c3.283 0.2 6.4 0.4 9.5 0 c2.568-0.287 5.17-1.303 7.685-2.287c0.231-0.092 0.471-0.182 0.702-0.27c0.786-0.559 1.597-1.743 2.312-2.797 c0.39-0.572 0.758-1.111 1.103-1.528l0.379-0.458c0.871-1.043 1.624-1.947 2.322-3.157c0.581-1.008 1.331-1.967 2.062-2.899 c1.283-1.644 2.611-3.342 3.022-5.333l0.65 0.134c-0.444 2.142-1.822 3.905-3.151 5.609c-0.714 0.909-1.45 1.854-2.01 2.8 c-0.726 1.257-1.493 2.182-2.386 3.251L82.48 19.2c-0.325 0.394-0.684 0.921-1.062 1.479c-0.418 0.618-0.872 1.271-1.343 1.8 c0.699-0.258 1.406-0.504 2.109-0.721c5.297-1.618 9.637-3.597 13.273-6.05c2.295-1.549 9.283-6.262 10.711-10.403l0.627 0.2 c-1.348 3.901-6.904 7.999-10.967 10.737c-1.36 0.918-2.816 1.769-4.38 2.561c1.077-0.111 2.234-0.158 3.2 0 c0.708 0.1 1.4 0.4 2.1 0.751c0.816 0.4 1.6 0.7 2.3 0.732l-0.016 0.7 C99.015 21 99 21 98.9 21.009z" class="style0"/><path d="M64.365 21.807c-0.195-1.135-1.354-0.986-1.98-0.29c-1.105 1.229-2.005 2.716-2.843 4.1 C61.292 26.1 64.7 23.7 64.4 21.807z M65.926 28.782c-0.097-0.099-1.876-1.284-1.848-1.006 c0.079 0.8 0.4 1.7 0.5 2.534c0.188 0.851-0.311 3.2 1.1 3.085c1.063-0.098 1.359-1.633 1.28-2.465 C66.937 30.1 66.5 29.4 65.9 28.782z M71.009 21.475c-0.601 0.531-0.76 1.49-1.124 2.2 c-0.44 0.818-1.133 1.477-1.669 2.226c0.063-0.09 1.392-0.298 1.664-0.406c0.611-0.247 1.202-0.616 1.599-1.149 c0.493-0.657 0.863-1.495 0.696-2.335C72.037 21.3 71.6 20.9 71 21.475z M74.766 28 c0.077-0.191 0.086-0.385-0.001-0.574c-0.454-0.962-1.74-0.065-2.287 0.312c-0.253 0.178-2.319 1.626-2.479 1.5 c0.65 0.3 2.2 0.4 2.9 0.19C73.424 29.3 74.5 28.7 74.8 28.006z M77.029 32.5 c-0.213-0.155-0.376-0.415-0.614-0.526c-0.254-0.115-0.708-0.008-0.913-0.151c0.601 0.4 1.2 1.5 1.4 2.1 c0.221 0.653-0.156 2.2 1 1.994c0.893-0.201 1.013-1.492 0.646-2.143C78.148 33.2 77.6 33 77 32.522z M84.436 29.165c0.02-0.037 0.035-0.07 0.055-0.106c0.686-1.417-0.994-1.602-1.803-0.661c-0.904 1.05-1.109 2.509-1.762 3.7 c0.247-0.458 1.473-0.724 1.928-1.109C83.448 30.5 84.1 29.9 84.4 29.165z M81.402 16.5 c-0.114-0.425-0.343-1.714-0.873-1.787c-1.471-0.207-0.796 3.01-0.551 3.619c0.341 0.8 0.7 1.7 0.9 2.6 c-0.099-0.542 0.491-1.31 0.614-1.845C81.65 18.2 81.6 17.3 81.4 16.473z M81.043 32 c0.614 0.3 1.2 0.7 1.7 1.148c0.594 0.5 0.9 1.2 1.5 1.656c0.678 0.5 1.7 0.5 1.722-0.433 C86.069 32.3 82.5 30.7 81 31.991z M85.912 11.833c-0.046-0.528-0.442-1.474-1.032-1.642 c-1.154-0.331-0.693 1.116-0.464 1.599c0.544 1.2 0.5 2.3 0.5 3.604C85.65 14.5 86 12.9 85.9 11.833z M90.243 2.655c-0.562-0.625-1.898-1.02-1.955 0.07c-0.042 0.7 0.5 1.5 0.7 2.192c0.363 1 0.9 2 0.9 3 c-0.025-0.817 0.828-1.883 0.928-2.769C90.918 4.3 90.8 3.3 90.2 2.655z M88.914 13 c-1.457-0.099-3.026 0.729-3.672 2.076c1.11-0.442 2.312-0.199 3.453-0.454c0.552-0.122 1.028-0.389 1.262-0.672 C90.306 13.6 90.1 13.1 88.9 13.021z M89.973 7.651c0.692-0.939 2.237-0.528 3.077-1.22 c1.125-0.929-0.407-2.192-1.49-1.48C90.585 5.6 90.1 6.5 90 7.651z M84.543 17.4 c-0.625 0.217-1.403 0.735-1.756 1.318c0.713-0.028 5 0.4 4.142-1.2c-0.175-0.327-0.539-0.433-0.941-0.426 C85.464 17.1 84.9 17.2 84.5 17.355z M82.892 22.307c0.725 0 1.4 0.4 2 0.8 c0.736 0.4 1.2 1.2 1.8 1.636c0.549 0.4 1.3 0.3 1.329-0.45C88.094 22.7 83.3 21 82.9 22.307z M76.128 20.094c-0.214-0.037-0.438 0.098-0.646 0.499c-0.355 0.7 0.8 3.4 0.2 3.74c0.79-0.44 1.234-1.642 1.324-2.488 C77.082 21.2 76.6 20.2 76.1 20.094z M89.225 15.702c-1.259 0.292-0.456 3.086-0.474 4 c0.004-0.151 0.563-0.846 0.652-1.079c0.137-0.356 0.29-0.761 0.4-1.129C89.963 16.9 90.2 15.5 89.2 15.702z M96.168 20.891c-0.052-0.377-0.119-0.589-0.342-0.896c-0.141-0.195-0.655-0.439-0.729-0.604 c0.299 0.685-0.044 1.544-0.065 2.334c-0.015 0.6 0 1.6 0.7 0.94C96.217 22.3 96.2 21.5 96.2 20.891z M94.468 11.274c-1.797 0.8 0.7 3.959-0.181 5.388c1.002-0.81 1.792-2.189 1.71-3.494 C95.944 12.3 95.7 10.7 94.5 11.274z M103.127 18.924c0.174-0.663-0.318-1.472-0.988-1.546 c-0.808-0.088-1.213 1.062-1.607 1.587c-0.541 0.713-1.185 1.336-2.02 1.695c0.87-0.094 1.5 0.4 2.4 0.2 C101.87 20.7 102.9 19.9 103.1 18.924z M95.957 16.161c0.752 0.2 1.5 0.5 2.2 0.7 c1.518 0.5 2.561-1.099 0.535-1.402C97.769 15.3 96.4 15.1 96 16.161z M100.124 21.4 c-0.383-0.583-1.092-0.629-1.441-1.045c0.784 0.9 0.1 2.1 0.2 3.203c0.074 1.2 1.1 0.5 1.469-0.143 C100.669 22.8 100.5 22 100.1 21.409z M100.409 6.159c-1.26 0.024-0.502 2.341-0.233 2.9 c0.436 1 0.7 1.7 0.8 2.752c0.904-1.079 1.167-2.117 0.946-3.48C101.753 7.6 101.4 6.1 100.4 6.159z M79.537 24.862c-0.741-0.398-2.152-0.77-2.974-0.486c0.751 0.4 1.5 0.7 2.1 1.297c0.319 0.3 0.9 1 1.3 1 C81.407 26.8 80 25.1 79.5 24.862z M106.238 0.874c-0.064-0.054-0.136-0.102-0.212-0.137 c-1.194-0.63-1.19 1.009-0.943 1.735c0.499 1.5 1 2.5 1 4.144c0.049-1.003 0.865-1.902 1.005-2.923 C107.159 2.9 107 1.5 106.2 0.874z M103.472 9.919c0.737 0 1.4 0.4 2 0.7 c0.377 0.2 0.6 0.5 1.1 0.39c1.129-0.22 0.227-1.39-0.444-1.554C105.238 9.3 104.2 9.4 103.5 9.919z M106.104 6.11c0.781-0.268 1.524-0.415 2.379-0.47c0.4-0.027 1.1 0.2 1.5 0.042c1.398-0.475-0.37-1.534-1.04-1.546 C107.623 4.1 106.7 5 106.1 6.11z M109.068 0.315c-1.07-0.217-0.956 3.02-1.36 3.7 C107.994 3.5 110.9 0.7 109.1 0.315z" class="style0"/></g><g><path d="M21.823 56.627c0.009-0.018 1.396-3.033 1.979-7.29c0.752-5.51 4.435-13.077 11.115-9.742 c2.797 1.4 4.4 5.6 3.6 8.624c-0.592 2.217-2.391 3.813-4.318 4.915c-1.573 0.899-3.298 1.531-5.034 2 c-1.104 0.32-2.221 0.582-3.347 0.808C25.318 56.1 22 56.3 21.8 56.627z" class="style1"/><path d="M38.206 38.224c-0.956 1.486-1.854 2.809-2.725 4.062c1.351 3.376-0.814 9.384-0.814 9.4 c1.116-5.214 0.732-7.925 0.489-8.917c-0.688 0.979-1.354 1.9-1.986 2.744c1.028 2.808-0.716 7.648-0.716 7.6 c0.886-4.13 0.627-6.354 0.428-7.259c-0.845 1.111-1.623 2.072-2.364 2.958c0.698 1.968-0.854 5.401-0.854 5.4 c0.949-3.168 0.758-4.728 0.665-5.173c-0.889 1.051-1.703 1.949-2.441 2.712c0.372 1.364-0.616 3.563-0.616 3.6 c0.575-1.925 0.533-2.988 0.474-3.416c-3.523 3.604-5.31 4.166-5.31 4.166c1.565-0.943 3.229-2.468 4.856-4.228 c-0.485 0.081-1.476 0.363-3.04 1.344c0 0 1.813-1.501 3.225-1.538c0.806-0.884 1.598-1.82 2.369-2.783 c-0.646 0.089-2.142 0.455-4.589 1.991c0 0 2.734-2.266 4.803-2.254c0.884-1.113 1.729-2.245 2.518-3.34 c-0.321-0.028-2.604-0.12-7.335 2.345c0 0 4.579-3.238 7.566-2.677c0.816-1.145 1.554-2.23 2.201-3.21 c-0.726-0.036-3.489 0.043-8.786 2.678c0 0 5.442-3.685 9.05-3.077c1.418-2.167 2.305-3.673 2.305-3.673L38.206 38.224z" class="style2"/></g><g><path d="M83.517 37.333c0 0-12.092-14.466-26.907-6.481C56.609 30.9 67.7 47.2 83.5 37.333z" class="style1"/><path d="M51.639 27.965c0.037 0 2.9 1.5 5.4 2.67c0.06-0.003 0.1 0 0.2 0 c1.086 0.4 2.2 0.8 3.3 1.17c0.798-0.351 2.57-1.205 3.353-2.205c0.096-0.126 0.271-0.152 0.4-0.067 c0.005 0 0 0 0 0.013c0.131 0.1 0.1 0.3 0.1 0.417c-0.697 0.898-2.047 1.662-2.987 2.1 c0.729 0.2 1.5 0.5 2.2 0.666c0.715-0.265 3.212-1.29 4.333-2.997c0.091-0.14 0.28-0.176 0.411-0.087 c0.141 0.1 0.2 0.3 0.1 0.416c-0.965 1.469-2.777 2.438-3.89 2.929c0.917 0.3 1.8 0.5 2.7 0.7 c1.012-0.293 3.432-1.128 4.752-2.753c0.096-0.118 0.267-0.144 0.394-0.059c0.005 0 0 0 0 0 c0.13 0.1 0.1 0.3 0 0.418c-1.098 1.358-2.854 2.19-4.097 2.646c0.967 0.2 1.9 0.4 2.8 0.6 c0.708-0.172 2.927-0.823 4.371-2.402c0.097-0.111 0.264-0.128 0.383-0.05c0.013 0 0 0 0 0 c0.125 0.1 0.1 0.3 0 0.424c-1.075 1.187-2.519 1.867-3.569 2.247c1.037 0.2 2 0.4 2.9 0.5 c1.556-0.238 2.797-1.528 2.81-1.542c0.1-0.105 0.261-0.121 0.379-0.046c0.018 0 0 0 0 0 c0.124 0.1 0.1 0.3 0 0.422c-0.043 0.048-0.795 0.828-1.906 1.339c2.942 0.4 4.8 0.6 4.9 0.6 c0.076 0 0.1 0 0.2 0.069c0.125 0.1 0.2 0.2 0.2 0.387c-0.02 0.24-0.23 0.416-0.459 0.4 c-0.05-0.005-2.006-0.173-5.039-0.633c0.483 0.6 1 1.5 1 2.599c-0.011 0.167-0.151 0.292-0.32 0.3 c-0.158-0.009-0.287-0.15-0.276-0.317c0.077-1.224-0.886-2.314-1.279-2.705c-1.045-0.171-2.194-0.371-3.424-0.607 c0.602 0.7 1.6 2.1 1.8 3.726c0.02 0.161-0.101 0.312-0.264 0.332c-0.162 0.017-0.309-0.1-0.329-0.263 c-0.251-2.134-2.059-3.906-2.072-3.92c-0.018-0.018-0.014-0.042-0.029-0.059c-0.933-0.191-1.905-0.394-2.906-0.63 c0.907 1 2.3 2.7 2.2 4.186c-0.011 0.168-0.157 0.295-0.321 0.28c-0.164-0.009-0.286-0.153-0.28-0.318 c0.124-1.707-2.306-4.059-2.672-4.404c-0.807-0.195-1.626-0.409-2.46-0.633c0.684 0.8 1.8 2.4 2.3 4 c0.05 0.158-0.037 0.324-0.192 0.375c-0.162 0.047-0.328-0.04-0.377-0.197c-0.682-2.135-2.721-4.386-2.743-4.412 c-0.01-0.01-0.004-0.024-0.017-0.039c-0.954-0.274-1.918-0.566-2.892-0.882c0.35 0.6 1 1.6 1.6 2.5 c0.092 0.1 0 0.321-0.086 0.415c-0.136 0.089-0.325 0.045-0.412-0.09c-1.285-1.961-1.716-2.771-1.86-3.134 c-0.278-0.094-0.555-0.192-0.832-0.288c-0.096 0.042-0.206 0.052-0.315 0.012c-2.745-0.959-7.385-3.46-7.58-3.566 c-0.205-0.099-0.289-0.371-0.177-0.576C51.172 27.9 51.4 27.9 51.6 27.965z" class="style2"/></g><g><path d="M50.454 37.138c0.738 1.4 1.8 2.1 1.9 2.154c0.038 0 0.4 0.3 1.1 0.6 c-0.304 1.531-0.075 3.1 0.3 4.354c-0.45 0.366-1.518 1.441-1.041 3.117l0.539-0.154c-0.347-1.209 0.289-2.02 0.69-2.394 c0.587 1.6 1.4 2.8 1.4 2.844l0.458-0.315c-0.02-0.031-1.688-2.498-1.94-5.336c0.755-0.018 2.8 0.1 3.8 1.3 l0.432-0.349c-1.173-1.459-3.41-1.539-4.242-1.515c-0.006-0.435 0.025-0.874 0.102-1.31c1.178 0.5 2.9 1.2 4.9 1.4 c1.57 0.2 3.3 0.5 4.9 0.992c0.2 0.2 0.5 0.6 0.8 1.111c-0.093 0.031-0.184 0.07-0.27 0.1 c-0.683 0.411-1.091 1.365-1.113 1.418l0.515 0.218c0.136-0.316 0.591-1.128 1.106-1.246c0.276 0.7 0.4 1.6 0.2 2.7 l0.549 0.106c0.374-1.897-0.221-3.277-0.798-4.111c1.391 0.5 2.7 1.2 3.8 2.14c-0.083 0.399-0.483 2.8 1 5.3 l0.478-0.291c-1.131-1.874-1.079-3.772-0.991-4.568c0.364 0.4 0.7 0.8 1 1.237c0.854 1.3 1.9 2.6 3 3.9 c-0.042 0.234-0.242 1.379-0.052 2.535c-0.446 0.472-1.717 1.97-1.092 3.208l0.495-0.25c-0.354-0.708 0.249-1.684 0.752-2.291 c0.13 0.4 0.3 0.8 0.6 1.123l0.417-0.369c-0.823-0.934-0.738-2.622-0.64-3.43c1.249 1.3 2.6 2.6 4.1 3.7 c0.124 0.1 0.3 0.1 0.394-0.047c0.091-0.125 0.069-0.301-0.052-0.395c-0.689-0.534-1.355-1.086-1.99-1.656 c0.037-0.098 0.606-1.514 2.003-1.443l0.029-0.557c-0.525-0.029-0.972 0.112-1.338 0.334c-0.564 0.344-0.932 0.865-1.126 1.3 c-1.879-1.725-3.502-3.58-4.795-5.478c0.573-0.002 1.8 0.1 2.6 1.088l0.428-0.358c-1.267-1.503-3.298-1.287-3.434-1.271 c-0.808-1.211-1.881-2.142-3.103-2.869c0.689-0.067 1.593-0.241 2.252-0.678l-0.298-0.467c-0.969 0.608-2.663 0.629-2.92 0.6 c-0.745-0.355-1.526-0.653-2.325-0.901c-0.066-0.064-0.112-0.099-0.125-0.11l-0.043 0.057c-1.406-0.421-2.858-0.696-4.23-0.895 c0.767-0.819 3.073-2.945 5.75-2.157l0.156-0.533c-1.698-0.498-3.225 0.011-4.386 0.712c-1.199 0.729-2 1.656-2.188 1.9 c-0.021-0.003-0.044-0.007-0.063-0.01c-2.242-0.291-4.162-1.091-5.275-1.64c0.518-0.622 2.011-2.191 3.639-1.783l0.138-0.544 c-0.942-0.233-1.813 0.049-2.529 0.484c-0.221 0.134-0.419 0.28-0.608 0.432c-0.359-0.5-0.471-1.104-0.324-1.799 c0.211-0.994 0.582-1.624 1.095-2.499l-0.481-0.284c-0.538 0.92-0.932 1.585-1.161 2.667c-0.185 0.876-0.031 1.6 0.4 2.3 c-0.332 0.313-0.578 0.602-0.722 0.783c-0.325-0.175-0.507-0.29-0.512-0.294c-0.01-0.005-1.03-0.697-1.704-1.952 c-0.072-0.135-0.24-0.186-0.376-0.115c-0.006 0.004-0.009 0.006-0.015 0.012C50.428 36.8 50.4 37 50.5 37.138z" class="style3"/><path d="M54.896 47.333c0.494-0.512 1.647-0.385 2.17-0.01c1.319 0.9 0.7 3.043-0.92 3.1 C54.917 50.5 54 48.2 54.9 47.333z M53.048 48.694c0.909-0.3 0.765-1.881-0.379-1.567 C51.455 47.5 51.9 49.1 53 48.694z M57.61 43.573c-0.166 2 3 1.7 2.6 0.1 C59.965 42.5 57.7 42.2 57.6 43.573z M57.11 37.405c0.334 0.9 1.5 1 2.3 0.7 c2.329-0.755 0.837-3.848-1.202-2.703C57.63 35.7 56.9 36.7 57.1 37.405z M54.444 33.1 c0.033 1.2 1.8 1.2 2.4 0.376c0.509-0.718 0.242-2.067-0.762-2.085c-0.354-0.006-0.731 0.198-1.035 0.5 C54.688 32.2 54.4 32.7 54.4 33.067z M66.399 40.016c0.525-0.059 1.324-0.583 1.64-1.008 c0.597-0.797 0.394-2.092-0.696-2.224c-0.992-0.119-2.164 0.467-2.335 1.525C64.885 39.1 65.6 40.1 66.4 40.016z M71.374 42.252c0.756-1.566-2.37-1.756-2.271-0.097C69.175 43.4 71 43.1 71.4 42.252z M64.573 46.8 c-1.108 0.9 0.2 2.2 1.3 1.602C67.218 47.7 65.6 46 64.6 46.82z M79.769 57.2 c2.069-0.732 1.441-3.685-0.605-3.891c-1.017-0.105-2.059 0.242-2.261 1.363C76.611 56.3 78.2 57.8 79.8 57.238z M69.306 52.928c0.747 0.5 1.7 0.1 2.209-0.523c0.688-0.855-0.311-2.562-1.313-2.685c-1.099-0.133-1.774 1.235-1.604 2.2 C68.671 52.3 68.9 52.6 69.3 52.928z M63.441 46.479c0.908-0.371 0.563-1.684-0.404-1.546 C61.918 45.1 62.3 47 63.4 46.479z M73.22 48.239c0.389 0.7 1.3 1.2 2.1 1.1 c0.656-0.114 1.255-1.105 1.055-1.758c-0.164-0.541-0.896-0.837-1.398-0.921c-0.466-0.076-1.241 0.255-1.621 0.7 C73.136 47.6 73.1 47.9 73.2 48.239z M78.245 50.236c-1.529 0.493-0.02 2.3 1 1.4 C80.157 51 79.1 50 78.2 50.236z M72.227 55.888c-1.161-0.252-1.292 1.096-0.874 1.8 c0.164 0.3 0.4 0.5 0.6 0.688c0.711 0.6 1.4 0.2 1.523-0.64c0.081-0.386-0.053-0.831-0.31-1.192 C72.914 56.2 72.6 56 72.2 55.888z M75.213 55.173c-0.138-0.642-1.166-1.044-1.593-0.466 C72.655 56 75.5 56.7 75.2 55.173z" class="style4"/></g><path d="M41.78 14.117c-0.179 0.167-0.371 0.24-0.56 0.246c-0.029 1.062-0.238 4.707-1.589 6.2 c0.362 1.2 0.6 2.4 0.8 3.708c1.181-1.23 1.82-3.721 1.997-4.529c-0.036-0.045-0.072-0.092-0.101-0.152 c-0.49-0.968 0.475-1.534 1.349-1.051c1.219 0.7 0 1.7-0.825 1.482c-0.245 1.058-0.976 3.65-2.347 4.8 c0.16 1.5 0.2 3.1 0.2 4.451c2.242-1.362 2.96-4.033 3.112-4.726c-0.434-0.303-0.624-0.956-0.126-1.418 c1.028-0.938 2.2 0.9 1.1 1.472c-0.174 0.097-0.347 0.127-0.509 0.116c-0.195 0.891-1.005 3.738-3.577 5.1 c-0.066 2.889-0.361 5.11-0.396 5.331c-0.034 0.239-0.251 0.418-0.492 0.404c-0.017 0-0.029-0.005-0.046-0.005 c-0.259-0.034-0.44-0.278-0.4-0.538c0.004-0.038 0.188-1.39 0.297-3.349c-0.41-0.168-1.178-0.581-2.051-1.525 c-0.829 0.677-1.886-0.967-0.964-1.44c0.616-0.32 1.3 0.4 1.2 1.011c0.75 0.8 1.4 1.3 1.8 1.4 c0.071-1.415 0.095-3.081-0.009-4.812c-0.576-0.273-1.889-1.007-3.145-2.338c-0.084 0.033-0.69 0.215-1.586 0.2 c-0.624-0.035-1.383-0.2-2.186-0.59c-0.146 0.331-0.418 0.56-0.844 0.492c-0.566-0.091-0.66-1.625-0.286-1.962 c0.854-0.785 1.3 0.2 1.2 1c1.486 0.8 2.8 0.6 3.3 0.494c-0.696-0.81-1.342-1.804-1.787-3.038 c-0.176-0.047-0.333-0.151-0.435-0.307c-0.141-0.219-0.179-0.529 0.001-0.895c0.462-0.961 1.751-0.326 1.4 0.6 c-0.102 0.275-0.272 0.438-0.461 0.525c1.162 3.1 3.7 4.7 4.7 5.254c-0.183-2.42-0.631-4.86-1.562-6.755 c-0.016 0.003-0.021 0.003-0.04 0c-0.659-0.042-2.039-0.321-3.491-1.746c-0.268 0.128-0.596 0.12-0.94-0.156 c-0.718-0.584-0.357-1.607 0.421-1.748c0.144-0.025 0.3-0.028 0.5 0.015c0.822 0.2 0.8 1.1 0.4 1.6 c1.172 1.1 2.3 1.5 2.9 1.539c-0.229-0.402-0.48-0.783-0.767-1.12c-0.17-0.198-0.145-0.498 0.055-0.665 c0.19-0.174 0.491-0.145 0.7 0.047c0.75 0.9 1.3 2 1.7 3.211c1.123-1.545 1.282-5.02 1.305-5.805 c-0.583-0.346-0.859-1.295 0.115-1.613C41.786 12.3 42.5 13.4 41.8 14.117z" class="style5"/><g><path d="M53.37 11.611c-0.282-0.134-0.565-0.679-0.79-0.903c-0.839 0.316-0.665 1.656-0.567 2.4 c0.072 0.5 0.5 1.2 0.3 1.784c-0.27 0.898-0.987 0.084-1.241-0.403c-0.721-1.372-1.136 1.388-1.027 1.9 c0.134 0.6 0.5 1.2 0.3 1.834c-0.298 0.696-0.757 0.404-1.263 0.078c-1.637-1.066-1.093 2.853-0.939 3.4 c0.117 0.4 0.4 0.9 0 1.188c-0.896 0.641-0.869-1.845-1.518-1.771c-0.675 0.079-0.765 1.543-0.846 2 c-0.058 0.34-0.229 0.737-0.234 1.075c-0.001 0.5 0.3 0.9 0.5 1.375c0.309 1 0.7 2.1 0.2 3.1 c-0.226 0.477-0.59 0.862-0.683 1.388c-0.077 0.5 0 0.971-0.105 1.424c-0.111 0.363-0.374 0.652-0.559 1 c-0.336 0.618-0.512 1.3 0.5 1.132c1.471-0.237 2.238-1.815 3.273-2.705c1.846-1.592 3.695-2.426 5.688-3.672 c0.878-0.546 1.821-1.07 2.543-1.82c0.286-0.295 0.908-1.123 0.475-1.389c-0.076-0.048-0.186-0.075-0.329-0.081 c-0.556-0.023-1.036 0.511-1.597 0.477c-0.85-0.049-0.667-0.776-0.254-1.237c0.805-0.883 2.033-1.294 3.016-1.907 c0.752-0.467 2.652-1.901 1.724-2.895c-0.671 0.079-1.82 1.083-2.393 0.436c-0.654-0.742 1.236-1.713 1.708-2.171 c0.43-0.415 1.455-2.218 0.423-2.19c-0.46 0.008-2.196 1.521-2.466 0.63c-0.177-0.584 1.053-1.394 1.361-1.75 c0.335-0.392 1.596-1.759 1.108-2.26c-0.586-0.6-1.386 0.75-1.874 0.182c-0.369-0.427 0.312-1.907 0.392-2.397 c0.075-0.463 0.385-2.476-0.561-1.442c-0.291 0.317-0.9 2.409-1.572 2.041c-0.378-0.207 0.142-1.463-0.733-0.916 C54.771 8.8 53.8 11.8 53.4 11.611z" class="style0"/><path d="M51.447 23.739c0.742-1.097 1.472-2.237 2.07-3.423c0.489-0.975 1.093-1.885 1.364-2.948 c0.2-0.77 0.184-1.564 0.481-2.302c-0.48 1.969-1.022 3.551-2.148 5.204c-1.141 1.675-2.303 3.199-3.252 5 c-0.581 1.121-1.208 2.117-1.918 3.141c-0.375 0.542-1.416 2.212-1.166 2.888c0.609-0.256 0.863-1.613 1.224-2.187 c0.357-0.571 0.767-1.153 1.15-1.701C50.091 26.3 50.6 25 51.4 23.739z" class="style2"/></g><g><path d="M54.779 32.308c0.244 0.1 0.5 0.2 0.8 0.303c-0.634 1.3 0.8 2.6 1.7 3.3 c1.274 0.9 2.6 1.2 4.1 1.223c1.237-0.013 2.324-0.168 3.545-0.502c1.032-0.281 1.479-0.749 1.674-1.868 c2.724 0 4.456-1.758 4.453-4.523c-0.004-1.369-0.207-8.032-3.256-6.728c0.214-0.947-0.552-1.722-1.037-2.418 c-0.705-1.01-1.779-1.617-2.948-2.016c-1.329-0.447-2.636-0.25-3.902 0.304c-0.938 0.409-1.306 1.234-2.032 1.9 c-0.364-0.579-2.031-0.29-2.612 0.005c-0.929 0.473-1.636 1.581-1.777 2.585c-0.088 0.639-0.271 1.921-0.054 2.5 c-0.426 0.113-0.907 1.146-1.077 1.556c-0.298 0.72-0.238 1.6 0.1 2.234C53.14 31.4 53.7 31.9 54.8 32.308z" class="style6"/><path d="M61.937 30.699c0.501 0.1 1.009-0.004 1.367-0.21c1.095-0.623 1.573-2.186 1.497-3.367 c-0.113-1.664-1.872-2.461-3.374-2.247c-1.54 0.217-2.433 1.516-2.076 3.037c0.179 0.7 0.5 1.5 1 2.1 C60.729 30.4 61.3 30.6 61.9 30.699z" class="style3"/><path d="M64.069 31.946c0.155-0.097 0.425-0.073 0.6 0.018C65.65 32.4 63.9 33.1 64.1 31.946z M62.765 31.627c-0.035-0.099-0.546 0.057-0.607 0.086C61.961 32.6 63.1 32.5 62.8 31.627z M60.71 32 c-0.159-0.407-0.717 0.161-0.685 0.423C60.106 33 61 32.6 60.7 31.994z M59.913 30.7 c-0.126-0.393-0.776-0.245-0.653 0.161C59.382 31.3 60.1 31.1 59.9 30.696z M57.608 30.1 c-0.62-0.004-0.523 0.812-0.024 0.84C58.124 31 58.2 30.1 57.6 30.147z M58.471 28.2 c-0.2-0.322-1.066 0.459-0.414 0.759C58.59 29.2 58.7 28.6 58.5 28.242z M56.99 26.9 c-0.161-0.278-1.091 0.4-0.534 0.75C56.944 28 57.2 27.3 57 26.926z M58.526 25.5 c-0.518-0.321-0.913 0.465-0.398 0.706C58.597 26.4 59 25.8 58.5 25.516z M59.732 23.2 c-0.309-0.374-0.892-0.018-0.486 0.369C59.54 23.8 60 23.5 59.7 23.173z M61.884 23.7 c0.126-0.147 0.068-0.534-0.085-0.65C60.911 22.4 61.2 24.5 61.9 23.714z M60.614 24 c-0.038-0.053-0.09-0.085-0.159-0.095c-0.194 0.154-0.244 0.344-0.168 0.575C60.535 24.5 60.8 24.3 60.6 23.979z M63.704 23.704c-0.352-0.402-0.897-0.11-0.574 0.36C63.428 24.5 64.1 24.2 63.7 23.704z M65.491 24.4 c-0.136-0.277-0.868 0.165-0.525 0.577C65.311 25.4 65.6 24.7 65.5 24.379z M65.194 23.4 c0.191-0.335-0.191-0.65-0.509-0.506C64.17 23.2 64.9 24 65.2 23.448z M66.029 26.843c0.237-0.431-0.4-0.988-0.66-0.483 C65.197 26.7 65.7 27.4 66 26.843z M66.868 25.334c-0.503-0.025-0.609 0.743-0.111 0.8 C67.259 26.2 67.4 25.4 66.9 25.334z M67.068 27.896c-0.344-0.349-0.873 0.145-0.627 0.5 C66.759 28.9 67.5 28.3 67.1 27.896z M66.25 29.917c0.074-0.483-0.688-0.642-0.762-0.115 C65.418 30.3 66.2 30.4 66.2 29.917z M57.301 23.719c-0.497-0.248-0.644 0.636-0.242 0.8 C57.51 24.6 57.7 23.9 57.3 23.719z M57.715 22.237c0.05-0.481-0.668-0.687-0.728-0.157 C56.938 22.5 57.7 22.9 57.7 22.237z M55.485 25.051c-0.64-0.095-0.513 1 0 1 C56 25.9 56 25.1 55.5 25.051z M55.274 28.808c-0.441-0.407-0.965 0.262-0.533 0.6 C55.132 29.7 55.7 29.2 55.3 28.808z M58.022 32.269c-0.193-0.129-0.479-0.157-0.6 0.1 c-0.227 0.4 0.6 0.8 0.8 0.329C58.244 32.5 58.2 32.4 58 32.269z M59.584 34.1 c-0.602-0.105-0.47 0.787-0.071 0.865C60.022 35.1 60.1 34.2 59.6 34.101z M62.846 34.4 c-0.32-0.595-0.985 0.044-0.679 0.472C62.491 35.3 63.1 34.9 62.8 34.372z M65.104 34.3 c-0.476-0.324-0.761 0.498-0.433 0.731C65.068 35.3 65.6 34.6 65.1 34.284z M67.372 32.4 c0.158-0.014 0.318-0.142 0.319-0.352c0.017-0.504-0.564-0.452-0.604 0.018C67.069 32.3 67.2 32.4 67.4 32.437z M67.766 29.859c-0.518-0.178-0.803 0.544-0.296 0.72C67.938 30.7 68.3 30 67.8 29.859z M68.796 28.2 c-0.092 0.4 0.5 0.6 0.6 0.165C69.439 27.9 68.9 27.7 68.8 28.151z M63.062 20.9 c-0.473-0.389-0.992 0.238-0.439 0.575C63.062 21.8 63.5 21.3 63.1 20.946z M60.551 21.6 c0.123-0.353-0.334-0.812-0.64-0.525C59.501 21.5 60.3 22.2 60.6 21.62z M68.822 24.9 c-0.224-0.446-0.582-0.331-0.421 0.133C68.576 25.5 69.1 25.4 68.8 24.85z M70.032 30.7 c-0.229-0.629-1.112-0.398-0.797 0.295C69.503 31.6 70.2 31.3 70 30.681z M55.319 30.9 c-0.508-0.374-0.712 0.347-0.415 0.646C55.328 32 55.8 31.3 55.3 30.946z" class="style2"/></g><g><path d="M30.295 39.123c0.396 1.1 1.2 2.1 2 2.82c0.307 0.3 1.9 0.8 2 1.1 c1.11 3.4 2.3 5.9 6.2 6.631c2.742 0.5 5.755-0.236 7.733-2.252c0.243-0.246 1.59-0.019 1.906-0.014 c0.482 0 1 0 1.448-0.013c2.096-0.131 4.146-1.908 5.394-3.479c1.375-1.732 2.206-4.017 1.387-6.183 c-0.431-1.136-2.08-3.329-3.062-3.992c0.179 0.1 0.05-4.501-0.059-4.931c-0.567-2.302-1.646-4.716-3.761-5.986 c-1.809-1.094-4.379-0.561-6.216 0.086c-1.26 0.442-2.462 1.081-3.501 1.918c-0.192 0.159-2.547 2.641-2.312 2.8 c-1.701-0.951-4.694 0.263-6.03 1.36c-0.455 0.369-0.864 0.799-1.236 1.255c-1.852 2.277-2.789 5.511-2.061 8.4 C30.183 38.8 30.2 39 30.3 39.123z" class="style7"/><path d="M47.188 41.017c-2.018 1.259-3.986 0.353-5.346-1.161c-2.42-2.695-0.3-5.958 2.986-6.223 C48.626 33.3 50.4 39 47.2 41.017z" class="style6"/><path d="M46.545 37.449c0.016 2.626-4.199 2.374-4.268-0.094C42.198 34.7 46.5 35 46.5 37.449z" class="style3"/><path d="M47.451 42.685c-0.195 0.379-0.896 0.73-1.165 0.867c-0.671 0.347-1.477 0.584-2.242 0.5 c-1.371-0.103-2.758-0.938-3.544-2.066c-0.413-0.601-0.81-1.25-1.053-1.941c-0.099-0.282-0.371-1.56 0.149-1.455 c0.171 0 0.5 0.8 0.6 0.939c0.277 0.4 0.5 1 0.9 1.315c1.115 1 2.4 1.9 4 1.8 c0.666-0.022 1.25-0.282 1.899-0.342c0.214-0.023 0.466-0.228 0.5 0.103C47.508 42.5 47.5 42.6 47.5 42.685z M38.383 40.714c-0.01-0.206 0.105-0.317-0.01-0.538c-0.513-0.977-0.69 1.306-0.662 1.604c0.09 1 0.4 2 1.1 2.7 c0.826 0.8 1.9 1.4 3 1.696c0.582 0.1 2.2 0.5 2.389-0.392c0.093-0.366-1.034-0.117-1.356-0.162 c-0.746-0.102-1.46-0.399-2.091-0.839C39.451 43.9 38.5 42.3 38.4 40.714z M48.214 42.6 c0.745 0.4 1.744-1.026 2.084-1.518c0.964-1.408 1.311-3.057 0.954-4.732c-0.142-0.678-0.404-1.324-0.734-1.931 c-0.319-0.593-1.627-2.276-2.48-1.784c0.688 0.6 1.2 1.3 1.7 2.124c0.239 0.4 0.3 1 0.4 1.4 c0.165 1.5 0 3.072-0.781 4.314C49.2 40.7 48.1 42.6 48.2 42.618z M51.135 42.5 c-0.403 0.492-0.842 0.929-1.32 1.372c-0.84 0.777-1.858 0.903-2.924 1.196c-0.639 0.173-1.36-0.071-1.906 0.3 c-0.358 0.2 1 0.5 1 0.539c0.52 0 1.059-0.051 1.575-0.113c0.782-0.096 1.581-0.242 2.276-0.622 c1.698-0.921 3.065-2.957 3.742-4.768c0.323-0.875 0.627-2.375 0.123-3.225c-0.127-0.214-0.713 1.564-0.747 1.7 c-0.267 0.979-0.706 1.9-1.232 2.774C51.558 41.9 51.4 42.2 51.1 42.466z M51.476 45.5 c-0.613 0.173-1.408 0.076-1.887 0.599c1.036 0.5 2.658-0.019 3.629-0.399c1.823-0.719 3.343-2.549 3.605-4.49 c0.056-0.429 0.331-3.29-0.352-3.338c-0.34-0.024-0.337 2.115-0.397 2.47c-0.315 1.727-1.282 2.996-2.606 4.1 C52.857 44.9 52.2 45.3 51.5 45.512z M54.925 36.885c0.069 0.4 0.1 0.6 0.1 0.7 c-0.06 0.605-0.413 1.144-0.318 1.772c0.03 0.2 0.664-0.653 0.688-0.713c0.161-0.406 0.226-0.906 0.275-1.33 c0.047-0.375-0.23-3.102-1.044-2.797C54.442 34.6 54.7 36 54.9 36.885z M52.526 36.9 c0.879 0.1 0.831-2.027 0.746-2.563c-0.505-3.001-3.112-4.626-5.883-5.157c-0.859-0.167-1.974-0.282-2.827-0.049 c-0.249 0.064-1.088 0.478-1.139 0.762c-0.033 0.2 1.3 0 1.5 0.018c3.029-0.024 5.9 1.4 6.9 4.4 C51.865 34.5 52.5 36.9 52.5 36.916z M47.607 31.782c-0.236-0.554-1.91-0.431-2.396-0.346 c-0.936 0.162-2.076 0.313-2.942 0.683c-1.539 0.648-3.113 2.132-3.792 3.74c-0.315 0.751-0.578 1.892-0.2 2.6 c0.319 0.6 0.6 0.5 0.639-0.113c0.038-0.386 0.032-0.763 0.114-1.163c0.256-1.223 0.967-2.298 1.921-3.096 c0.899-0.752 1.971-1.377 3.073-1.771C44.355 32.2 47.5 31.6 47.6 31.782z M36.724 38.6 c0.168-0.966 0.166-1.925 0.527-2.833c0.363-0.928 0.849-1.798 1.451-2.587c1.141-1.504 2.793-2.026 4.587-2.167 c-0.073-1.455-4.113 0.36-4.625 0.729c-1.866 1.346-2.96 2.869-3.091 5.25c-0.055 1 0 1.9 0.3 2.8 c0.121 0.4 0.2 0.8 0.5 1.204c0.074 0.1 0.3 0.5 0.5 0.39c0.331-0.121-0.006-0.421-0.035-0.586 C36.654 40.1 36.6 39.4 36.7 38.619z M40.156 29.954c0.834-0.663 1.822-0.868 2.794-1.309 c1.752-0.801 3.62-1.193 5.538-0.858c2.171 0.4 3.7 1.8 4.4 3.902c0.074 0.2 0.3 1.4 0.6 1.4 c0.688 0.1 0.172-1.703 0.087-1.994c-0.545-1.889-1.748-3.428-3.488-4.307c-1.864-0.941-4.11-0.587-6.006-0.07 c-1.278 0.346-2.828 0.792-3.743 1.815c-0.453 0.506-1.4 1.49-1.365 2.227c0.558 0 0.773-0.415 1.159-0.742 C40.09 30 40.1 30 40.2 29.954z M54.264 31.048c-0.007-0.001 0.1 0.1 0.1 0.1 c0.116 0.1 0.365-0.986 0.354-1.082c-0.032-0.334-0.204-0.732-0.314-1.043c-0.112-0.339-0.259-0.793-0.531-1.039 c-0.229-0.203-0.737-0.35-0.736 0.083c-0.004 0.3 0.3 0.5 0.5 0.762C53.729 29 54.2 31 54.3 31.048z M43.489 24.884c-0.378 0.277-1.8 1.007-1.608 1.579c0.154-0.031 0.228-0.125 0.353-0.163c0.93-0.293 1.752-0.798 2.726-0.999 c1.486-0.296 3.012-0.321 4.5 0.03c0.629 0.2 1.3 0.4 1.8 0.689c0.147 0.1 1.3 1.3 1.2 1.3 c0.071-0.013 0.135-0.032 0.204-0.055c0.094-2.616-2.38-4.1-4.795-3.886C46.556 23.5 44.6 24.1 43.5 24.884z M32.979 37.001c0.028 1 0.3 1.9 0.7 2.88c0.162 0.4 0.4 1 0.5 0.286c0.043-0.438-0.092-0.964-0.087-1.425 c0.021-1.302 0.209-2.616 0.654-3.836c0.339-0.93 0.941-1.839 1.604-2.561c0.232-0.251 0.896-0.813 0.81-1.14 c-0.549 0.424-1.133 0.663-1.617 1.157c-0.486 0.492-0.933 1.009-1.369 1.553C33.515 34.8 32.9 35.9 33 37.001z M31.09 36.692c-0.002 0.355-0.032 3.4 0.7 3.288c0.347-0.056 0.058-1.641 0.073-2.06c0.041-1.13 0.216-2.263 0.649-3.308 c0.777-1.868 2.09-3.143 3.673-4.354c0.363-0.274 2.183-1.378 2.139-1.644c-0.035-0.19-2.365 0.601-2.557 0.7 c-0.896 0.387-1.68 0.979-2.329 1.711c-0.207 0.229-0.4 0.457-0.578 0.688C31.666 33.2 31.1 34.7 31.1 36.692z M41.861 47.243c-0.138-0.043-1.264-0.492-1.276-0.542c0.449 1.4 2.7 1.7 4 1.514c0.701-0.091 2.048-1.108 2.014-1.872 c-0.369 0.214-0.604 0.572-1.035 0.757c-0.601 0.259-1.339 0.385-2.069 0.381C42.895 47.5 42.3 47.4 41.9 47.243z M38.869 46.189c-1.096-0.994-2.143-2.038-2.695-3.447c-0.381-0.968-0.431-2.104-1.132-2.921 c-0.493 0.6 0.1 2.2 0.3 2.858c0.71 2.4 3.6 6.2 6.5 6.038c-0.167-0.382-1.034-0.782-1.382-1.123 C39.905 47.1 39.4 46.7 38.9 46.189z" class="style2"/></g></g></g></svg>
