<?xml version="1.0" encoding="UTF-8" standalone="no"?>
<svg width="69px" height="32px" viewBox="0 0 69 32" version="1.1" xmlns="http://www.w3.org/2000/svg" xmlns:xlink="http://www.w3.org/1999/xlink" xmlns:sketch="http://www.bohemiancoding.com/sketch/ns">
    <!-- Generator: Sketch 3.3.1 (12002) - http://www.bohemiancoding.com/sketch -->
    <title>Imported Layers</title>
    <desc>Created with Sketch.</desc>
    <defs></defs>
    <g id="Page-1" stroke="none" stroke-width="1" fill="none" fill-rule="evenodd" sketch:type="MSPage">
        <g id="Imported-Layers" sketch:type="MSLayerGroup" transform="translate(33.124286, 14.299885) rotate(-22.000000) translate(-33.124286, -14.299885) translate(-5.375714, 7.799885)" fill="#FDFCF3">
            <path d="M24.905,6.827 L18.483,0.863 L19.87,0.841 L25.88,6.423 L25.46,6.871 L25.835,7.275 L20.532,12.201 L19.177,12.146 L24.905,6.827" id="Fill-2" sketch:type="MSShapeGroup"></path>
            <path d="M23.157,12.304 L21.857,12.252 L27.187,6.826 L21.281,0.813 L22.608,0.791 L28.401,6.689 L28.215,6.871 L28.356,7.009 L23.157,12.304" id="Fill-3" sketch:type="MSShapeGroup"></path>
            <path d="M20.701,6.824 L15.538,0.918 L18.053,0.874 L23.059,6.596 L22.745,6.868 L23.013,7.102 L18.619,12.126 L16.148,12.028 L20.701,6.824" id="Fill-4" sketch:type="MSShapeGroup"></path>
            <path d="M18.198,6.824 L12.801,0.969 L14.086,0.945 L19.273,6.571 L18.954,6.868 L19.229,7.124 L14.757,11.977 L13.497,11.927 L18.198,6.824" id="Fill-5" sketch:type="MSShapeGroup"></path>
            <path d="M13.886,6.824 L8.484,1.049 L11.075,1 L16.367,6.665 L16.148,6.868 L16.322,7.034 L11.81,11.861 L9.27,11.764 L13.886,6.824" id="Fill-6" sketch:type="MSShapeGroup"></path>
            <path d="M7.564,11.693 L6.302,11.645 L10.746,6.824 L5.471,1.103 L6.759,1.078 L11.823,6.571 L11.502,6.868 L11.779,7.124 L8.519,10.658" id="Fill-7" sketch:type="MSShapeGroup"></path>
            <path d="M76.115,7.65 L67.48,2.895 L69.643,6.786 L7.658,6.293 L7.649,7.255 L69.543,7.746 L66.477,10.153 L76.115,7.65" id="Fill-8" sketch:type="MSShapeGroup"></path>
        </g>
    </g>
</svg>