<?xml version="1.0" encoding="UTF-8" standalone="no"?>
<svg width="432px" height="69px" viewBox="0 0 432 69" version="1.1" xmlns="http://www.w3.org/2000/svg" xmlns:xlink="http://www.w3.org/1999/xlink" xmlns:sketch="http://www.bohemiancoding.com/sketch/ns">
    <!-- Generator: Sketch 3.3.1 (12002) - http://www.bohemiancoding.com/sketch -->
    <title>Imported Layers</title>
    <desc>Created with Sketch.</desc>
    <defs></defs>
    <g id="Page-1" stroke="none" stroke-width="1" fill="none" fill-rule="evenodd" sketch:type="MSPage">
        <g id="Imported-Layers" sketch:type="MSLayerGroup">
            <path d="M171.09445,0.576218539 C170.130859,0.576218539 169.200993,0.674183687 168.335366,0.876537925 C164.933888,1.66828903 161.737976,2.75072361 159.133066,5.19985229 C148.886876,14.8132846 154.772814,32.6284875 161.187123,42.8313167 C167.124453,52.2841505 175.494852,60.7043352 183.287096,68.6154223 C190.281165,64.8798988 195.72867,59.0084139 200.312154,52.5764399 C202.873702,48.9790312 205.706661,44.5513278 208.072278,39.7574595 C202.616744,29.59478 198.715804,14.6430501 207.160078,5.83582276 C203.700784,2.63830459 199.424044,1.70201474 194.684779,1.52375029 C194.545058,1.51893233 194.405337,1.51572036 194.267223,1.51572036 C192.261346,1.51572036 190.698722,2.08745139 188.794022,2.97556165 C188.093812,3.30157682 185.707317,4.57512373 183.661291,7.10294573 C181.514088,3.02052926 175.909196,0.576218539 171.09445,0.576218539" id="Fill-1" fill="#FFC9B0" sketch:type="MSShapeGroup"></path>
            <path d="M166.239555,49.9924084 L161.832729,51.7750529 C159.746553,51.8376863 154.716605,51.5582448 153.924854,49.5973358 L152.497132,50.1738848 C153.282459,52.1171279 156.730511,52.6872529 159.181246,52.8526695 L156.683938,53.8612287 C154.609004,53.9158323 149.564602,53.6428146 148.769639,51.6786937 L147.361189,52.2488188 C148.14491,54.1984858 151.58172,54.7750348 154.027637,54.9324214 L151.543176,55.9425866 C149.455395,56.0020081 144.425446,55.7193546 143.632089,53.7616576 L142.209186,54.3349946 C142.992907,56.2766317 146.439353,56.8515747 148.878846,57.0202032 L145.316769,58.4607727 L145.708629,59.4323942 L149.272312,57.9902188 C147.635812,59.806589 145.557667,62.6106406 146.3446,64.5570956 L147.769109,63.9805466 C146.975752,62.0212437 150.39329,58.3242639 151.935037,56.9190261 L154.427527,55.9072549 C152.781392,57.7252311 150.708064,60.5260707 151.498209,62.4693138 L152.913083,61.8959768 C152.116513,59.9366738 155.543688,56.238088 157.07901,54.8344563 L159.576319,53.824291 C157.923759,55.6438732 155.850431,58.4463188 156.634152,60.3911679 L158.060268,59.8194369 C157.265305,57.8569219 160.682843,54.1567302 162.22459,52.7514924 L166.658717,50.959212 C166.520602,50.6380148 166.377669,50.3152116 166.239555,49.9924084" id="Fill-2" fill="#FDFCF3" sketch:type="MSShapeGroup"></path>
            <path d="M219.768675,0.576218539 C218.805083,0.576218539 217.873611,0.674183687 217.007985,0.876537925 C213.606506,1.66828903 210.4122,2.75072361 207.804079,5.19985229 C207.582453,5.40863048 207.367251,5.62062063 207.160078,5.83582276 C207.505365,6.15380799 207.842622,6.49427703 208.170244,6.85883585 C216.415376,16.0193801 213.460362,28.8335426 208.072278,39.7574595 C208.653645,40.8398941 209.252678,41.8693311 209.856529,42.8313167 C215.800283,52.2841505 224.164258,60.7043352 231.958109,68.6154223 C238.95539,64.8798988 244.399682,59.0084139 248.983166,52.5764399 C257.384079,40.7820786 268.704675,20.0391631 256.844468,6.85883585 C253.219757,2.8326289 248.572034,1.71968059 243.357397,1.52375029 C243.216071,1.51893233 243.07635,1.51572036 242.939841,1.51572036 C240.933964,1.51572036 239.37134,2.08745139 237.469853,2.97556165 C236.768037,3.30157682 234.379935,4.57512373 232.332303,7.10294573 C230.188312,3.02052926 224.583421,0.576218539 219.768675,0.576218539" id="Fill-3" fill="#FFE3E7" sketch:type="MSShapeGroup"></path>
            <path d="M207.160078,5.83582276 C198.715804,14.6430501 202.616744,29.59478 208.072278,39.7574595 C213.460362,28.8335426 216.415376,16.0193801 208.170244,6.85883585 C207.842622,6.49427703 207.505365,6.15380799 207.160078,5.83582276" id="Fill-4" fill="#FFDDD1" sketch:type="MSShapeGroup"></path>
            <path d="M277.059014,6.10081045 L267.837442,6.69181331 C267.837442,6.69181331 269.89471,7.25069644 270.819758,8.00390389 L256.870164,13.620037 L257.265236,14.5964765 L271.288706,8.94661768 C271.240527,10.1173815 270.061733,12.12647 270.061733,12.12647 L277.059014,6.10081045" id="Fill-5" fill="#FDFCF3" sketch:type="MSShapeGroup"></path>
            <path d="M377.828098,53.9677628 L382.515936,47.1955436 C386.174859,42.8783345 391.183919,38.2668678 392.077319,34.5940182 L394.667173,30.2982877 C394.667173,30.2982877 393.158934,30.4250118 390.666952,30.0298046 C387.50241,29.56157 383.72052,28.2642593 375.223186,27.9055658 C347.731075,24.1854632 319.450965,21.6209121 293.349143,20.0658577 C250.955328,17.3767304 198.234719,16.2082917 141.232818,19.9520208 C140.060858,19.9692038 138.100901,20.0658577 134.680385,20.347228 C132.810771,20.4997265 130.941157,20.6779993 129.066523,20.8369413 C122.943223,21.3073238 116.774751,21.8399944 110.568636,22.4328052 C110.124446,22.4736146 109.675237,22.5165719 109.228537,22.5595292 C85.6262266,24.8577451 61.5345542,28.0322899 37.3224234,32.3645341 L53.4939585,55.9631296 C53.3458951,55.9223202 53.1903031,55.9072851 53.0397301,55.8621799 C53.2931946,56.227317 53.5366209,56.5795669 53.7925949,56.9404083 C54.7612809,56.8416065 55.5442602,56.7148824 56.2419149,56.562384 C60.4027475,55.9373552 64.6037329,55.3917974 68.8072278,54.8806055 C71.3795157,54.5713129 73.966861,54.0407902 76.5793017,53.8711088 C80.853064,53.5918864 84.9862915,53.6713574 89.2976971,53.4995282 C93.0118299,53.3513255 96.7861919,52.7971762 100.477739,52.4857358 C108.079163,51.8370805 115.705683,51.2786355 123.339732,50.7545564 C132.941267,49.9233325 142.680828,49.8223828 148.495453,49.117883 C169.831641,48.2501455 209.710887,47.5327585 228.612812,47.7131792 C233.089848,48.018176 255.12369,48.2608848 266.549667,48.8966529 C278.879082,49.3391132 279.524037,49.1458053 291.830866,49.8503051 C304.883031,50.8834283 312.534647,51.2270867 325.32331,52.4599614 C337.093095,52.5308409 351.924531,55.5614788 366.196338,55.844997 C369.408561,56.1886554 372.565574,56.5194267 375.802892,56.8867117 L376.769068,55.4905992 C376.922151,55.4841556 377.082762,55.477712 377.238354,55.462677 C377.31615,55.0094774 377.602239,54.4789547 377.828098,53.9677628" id="Fill-1" fill="#FDFCF3" sketch:type="MSShapeGroup"></path>
            <path d="M42.0654714,29.8816019 C45.63656,28.6981281 50.0583857,29.3661142 53.4061243,27.7466238 C53.9180723,27.6349348 55.049879,27.1516651 55.5643366,27.042124 C55.5116361,26.9046606 54.9469875,26.6834305 54.8967965,26.5459671 C55.0197644,26.4643483 54.7813573,26.0562539 54.8993061,25.9617478 C54.9821212,23.6141311 54.0962503,22.2223144 52.7410938,21.3245067 C52.5102152,20.7359916 52.3420754,20.3128622 52.3420754,20.3128622 C51.7071595,20.3278973 51.1224345,20.3579674 50.4950472,20.3815939 C47.217576,19.6040667 42.8007694,20.220504 39.5383554,20.3665588 L36.1303876,21.0925373 C34.1553723,21.5199625 32.2305481,21.4361957 30.2053419,21.479153 C26.5037568,21.6767566 22.844834,22.1557306 19.2335927,22.9289621 L14.1843797,24.1532453 C10.2343493,24.9114417 6.30439521,25.783475 2.45223718,27.0249411 C1.85998357,25.8242844 -0.531616828,29.4842468 1.10962835,29.6990333 L3.74465502,31.1058851 C4.88399036,31.776019 5.72468935,32.6072429 7.09741276,32.9251269 L7.1551324,32.9616406 L9.51912775,34.3405701 L14.4980734,37.2294489 C15.8557395,38.4429928 19.8860755,39.347244 19.015262,40.8507497 L17.3087685,46.1667162 L17.0151512,47.2642753 L16.6813812,48.2157796 C16.3325539,49.1071437 15.6574851,49.8975581 15.1605944,50.728782 L14.5181498,52.9389353 C13.865667,54.2233587 13.6498457,55.3810581 13.9886349,55.9180244 L13.7778328,56.5237224 C14.0036922,56.4055898 14.2471185,56.3089359 14.4754874,56.1886554 C14.9548113,56.2702743 15.6951284,56.0082348 16.7842727,55.1984896 L19.8810564,53.7744549 L27.8789898,50.7932179 C27.9266712,50.7738872 27.9793717,50.7545564 28.0270532,50.7352256 L36.356247,48.2157796 C37.2345892,47.9730709 38.0552118,47.7625801 38.8607771,47.5585329 L40.1632331,47.2256138 C40.8960215,47.0430452 44.3341039,46.7230133 44.9765485,46.5748106 L35.5331148,32.9100919 L34.9935618,31.5827112 C34.3034357,31.123068 36.5243868,31.1316595 37.0388444,31.0500406 L42.0654714,29.8816019" id="Fill-2" fill="#FDFCF3" sketch:type="MSShapeGroup"></path>
            <path d="M393.409889,29.2909389 C393.926856,29.3725578 397.154137,29.5658657 396.46903,30.0298046 L396.930787,30.4421947 L386.275241,45.6018276 C386.917685,45.7457346 391.648186,44.6009224 392.373445,44.7770474 L393.680921,45.1056708 C394.488995,45.309718 395.309618,45.515913 396.18796,45.7543261 L404.532211,48.241554 C404.579893,48.2608848 404.630084,48.2780677 404.677765,48.2995464 L412.693265,51.2507132 L415.800087,52.6618607 C416.891741,53.4673102 417.634568,53.725054 418.111382,53.645583 C418.342261,53.7615677 418.583177,53.8603695 418.814056,53.9742064 L418.598235,53.3685084 C418.934514,52.8315421 418.713674,51.6781384 418.056172,50.393715 L417.39867,48.1878574 C416.89927,47.3544857 416.221692,46.568367 415.862826,45.6812986 L415.529056,44.7297943 L415.22791,43.6322352 L413.491302,38.3227123 C412.61296,36.8256502 416.640786,35.8999203 417.993433,34.6863764 L422.954812,31.776019 L425.311279,30.3884981 L425.368998,30.3519844 C426.739212,30.0298046 427.572383,29.1985807 428.711718,28.5198553 L431.336706,27.1022642 C432.980461,26.8810341 430.566275,23.2339589 429.98155,24.4346156 C426.124373,23.2081845 422.1894,22.3511863 418.23435,21.6080249 L413.177608,20.4009247 C409.563857,19.6427282 405.899916,19.1787893 402.20084,18.9962208 C400.173124,18.9597071 398.255829,19.0477696 396.275794,18.6289358 L392.860298,17.9179924 C389.597884,17.7848248 385.176058,17.1855704 381.908625,17.9738369 C381.278728,17.9588019 380.688984,17.9265839 380.056578,17.9115488 C380.056578,17.9115488 379.893457,18.3368262 379.665088,18.929637 C378.314951,19.8274446 378.018824,20.1217022 377.346265,22.8731176 C377.464214,22.9633279 376.387617,23.7730731 376.510585,23.854692 C376.460394,23.9921554 374.246971,25.9295298 374.19678,26.0691411 C374.713748,26.1722386 377.76285,26.4278346 378.274798,26.5395236 C382.704152,27.5898297 386.541253,27.3836346 390.117361,28.5520733 L393.409889,29.2909389" id="Fill-3" fill="#FDFCF3" sketch:type="MSShapeGroup"></path>
        </g>
    </g>
</svg>