<?xml version="1.0" encoding="UTF-8" standalone="no"?>
<svg width="116px" height="42px" viewBox="0 0 116 42" version="1.1" xmlns="http://www.w3.org/2000/svg" xmlns:xlink="http://www.w3.org/1999/xlink" xmlns:sketch="http://www.bohemiancoding.com/sketch/ns">
    <!-- Generator: Sketch 3.3.1 (12002) - http://www.bohemiancoding.com/sketch -->
    <title>Imported Layers Copy 5</title>
    <desc>Created with Sketch.</desc>
    <defs></defs>
    <g id="Page-1" stroke="none" stroke-width="1" fill="none" fill-rule="evenodd" sketch:type="MSPage">
        <g id="Imported-Layers-Copy-5" sketch:type="MSLayerGroup">
            <path d="M35.2165813,0.280558775 C34.6285071,0.280558775 34.0610154,0.340189735 33.5327286,0.46336188 C31.4568264,0.945297337 29.50638,1.60417056 27.9166191,3.09494454 C21.6634291,8.94659899 25.2555829,19.7906356 29.1701975,26.0010533 C32.7937153,31.7549521 37.9021206,36.8802819 42.6576814,41.6957263 C46.9261206,39.4219294 50.2507006,35.8479821 53.047974,31.9328674 C54.6112715,29.7431404 56.3402099,27.0480166 57.7839323,24.1300098 C54.4544517,17.9440309 52.073731,8.84297798 57.227222,3.482057 C55.1160353,1.53574159 52.5059656,0.965826028 49.6136202,0.857317233 C49.5283494,0.854384563 49.4430786,0.85242945 49.358788,0.85242945 C48.1346133,0.85242945 47.1809528,1.20043964 46.018526,1.7410285 C45.591192,1.93947251 44.134728,2.71467498 42.8860503,4.25334924 C41.5756247,1.76840009 38.1549926,0.280558775 35.2165813,0.280558775" id="Fill-1" fill="#FFC9B0" sketch:type="MSShapeGroup"></path>
            <path d="M32.253667,30.3599787 L29.5642073,31.4450666 C28.2910264,31.4831913 25.2212786,31.3130965 24.7380776,30.1194997 L23.8667475,30.4704426 C24.346028,31.6532862 26.4503539,32.0003188 27.9460228,32.1010072 L26.4219303,32.7149128 C25.1556103,32.7481497 22.0770414,32.5819651 21.5918801,31.3864132 L20.7323115,31.7334459 C21.2106119,32.9201997 23.3080769,33.2711426 24.8008055,33.3669431 L23.2845539,33.9818263 C22.010393,34.0179959 18.9406452,33.8459459 18.456464,32.6543043 L17.5880743,33.003292 C18.0663747,34.1851581 20.1697204,34.5351234 21.6585285,34.6377668 L19.4846139,35.5146352 L19.7237641,36.106057 L21.8986589,35.2282111 C20.8999127,36.3338277 19.6316325,38.0406417 20.1118931,39.2254405 L20.981263,38.8744976 C20.4970818,37.6818784 22.5827853,35.4315429 23.5237042,34.5761808 L25.0448563,33.96032 C24.0402294,35.0669142 22.7748896,36.7717731 23.2571105,37.9546168 L24.1205996,37.605629 C23.6344581,36.4130098 25.7260424,34.1616967 26.6630408,33.3073122 L28.1871333,32.692429 C27.1785859,33.8000007 25.913246,35.5058372 26.3915465,36.6896584 L27.2618964,36.3416482 C26.7767351,35.1470739 28.8624386,32.8947832 29.8033575,32.0394211 L32.5094794,30.9484678 C32.4251887,30.7529565 32.3379577,30.5564676 32.253667,30.3599787" id="Fill-2" fill="#FDFCF3" sketch:type="MSShapeGroup"></path>
            <path d="M64.9221741,0.280558775 C64.3340998,0.280558775 63.765628,0.340189735 63.2373413,0.46336188 C61.161439,0.945297337 59.2119727,1.60417056 57.6202517,3.09494454 C57.4849946,3.22202691 57.353658,3.3510644 57.227222,3.482057 C57.4379486,3.67561322 57.6437746,3.88285525 57.8437199,4.10476062 C62.8756756,9.68074408 61.0722478,17.4806691 57.7839323,24.1300098 C58.1387372,24.788883 58.5043233,25.4154969 58.8728499,26.0010533 C62.5002882,31.7549521 67.604773,36.8802819 72.3613139,41.6957263 C76.6317134,39.4219294 79.9543332,35.8479821 82.7516066,31.9328674 C87.8786343,24.753691 94.7875271,12.1275685 87.5493127,4.10476062 C85.3371732,1.65402595 82.5006949,0.976579152 79.3182328,0.857317233 C79.2319819,0.854384563 79.1467112,0.85242945 79.0634006,0.85242945 C77.839226,0.85242945 76.8855655,1.20043964 75.7250989,1.7410285 C75.2967848,1.93947251 73.8393407,2.71467498 72.5896828,4.25334924 C71.2812175,1.76840009 67.8605853,0.280558775 64.9221741,0.280558775" id="Fill-3" fill="#FFE3E7" sketch:type="MSShapeGroup"></path>
            <path d="M57.227222,3.482057 C52.073731,8.84297798 54.4544517,17.9440309 57.7839323,24.1300098 C61.0722478,17.4806691 62.8756756,9.68074408 57.8437199,4.10476062 C57.6437746,3.88285525 57.4379486,3.67561322 57.227222,3.482057" id="Fill-4" fill="#FFDDD1" sketch:type="MSShapeGroup"></path>
            <path d="M99.8861312,3.64335385 L94.2582602,4.00309472 C94.2582602,4.00309472 95.5137988,4.34328446 96.0783502,4.80175855 L87.5649947,8.22027436 L87.8061051,8.81462884 L96.3645463,5.37558434 C96.3351426,6.08822318 95.6157317,7.31114662 95.6157317,7.31114662 L99.8861312,3.64335385" id="Fill-5" fill="#FDFCF3" sketch:type="MSShapeGroup"></path>
            <path d="M98.80373,27.5120996 L99.9818021,24.3590996 C100.901076,22.3490996 101.964126,20.1790996 102.189676,18.4690996 L102.821396,16.7820996 C102.821396,16.7820996 102.470041,16.6680996 101.843713,16.4830996 C101.314434,15.7060996 100.222628,15.2580996 98.149545,15.3780996 C91.2392671,13.6460996 84.1312959,12.4520996 77.5696769,11.7280996 C66.9140104,10.4760996 53.6622719,9.93209955 39.3349024,11.6750996 C39.0419569,11.6830996 38.5477238,11.7280996 37.6886567,11.8590996 C37.2186859,11.9300996 36.7487151,12.0130996 36.2778457,12.0870996 C34.7385342,12.3060996 33.1884393,12.5540996 31.6284598,12.8300996 C31.5161341,12.8490996 31.4038084,12.8690996 31.2914826,12.8890996 C25.3588877,13.9600996 19.3031838,15.4370996 13.2178259,17.4540996 L17.2822195,28.4410996 C17.2444781,28.4230996 17.2058381,28.4150996 17.1689952,28.3940996 C17.2318976,28.5640996 17.2930028,28.7280996 17.3577024,28.8960996 C17.6012246,28.8500996 17.7980192,28.7910996 17.9732473,28.7200996 C19.0192244,28.4290996 20.0750861,28.1750996 21.1318464,27.9370996 C21.7779439,27.7930996 22.4276359,27.5470996 23.0854153,27.4670996 C24.1592491,27.3370996 25.1980373,27.3740996 26.2817558,27.2940996 C27.2154071,27.2250996 28.1643347,26.9670996 29.0916958,26.8220996 C31.0021316,26.5200996 32.9197562,26.2600996 34.8382794,26.0160996 C37.2510357,25.6300996 39.6988377,25.5820996 41.1608692,25.2540996 C46.5237481,24.8500996 56.5476949,24.5160996 61.2986233,24.6000996 C62.4236776,24.7420996 67.9617846,24.8550996 70.8346271,25.1510996 C73.9330196,25.3570996 74.0947686,25.2670996 77.1886681,25.5950996 C80.468579,26.0760996 82.3915952,26.2360996 85.6068064,26.8100996 C88.5650165,26.8430996 92.2933316,28.2540996 95.8805656,28.3860996 C96.6875135,28.5470996 97.481881,28.7000996 98.2951191,28.8710996 L98.5377427,28.2210996 C98.5763827,28.2180996 98.61682,28.2160996 98.65546,28.2080996 C98.6752294,27.9970996 98.7471178,27.7500996 98.80373,27.5120996" id="Fill-1" fill="#FDFCF3" sketch:type="MSShapeGroup"></path>
            <path d="M15.3502173,16.6000996 C16.6307304,16.0550996 18.1071396,15.9910996 19.3085754,15.2430996 C19.4927896,15.1910996 19.6796996,15.1270996 19.8630152,15.0770996 C19.845043,15.0120996 19.8324626,14.9580996 19.8153891,14.8930996 C19.8594207,14.8550996 19.9097427,14.8420996 19.9519771,14.7990996 C19.9861241,13.7060996 19.6716121,13.0550996 19.1890609,12.6350996 C19.1072878,12.3600996 19.0470812,12.1640996 19.0470812,12.1640996 C18.8206325,12.1700996 18.6103588,12.1820996 18.3857074,12.1920996 C17.2139255,11.8250996 15.6314808,12.1040996 14.4623948,12.1660996 L13.2411896,12.4970996 C12.5330883,12.6930996 11.8438578,12.6500996 11.1186829,12.6680996 C9.79323952,12.7530996 8.48217378,12.9680996 7.18818155,13.3220996 L5.37659243,13.8830996 C3.96038983,14.2290996 2.55227467,14.6290996 1.17111769,15.2000996 C0.960843951,14.6390996 0.0972838597,16.3380996 0.684971997,16.4410996 L1.62581218,17.1010996 C2.03288057,17.4160996 2.33121767,17.8040996 2.82275499,17.9550996 L2.84342292,17.9710996 L3.68721369,18.6180996 L5.46465579,19.9720996 C5.94810567,20.5390996 7.39036784,20.9670996 7.07585584,21.6660996 L6.45402068,24.1380996 L6.3470866,24.6480996 L6.22667344,25.0910996 C6.09907143,25.5050996 5.85554928,25.8720996 5.67672674,26.2580996 L5.44219065,27.2860996 C5.20675595,27.8830996 5.12767865,28.4210996 5.24719321,28.6720996 L5.16991312,28.9530996 C5.25258484,28.8990996 5.33885099,28.8540996 5.42062411,28.8000996 C5.5922578,28.8370996 5.8582451,28.7170996 6.25003719,28.3420996 L7.36071385,27.6840996 L10.2308605,26.3100996 C10.247934,26.3010996 10.2668047,26.2930996 10.2838782,26.2840996 L13.2708436,25.1260996 C13.5853556,25.0140996 13.8800983,24.9180996 14.1685507,24.8240996 L14.6367243,24.6720996 C14.8982186,24.5880996 15.1579156,24.5020996 15.3879587,24.4330996 L13.0057549,17.9980996 L12.8143519,17.3790996 C12.568134,17.1640996 13.3634,17.1730996 13.5476142,17.1350996 L15.3502173,16.6000996" id="Fill-2" fill="#FDFCF3" sketch:type="MSShapeGroup"></path>
            <path d="M102.532045,16.4060996 C102.716259,16.4440996 103.510627,16.4350996 103.265307,16.6510996 L103.073904,17.2680996 L100.689903,23.7060996 C100.920845,23.7730996 101.182339,23.8600996 101.442036,23.9420996 L101.91021,24.0950996 C102.199561,24.1900996 102.493405,24.2860996 102.807917,24.3970996 L105.794882,25.5550996 C105.812855,25.5640996 105.830827,25.5720996 105.8479,25.5820996 L108.717148,26.9560996 L109.830521,27.6130996 C110.221414,27.9880996 110.487401,28.1080996 110.658137,28.0710996 C110.73991,28.1250996 110.827074,28.1710996 110.908848,28.2240996 L110.831567,27.9420996 C110.952879,27.6920996 110.872903,27.1550996 110.638367,26.5570996 L110.402933,25.5300996 C110.22411,25.1420996 109.981486,24.7760996 109.852986,24.3630996 L109.733471,23.9200996 L109.625639,23.4090996 L109.003803,20.9370996 C108.689291,20.2400996 110.131554,19.8090996 110.615902,19.2440996 L112.392446,17.8890996 L113.236236,17.2430996 L113.256904,17.2260996 C113.747543,17.0760996 114.04588,16.6890996 114.453847,16.3730996 L115.393789,15.7130996 C115.982375,15.6100996 115.117917,13.9120996 114.908542,14.4710996 C113.527385,13.9000996 112.118371,13.5010996 110.70127,13.1550996 L108.891478,12.5930996 C107.597485,12.2400996 106.285521,12.0240996 104.960976,11.9390996 C104.234903,11.9220996 103.548368,11.9640996 102.83847,11.7680996 L101.616366,11.4370996 C100.448178,11.3750996 98.8648352,11.0960996 97.6939519,11.4630996 C97.4693005,11.4560996 97.2581281,11.4410996 97.0316795,11.4340996 C97.0316795,11.4340996 96.9732701,11.6330996 96.8905984,11.9080996 C96.4080471,12.3260996 96.0935351,12.9770996 96.1267835,14.0710996 C96.169018,14.1130996 96.2202385,14.1270996 96.2642702,14.1650996 C96.2453995,14.2290996 96.2337176,14.2840996 96.2157455,14.3490996 C96.4008583,14.3970996 96.5868697,14.4630996 96.7701852,14.5140996 C97.9725197,15.2620996 99.4480303,15.3280996 100.728543,15.8720996 L102.532045,16.4060996" id="Fill-3" fill="#FDFCF3" sketch:type="MSShapeGroup"></path>
            <path d="M32.1791992,19.9134882 L38.2731934,31.4118652 L77.6022949,31.228104 L82.0952148,19.7603029 L32.1791992,19.9134882 Z" id="Path-5414" fill="#FDFCF3" sketch:type="MSShapeGroup"></path>
        </g>
    </g>
</svg>