<svg xmlns="http://www.w3.org/2000/svg" xmlns:xlink="http://www.w3.org/1999/xlink" xmlns:sketch="http://www.bohemiancoding.com/sketch/ns" width="252px" height="76px" viewBox="0 0 252 76" version="1.1"><style>.style0{fill:   none;fill-rule: evenodd;}.style1{fill:  #6F7C5B;}.style10{fill: #F0A995;}.style11{fill: #F7D8B6;}.style12{fill: #E48867;}.style2{fill:  white;}.style3{mask:    url(#mask-2);fill:  #6F7C5B;}.style4{mask:  url(#mask-4);fill:  #6F7C5B;}.style5{fill:  #FFF7E1;}.style6{fill:  #645C53;}.style7{fill:  #A9D2BA;}.style8{fill:  #896A57;}.style9{fill:  #736C61;}</style><title>flowers</title><defs><path d="M0.0892941176 0.5 L251.751371 0.5 L251.751371 76 L0.0892941176 76"/><path d="M0.0892941176 0.5 L251.751371 0.5 L251.751371 76 L0.0892941176 76"/></defs><g sketch:type="MSPage" class="style0"><g sketch:type="MSLayerGroup"><path d="M113.550865 73 L112.596906 72.5 C113.9512 69.9 115.6 67.8 117.4 65.6 C117.767035 65.2 118.1 64.7 118.5 64.3 C121.096218 61 123.5 58.8 125.8 57.6 C125.697841 57.1 125.8 56.4 126.2 55.6 C126.549112 55 127 54.3 127.8 53.7 C129.385688 52.5 131.4 52 133.3 51.7 C135.052888 51.3 136.9 51.2 138.7 51 C140.441788 50.9 142.3 50.7 144 50.4 C149.945659 49.2 156.3 48.9 162.4 48.7 C163.984182 48.6 165.6 48.6 167.1 48.5 C169.286765 48.4 171.5 48.3 173.6 48.3 C178.966247 48.1 184 48 189.1 47 C193.186335 46.2 197.3 44.2 201.2 42.3 C203.431347 41.2 205.7 40 208 39.1 C216.401318 35.8 223.2 32 228.7 27.5 C232.251024 24.6 242.9 16 244.7 9.1 L245.750806 9.4 C244.095888 15.9 235.6 23.3 229.4 28.3 C223.768082 32.9 216.9 36.7 208.4 40.1 C206.163747 41 203.9 42.1 201.7 43.2 C197.680806 45.2 193.5 47.2 189.3 48.1 C184.139353 49.1 178.8 49.2 173.6 49.3 C171.487865 49.4 169.3 49.4 167.2 49.6 C165.606359 49.6 164 49.7 162.5 49.8 C156.371859 50 150.1 50.3 144.2 51.5 C142.416676 51.8 140.6 52 138.8 52.1 C137.006941 52.2 135.2 52.4 133.5 52.7 C131.775794 53.1 129.9 53.5 128.4 54.6 C127.837924 55 127.5 55.5 127.1 56.2 C126.933076 56.6 126.8 56.9 126.8 57.2 C129.256212 56.3 132 56.4 133.5 58.7 C134.069165 59.7 134 60.8 133.3 61.7 C132.493124 62.8 131.2 63.2 130 62.8 C128.654965 62.4 127.3 60.8 126.8 59.7 L126.599712 59.5 C126.446424 59.2 126.3 58.9 126.2 58.7 C124.035482 59.8 121.8 61.9 119.3 64.9 C118.973994 65.4 118.6 65.9 118.2 66.3 C116.503524 68.5 114.9 70.5 113.6 73 L113.550865 73 Z M127.156312 58.2 C127.263465 58.4 127.4 58.7 127.5 58.9 L127.698029 59.2 C128.198076 60.1 129.3 61.5 130.3 61.8 C131.159665 62.1 132 61.6 132.4 61.1 C132.641947 60.8 133.1 60.1 132.6 59.3 C131.326347 57.3 128.8 57.6 127.2 58.2 L127.156312 58.2 Z" sketch:type="MSShapeGroup" class="style1"/><path d="M140.406071 51.9 L139.821194 51 C141.935976 49.6 144 48.1 145.5 47 C146.210188 46.4 146.8 46 147.2 45.7 C148.722329 44.7 150.3 43.8 151.8 43 C152.631924 42.6 153.4 42.2 154.2 41.7 C155.532494 41 157 40.3 158.6 39.6 C162.210206 37.9 166 36.2 168.1 33.3 L168.932565 34 C166.671935 37.1 162.6 38.9 159 40.6 C157.483571 41.3 156 41.9 154.8 42.6 C153.963894 43.1 153.2 43.5 152.3 44 C150.834135 44.8 149.3 45.6 147.9 46.6 C147.437982 46.9 146.8 47.3 146.1 47.9 C144.611824 49 142.5 50.5 140.4 51.9" sketch:type="MSShapeGroup" class="style1"/><path d="M200.185506 56.9 C199.765824 56.9 199.3 56.8 198.9 56.8 C196.664341 56.6 194.2 55.7 192.1 55 C191.314135 54.7 190.5 54.5 189.8 54.2 C188.220094 53.7 186.6 53.4 185 53.1 C183.451788 52.8 181.9 52.4 180.3 52 C179.106141 51.6 177.8 51.3 176.4 50.9 C174.702453 50.5 172.9 50 171.5 49.5 L171.825694 48.5 C173.246959 49 175 49.4 176.7 49.9 C178.042053 50.2 179.4 50.6 180.6 50.9 C182.122794 51.4 183.7 51.7 185.2 52 C186.818176 52.3 188.5 52.7 190.1 53.2 C190.878082 53.4 191.7 53.7 192.5 54 C194.638853 54.7 196.9 55.5 199 55.7 C200.712341 55.9 202.3 55.7 204.1 55.4 C205.404747 55.2 206.8 55 208.2 55 L208.214535 56.1 C206.863218 56.1 205.5 56.3 204.2 56.5 C202.908976 56.7 201.6 56.9 200.2 56.9" sketch:type="MSShapeGroup" class="style1"/><path d="M202.911953 42.7 L202.234806 41.8 C203.458135 40.8 204.6 38.7 205.7 36.9 C206.241135 35.9 206.8 35 207.3 34.2 L207.818665 33.4 C209.092594 31.6 210.2 30.1 211.2 28 C211.9634 26.3 213.1 24.6 214.1 23 C215.966753 20.2 217.9 17.2 218.3 13.9 L219.358441 14.1 C218.929829 17.6 216.9 20.6 215 23.6 C213.975494 25.2 212.9 26.8 212.1 28.5 C211.125524 30.6 210 32.2 208.7 34.1 L208.147565 34.9 C207.678771 35.5 207.2 36.4 206.6 37.4 C205.5372 39.3 204.3 41.5 202.9 42.7" sketch:type="MSShapeGroup" class="style1"/><g><mask sketch:name="Clip 6" class="style2"><use xlink:href="#path-1"/></mask><g/><path d="M235.037 35.6 C233.722888 35.6 232.4 35.1 231 34.6 C229.957653 34.2 228.8 33.8 227.8 33.7 C225.216135 33.5 221.9 34.3 219.6 34.8 L219.374812 33.8 C221.672647 33.2 225.1 32.4 227.9 32.7 C229.0662 32.8 230.3 33.2 231.4 33.6 C232.782324 34.1 234.1 34.5 235.3 34.5 L235.327206 35.5 L235.037 35.6" sketch:type="MSShapeGroup" class="style3"/><path d="M168.724212 31.1 C168.724212 31.1 168.7 31.3 168.7 31.5 C168.541159 32.4 168.2 34 168.3 34.1 C167.289553 33.3 166.5 31.7 165.8 30.5 C165.112265 29.3 164.4 27.4 164.9 26 C165.317641 25 166.8 24.7 167.6 25.6 C168.1185 26.2 168.4 27 168.5 27.8 C168.692959 28.9 168.7 30.1 168.7 31.1 L168.724212 31.1 Z M161.530082 33.2 C160.771082 30.6 158.5 32.4 158.5 34.9 C158.486641 35.9 159.5 39.3 158.8 39.9 C160.276988 38.6 162 36 161.7 33.9 C161.646165 33.6 161.6 33.4 161.5 33.2 L161.530082 33.2 Z M169.969865 32.4 C169.751094 32.6 168.5 34.4 168.3 34.4 C169.681147 34.4 172 34.2 173.1 33.3 C174.119065 32.6 174.3 31 172.8 30.8 L172.679941 30.8 C171.700682 30.8 170.6 31.8 170 32.4 L169.969865 32.4 Z M159.139976 40.1 C160.288894 41.1 162.2 42.2 163.6 42.7 C164.793782 43.2 168.1 43.2 167.6 41.2 C166.866894 38.5 160.7 38.1 159.1 40.1 L159.139976 40.1 Z M158.689041 43.4 C157.860094 42.9 156.7 43 155.8 43.1 C154.306188 43.2 152 43.4 150.7 44.2 C152.535188 45.9 156.3 47.7 158.7 46.2 C159.927253 45.5 159.9 44.1 158.7 43.4 L158.689041 43.4 Z M164.313082 51.3 C163.451394 50.9 162.5 50.7 161.6 50.4 C161.351494 50.3 159.2 49.8 159.1 49.6 C160.227876 52 162.7 55.5 165.1 56.7 C166.834153 57.5 168.3 57 167.9 55 C167.539576 53.1 166 52 164.3 51.3 L164.313082 51.3 Z M151.407106 35.9 C149.671824 35.7 149.4 37.2 149.6 38.6 C149.841482 40.1 150.2 42.9 151.3 44 C152.9385 42.5 155 36.3 151.4 35.9 L151.407106 35.9 Z M145.163959 47.6 C145.065735 47.4 145.5 46.2 145.6 45.9 C145.742882 45.1 145.9 44.2 145.8 43.4 C145.705676 42.3 145.1 39.9 143.5 40.7 C141.243947 41.9 144.5 46.4 145.2 47.6 L145.163959 47.6 Z M153.483194 53 C152.401247 51.1 150.3 50.6 148.3 50.5 C149.280418 52.3 150.1 54.1 151 55.9 C151.474076 56.8 152.3 58 153.4 57.5 C155.276518 56.6 154.2 54.2 153.5 53 L153.483194 53 Z M165.405447 46 C165.709047 44.6 164.7 43.9 163.5 44.1 C161.274106 44.5 160.3 47.3 159.3 48.9 C159.638535 48.4 162 48.5 162.7 48.3 C163.826429 48 165.1 47.2 165.4 46 L165.405447 46 Z M179.107629 41.6 C178.638835 39.7 176.8 40.1 175.9 41.4 C174.230682 43.5 173 46 171.8 48.4 C174.706918 48.9 179.9 44.6 179.1 41.6 L179.107629 41.6 Z M182.593076 52.7 C182.423418 52.5 179.4 50.8 179.5 51.3 C179.704412 52.6 180.3 54 180.7 55.3 C181.095912 56.7 180.6 60.6 182.9 60.2 C184.626006 59.9 184.9 57.4 184.7 56 C184.414676 54.7 183.6 53.6 182.6 52.7 L182.593076 52.7 Z M189.845247 40.1 C188.943376 41.1 188.8 42.6 188.3 43.8 C187.712606 45.2 186.7 46.3 185.9 47.6 C186.002624 47.5 188.1 47 188.6 46.8 C189.514859 46.3 190.4 45.6 191 44.7 C191.708518 43.5 192.2 42.1 191.8 40.8 C191.491235 39.7 190.8 39.1 189.8 40.1 L189.845247 40.1 Z M196.834 50.2 C196.932224 49.9 196.9 49.6 196.8 49.3 C195.884506 47.8 193.9 49.4 193.1 50.1 C192.698194 50.4 189.5 53.1 189.3 52.9 C190.372082 53.4 192.9 53.2 194 52.9 C194.836788 52.6 196.5 51.4 196.8 50.2 L196.834 50.2 Z M201.121606 57.2 C200.7555 57 200.5 56.6 200 56.5 C199.624441 56.3 198.9 56.6 198.5 56.3 C199.576818 56.9 200.7 58.6 201.1 59.6 C201.554682 60.7 201.2 63.3 203 62.8 C204.391259 62.3 204.4 60.2 203.7 59.2 C203.028035 58.2 202.1 57.9 201.1 57.2 L201.121606 57.2 Z M212.408382 50.5 L212.476841 50.3 C213.398059 47.9 210.6 47.8 209.5 49.4 C208.144588 51.3 208 53.7 207.1 55.7 C207.454047 54.9 209.4 54.3 210.1 53.6 C210.979676 52.7 211.9 51.6 212.4 50.5 L212.408382 50.5 Z M206.028318 30.6 C205.7902 29.9 205.2 27.8 204.4 27.8 C201.956506 27.6 203.5 32.8 204 33.7 C204.635329 35.1 205.3 36.4 205.7 37.8 C205.501482 36.9 206.4 35.6 206.5 34.7 C206.668259 33.4 206.5 31.8 206 30.6 L206.028318 30.6 Z M207.878194 55.9 C208.919959 56.3 209.9 56.9 210.8 57.5 C211.845829 58.2 212.4 59.3 213.4 60 C214.576741 60.8 216.2 60.6 216.1 59.1 C216.084324 55.7 210.1 53.5 207.9 55.9 L207.878194 55.9 Z M212.714959 22.4 C212.566135 21.6 211.8 20.1 210.8 19.9 C208.897635 19.5 209.8 21.8 210.3 22.5 C211.321971 24.4 211.5 26.3 211.6 28.3 C212.661382 26.9 213 24.2 212.7 22.4 L212.714959 22.4 Z M218.170829 6.5 C217.172224 5.6 215 5.1 215 6.9 C215.045535 8.1 216 9.3 216.5 10.4 C217.194547 11.9 218.2 13.6 218.3 15.1 C218.1872 13.8 219.4 11.9 219.5 10.5 C219.493871 9.1 219.2 7.5 218.2 6.5 L218.170829 6.5 Z M217.746682 23.9 C215.369971 24 212.9 25.5 212.1 27.8 C213.811788 26.9 215.8 27.2 217.6 26.6 C218.4908 26.3 219.2 25.8 219.6 25.3 C220.078747 24.6 219.7 23.9 217.7 23.9 L217.746682 23.9 Z M218.731894 15.1 C219.733476 13.4 222.3 13.9 223.6 12.7 C225.257806 11 222.6 9.2 220.9 10.5 C219.449224 11.6 218.8 13.2 218.7 15.1 L218.731894 15.1 Z M211.249047 31.6 C210.262347 32 209.1 33 208.6 34 C209.728071 33.8 216.8 33.9 215.1 31.4 C214.802953 30.9 214.2 30.8 213.5 30.9 C212.701565 31 211.8 31.3 211.2 31.6 L211.249047 31.6 Z M209.242906 39.8 C210.421588 39.8 211.5 40.3 212.6 40.8 C213.807324 41.5 214.6 42.6 215.7 43.3 C216.629018 43.8 217.8 43.6 217.8 42.4 C217.730312 39.7 209.8 37.7 209.2 39.8 L209.242906 39.8 Z M197.963571 37.2 C197.612347 37.1 197.3 37.4 197 38.1 C196.499147 39.3 198.7 43.5 197.8 44.1 C199.049982 43.3 199.6 41.3 199.6 39.9 C199.669088 38.9 198.8 37.2 198 37.2 L197.963571 37.2 Z M218.6173 28.2 C216.617112 28.9 218.3 33.3 218.4 34.8 C218.377694 34.5 219.2 33.3 219.3 32.9 C219.474524 32.3 219.7 31.7 219.8 31 C219.984988 30.1 220.2 27.7 218.6 28.2 L218.6173 28.2 Z M230.591641 35.7 C230.459188 35.1 230.3 34.8 229.9 34.3 C229.658518 34 228.8 33.7 228.6 33.4 C229.228418 34.5 228.8 36 228.9 37.2 C228.918865 38.2 229.1 39.8 230.2 38.7 C230.858035 37.9 230.8 36.6 230.6 35.7 L230.591641 35.7 Z M226.522806 20.3 C223.720459 21.9 228.2 26.7 227 29.1 C228.478347 27.7 229.6 25.3 229.3 23.2 C229.064712 21.8 228.4 19.3 226.5 20.3 L226.522806 20.3 Z M241.170018 31.2 C241.364976 30.1 240.5 28.8 239.4 28.8 C238.034306 28.8 237.5 30.7 237 31.6 C236.181453 32.8 235.2 33.9 233.9 34.6 C235.318276 34.3 236.5 35.1 237.9 34.7 C239.367765 34.2 240.9 32.8 241.2 31.2 L241.170018 31.2 Z M229.606429 28.1 C230.852082 28.3 232 28.6 233.3 28.9 C235.791535 29.4 237.3 26.7 233.9 26.5 C232.426635 26.4 230.1 26.3 229.6 28.1 L229.606429 28.1 Z M237.029747 36.4 C236.333253 35.5 235.2 35.5 234.6 34.9 C235.952265 36.3 235.1 38.3 235.3 40.1 C235.605506 42 237.2 40.8 237.7 39.6 C238.102765 38.5 237.7 37.3 237 36.4 L237.029747 36.4 Z M235.470076 11.2 C233.425241 11.4 235 15.1 235.5 16 C236.330276 17.5 236.8 18.8 237.1 20.4 C238.415294 18.5 238.7 16.8 238.2 14.6 C237.842324 13.4 237.1 11 235.5 11.2 L235.470076 11.2 Z M204.147188 44.5 C202.889629 43.9 200.5 43.5 199.3 44.1 C200.5278 44.6 201.7 45.1 202.9 45.9 C203.441765 46.3 204.5 47.3 205.2 47.3 C207.451071 47.4 205 44.8 204.1 44.5 L204.147188 44.5 Z M244.207506 1.8 L243.844376 1.6 C241.818888 0.8 242 3.4 242.5 4.6 C243.560124 6.9 244.6 8.5 244.7 11.2 C244.604865 9.5 245.8 8 245.9 6.3 C245.969576 4.9 245.5 2.7 244.2 1.8 L244.207506 1.8 Z M240.949759 16.9 C242.147788 16.8 243.3 17.4 244.3 17.8 C244.982876 18.1 245.4 18.5 246.1 18.3 C247.938512 17.8 246.3 16 245.2 15.8 C243.725318 15.6 242 15.9 240.9 16.9 L240.949759 16.9 Z M244.7016 10.4 C245.930882 9.8 247.1 9.5 248.5 9.3 C249.142494 9.2 250.4 9.4 251 9.1 C253.168171 8.2 250.1 6.7 249.1 6.8 C246.890794 6.9 245.6 8.5 244.7 10.4 L244.7016 10.4 Z M248.722812 0.5 C246.954788 0.3 247.6 5.6 247 6.7 C247.414653 5.9 251.7 0.9 248.7 0.5 L248.722812 0.5 Z" sketch:type="MSShapeGroup" class="style3"/></g><path d="M138.196041 73 C136.892347 70.5 135.2 68.5 133.5 66.3 C133.139018 65.9 132.8 65.4 132.4 64.9 C129.955682 61.9 127.7 59.8 125.6 58.7 C125.450794 58.9 125.3 59.2 125.2 59.5 L124.995394 59.7 C124.422424 60.8 123.1 62.4 121.8 62.8 C120.594682 63.2 119.3 62.8 118.5 61.7 C117.753641 60.8 117.7 59.7 118.3 58.7 C119.700253 56.4 122.5 56.3 124.9 57.2 C124.909076 56.9 124.8 56.6 124.6 56.2 C124.266159 55.5 123.9 55 123.3 54.6 C121.898376 53.5 120 53.1 118.3 52.7 C116.551147 52.4 114.7 52.2 113 52.1 C111.194988 52 109.3 51.8 107.5 51.5 C101.676235 50.3 95.4 50 89.3 49.8 C87.7165882 49.7 86.1 49.6 84.6 49.6 C82.4184706 49.4 80.3 49.4 78.1 49.3 C72.9488294 49.2 67.6 49.1 62.5 48.1 C58.2167882 47.2 54.1 45.2 50.1 43.2 C47.8616471 42.1 45.6 41 43.3 40.1 C34.8470294 36.7 28 32.9 22.3 28.3 C16.1146118 23.3 7.7 15.9 6 9.4 L7.04679412 9.1 C8.79993529 16 19.5 24.6 23 27.5 C28.5741176 32 35.4 35.8 43.7 39.1 C46.0281412 40 48.3 41.2 50.5 42.3 C54.4828059 44.2 58.6 46.2 62.7 47 C67.7281 48 72.8 48.1 78.1 48.3 C80.2962471 48.3 82.5 48.4 84.6 48.5 C86.1971 48.6 87.8 48.6 89.3 48.7 C95.4658294 48.9 101.8 49.2 107.7 50.4 C109.480541 50.7 111.3 50.9 113.1 51 C114.856047 51.2 116.7 51.3 118.5 51.7 C120.300012 52 122.4 52.5 123.9 53.7 C124.764718 54.3 125.2 55 125.6 55.6 C125.971676 56.4 126.1 57.1 125.9 57.6 C128.259094 58.8 130.7 61 133.3 64.3 C133.619718 64.7 134 65.2 134.3 65.6 C136.121441 67.8 137.8 69.9 139.2 72.5 L138.196041 73 L138.196041 73 Z M124.593571 58.2 C122.920794 57.6 120.4 57.3 119.2 59.3 C118.680812 60.1 119.1 60.8 119.3 61.1 C119.735971 61.6 120.6 62.1 121.4 61.8 C122.410329 61.5 123.6 60.1 124.1 59.2 L124.211094 58.9 C124.359918 58.7 124.5 58.4 124.6 58.2 L124.593571 58.2 Z" sketch:type="MSShapeGroup" class="style1"/><path d="M111.3453 51.9 L111.930176 51 C109.815394 49.6 107.8 48.1 106.3 47 C105.541182 46.4 104.9 46 104.5 45.7 C103.029041 44.7 101.5 43.8 99.9 43 C99.1194471 42.6 98.3 42.2 97.5 41.7 C96.2188765 41 94.7 40.3 93.2 39.6 C89.5396765 37.9 85.8 36.2 83.7 33.3 L82.8188059 34 C85.0764588 37.1 89.1 38.9 92.7 40.6 C94.2678 41.3 95.7 41.9 97 42.6 C97.7845 43.1 98.6 43.5 99.4 44 C100.915747 44.8 102.5 45.6 103.9 46.6 C104.310412 46.9 104.9 47.3 105.6 47.9 C107.138059 49 109.2 50.5 111.3 51.9" sketch:type="MSShapeGroup" class="style1"/><path d="M51.5643765 56.9 C51.9855471 56.9 52.4 56.8 52.8 56.8 C55.0840529 56.6 57.5 55.7 59.6 55 C60.4372353 54.7 61.2 54.5 61.9 54.2 C63.5297882 53.7 65.2 53.4 66.8 53.1 C68.2980941 52.8 69.9 52.4 71.5 52 C72.6452294 51.6 74 51.3 75.3 50.9 C77.0518941 50.5 78.8 50 80.3 49.5 L79.9241882 48.5 C78.5014353 49 76.8 49.4 75.1 49.9 C73.7093176 50.2 72.3 50.6 71.1 50.9 C69.6256 51.4 68.1 51.7 66.5 52 C64.9317059 52.3 63.3 52.7 61.6 53.2 C60.8718 53.4 60.1 53.7 59.3 54 C57.1110294 54.7 54.9 55.5 52.7 55.7 C51.0390294 55.9 49.4 55.7 47.7 55.4 C46.3466235 55.2 45 55 43.5 55 L43.5323706 56.1 C44.8881529 56.1 46.2 56.3 47.5 56.5 C48.8423941 56.7 50.2 56.9 51.6 56.9" sketch:type="MSShapeGroup" class="style1"/><path d="M48.8379294 42.7 L49.5150765 41.8 C48.2902588 40.8 47.1 38.7 46.1 36.9 C45.5102353 35.9 45 35 44.5 34.2 L43.9312176 33.4 C42.6602647 31.6 41.6 30.1 40.6 28 C39.7849941 26.3 38.7 24.6 37.6 23 C35.7846176 20.2 33.9 17.2 33.5 13.9 L32.3929294 14.1 C32.8200529 17.6 34.8 20.6 36.7 23.6 C37.7729 25.2 38.8 26.8 39.6 28.5 C40.6243588 30.6 41.7 32.2 43 34.1 L43.5993412 34.9 C44.0726 35.5 44.6 36.4 45.1 37.4 C46.2141706 39.3 47.5 41.5 48.8 42.7" sketch:type="MSShapeGroup" class="style1"/><g><mask sketch:name="Clip 14" class="style2"><use xlink:href="#path-3"/></mask><g/><path d="M16.7158588 35.6 C18.0269941 35.6 19.4 35.1 20.7 34.6 C21.7922294 34.2 22.9 33.8 23.9 33.7 C26.5322588 33.5 29.9 34.3 32.1 34.8 L32.3750706 33.8 C30.0787235 33.2 26.6 32.4 23.9 32.7 C22.6881471 32.8 21.5 33.2 20.3 33.6 C18.9690471 34.1 17.7 34.5 16.5 34.5 L16.4211882 35.5 L16.7158588 35.6" sketch:type="MSShapeGroup" class="style4"/><path d="M83.2340235 27.8 C83.3754059 27 83.6 26.2 84.1 25.6 C84.9707941 24.7 86.4 25 86.8 26 C87.3519706 27.4 86.6 29.3 85.9 30.5 C85.2327235 31.7 84.5 33.3 83.4 34.1 C83.5093471 34 83.2 32.4 83.1 31.5 C83.0450176 31.3 83 31.1 83 31.1 C83.0792471 30.1 83.1 28.9 83.2 27.8 L83.2340235 27.8 Z M90.0605588 33.9 C89.7584471 36 91.5 38.6 93 39.9 C92.2438 39.3 93.3 35.9 93.3 34.9 C93.2915176 32.4 91 30.6 90.2 33.2 C90.1558059 33.4 90.1 33.6 90.1 33.9 L90.0605588 33.9 Z M79.0684529 30.8 L78.9419529 30.8 C77.4879471 31 77.6 32.6 78.6 33.3 C79.7813176 34.2 82.1 34.4 83.5 34.4 C83.2965294 34.4 82 32.6 81.8 32.4 C81.1534706 31.8 80 30.8 79.1 30.8 L79.0684529 30.8 Z M84.1716118 41.2 C83.6462647 43.2 87 43.2 88.1 42.7 C89.5560471 42.2 91.5 41.1 92.6 40.1 C91.0323765 38.1 84.9 38.5 84.2 41.2 L84.1716118 41.2 Z M93.0429824 46.2 C95.4777353 47.7 99.2 45.9 101.1 44.2 C99.7712941 43.4 97.4 43.2 96 43.1 C95.0535882 43 93.9 42.9 93.1 43.4 C91.8717412 44.1 91.8 45.5 93 46.2 L93.0429824 46.2 Z M83.8278294 55 C83.4200529 57 84.9 57.5 86.6 56.7 C89.0693941 55.5 91.5 52 92.6 49.6 C92.5340059 49.8 90.4 50.3 90.1 50.4 C89.2078 50.7 88.3 50.9 87.4 51.3 C85.7729529 52 84.2 53.1 83.8 55 L83.8278294 55 Z M100.490112 44 C101.595871 42.9 101.9 40.1 102.1 38.6 C102.350406 37.2 102.1 35.7 100.3 35.9 C96.7025529 36.3 98.8 42.5 100.5 44 L100.490112 44 Z M108.222982 40.7 C106.642476 39.9 106 42.3 106 43.4 C105.883476 44.2 106 45.1 106.2 45.9 C106.200471 46.2 106.7 47.4 106.6 47.6 C107.233306 46.4 110.5 41.9 108.2 40.7 L108.222982 40.7 Z M98.3768176 57.5 C99.4989471 58 100.3 56.8 100.7 55.9 C101.624147 54.1 102.5 52.3 103.4 50.5 C101.408353 50.6 99.3 51.1 98.3 53 C97.5076882 54.2 96.5 56.6 98.4 57.5 L98.3768176 57.5 Z M89.0307 48.3 C89.7167765 48.5 92.1 48.4 92.5 48.9 C91.4222941 47.3 90.5 44.5 88.3 44.1 C87.0349765 43.9 86 44.6 86.3 46 C86.6227353 47.2 87.9 48 89 48.3 L89.0307 48.3 Z M79.9465118 48.4 C78.7767588 46 77.5 43.5 75.9 41.4 C74.9698529 40.1 73.1 39.7 72.6 41.6 C71.8579529 44.6 77 48.9 79.9 48.4 L79.9465118 48.4 Z M67.0956 56 C66.8515294 57.4 67.1 59.9 68.8 60.2 C71.1376471 60.6 70.7 56.7 71.1 55.3 C71.4844059 54 72 52.6 72.3 51.3 C72.3758588 50.8 69.3 52.5 69.2 52.7 C68.1477824 53.6 67.3 54.7 67.1 56 L67.0956 56 Z M59.9431412 40.8 C59.5562 42.1 60 43.5 60.8 44.7 C61.3272 45.6 62.2 46.3 63.2 46.8 C63.6205706 47 65.7 47.5 65.8 47.6 C65.0671353 46.3 64 45.2 63.4 43.8 C62.9330059 42.6 62.8 41.1 61.9 40.1 C60.9685353 39.1 60.3 39.7 59.9 40.8 L59.9431412 40.8 Z M57.7494824 52.9 C58.8507765 53.2 61.4 53.4 62.5 52.9 C62.2082353 53.1 59.1 50.4 58.7 50.1 C57.8298471 49.4 55.9 47.8 55 49.3 C54.8295647 49.6 54.8 49.9 54.9 50.2 C55.2566882 51.4 56.9 52.6 57.7 52.9 L57.7494824 52.9 Z M48.0238647 59.2 C47.3363 60.2 47.4 62.3 48.8 62.8 C50.5925588 63.3 50.2 60.7 50.6 59.6 C51.0940941 58.6 52.2 56.9 53.2 56.3 C52.8457471 56.6 52.1 56.3 51.7 56.5 C51.2964941 56.6 51 57 50.6 57.2 C49.6311588 57.9 48.7 58.2 48 59.2 L48.0238647 59.2 Z M41.6616588 53.6 C42.3477353 54.3 44.3 54.9 44.6 55.7 C43.7466765 53.7 43.6 51.3 42.3 49.4 C41.1005941 47.8 38.4 47.9 39.3 50.3 L39.3415 50.5 C39.8475 51.6 40.8 52.7 41.7 53.6 L41.6616588 53.6 Z M45.2691412 34.7 C45.3941529 35.6 46.2 36.9 46 37.8 C46.4031765 36.4 47.1 35.1 47.8 33.7 C48.2604941 32.8 49.8 27.6 47.4 27.8 C46.5103294 27.8 46 29.9 45.7 30.6 C45.2691412 31.8 45.1 33.4 45.3 34.7 L45.2691412 34.7 Z M35.6104941 59.1 C35.5866824 60.6 37.2 60.8 38.3 60 C39.3548941 59.3 39.9 58.2 40.9 57.5 C41.8700118 56.9 42.8 56.3 43.9 55.9 C41.6542176 53.5 35.7 55.7 35.6 59.1 L35.6104941 59.1 Z M40.1272882 28.3 C40.2627176 26.3 40.4 24.4 41.5 22.5 C41.9057294 21.8 42.9 19.5 40.9 19.9 C39.9546529 20.1 39.2 21.6 39 22.4 C38.7313235 24.2 39.1 26.9 40.1 28.3 L40.1272882 28.3 Z M32.2857765 10.5 C32.3200059 11.9 33.6 13.8 33.4 15.1 C33.5894706 13.6 34.6 11.9 35.3 10.4 C35.7667588 9.3 36.7 8.1 36.7 6.9 C36.7921529 5.1 34.6 5.6 33.6 6.5 C32.5402647 7.5 32.3 9.1 32.3 10.5 L32.2857765 10.5 Z M32.1801118 25.3 C32.5209176 25.8 33.3 26.3 34.1 26.6 C35.9527882 27.2 37.9 26.9 39.7 27.8 C38.8131765 25.5 36.4 24 34 23.9 C32.0149176 23.9 31.7 24.6 32.2 25.3 L32.1801118 25.3 Z M30.8079588 10.5 C29.1470882 9.2 26.5 11 28.2 12.7 C29.4551529 13.9 32 13.4 33 15.1 C32.9748294 13.2 32.3 11.6 30.8 10.5 L30.8079588 10.5 Z M38.2015118 30.9 C37.5511529 30.8 36.9 30.9 36.6 31.4 C34.9928765 33.9 42 33.8 43.2 34 C42.6811 33 41.5 32 40.5 31.6 C39.9814412 31.3 39 31 38.2 30.9 L38.2015118 30.9 Z M33.9674824 42.4 C33.9436706 43.6 35.1 43.8 36.1 43.3 C37.1478412 42.6 37.9 41.5 39.2 40.8 C40.2463471 40.3 41.3 39.8 42.5 39.8 C41.9548412 37.7 34 39.7 34 42.4 L33.9674824 42.4 Z M52.1075824 39.9 C52.1433 41.3 52.7 43.3 53.9 44.1 C53.0734471 43.5 55.3 39.3 54.8 38.1 C54.4828059 37.4 54.1 37.1 53.8 37.2 C52.9439706 37.2 52.1 38.9 52.1 39.9 L52.1075824 39.9 Z M31.9509235 31 C32.0804 31.7 32.3 32.3 32.4 32.9 C32.5611 33.3 33.4 34.5 33.4 34.8 C33.4525529 33.3 35.1 28.9 33.1 28.2 C31.5416588 27.7 31.8 30.1 32 31 L31.9509235 31 Z M21.5987588 38.7 C22.6539176 39.8 22.8 38.2 22.9 37.2 C22.9634706 36 22.5 34.5 23.1 33.4 C22.9590059 33.7 22.1 34 21.8 34.3 C21.4320765 34.8 21.3 35.1 21.2 35.7 C20.9573294 36.6 20.9 37.9 21.6 38.7 L21.5987588 38.7 Z M22.4857471 23.2 C22.1747059 25.3 23.3 27.7 24.8 29.1 C23.5304882 26.7 28 21.9 25.2 20.3 C23.3563647 19.3 22.7 21.8 22.5 23.2 L22.4857471 23.2 Z M13.8926765 34.7 C15.2812 35.1 16.4 34.3 17.8 34.6 C16.5253647 33.9 15.6 32.8 14.8 31.6 C14.2171118 30.7 13.7 28.8 12.4 28.8 C11.2986824 28.8 10.4 30.1 10.6 31.2 C10.8641176 32.8 12.4 34.2 13.9 34.7 L13.8926765 34.7 Z M17.8067353 26.5 C14.4790412 26.7 16 29.4 18.5 28.9 C19.7146529 28.6 20.9 28.3 22.1 28.1 C21.6047118 26.3 19.3 26.4 17.8 26.5 L17.8067353 26.5 Z M14.0697765 39.6 C14.5043412 40.8 16.1 42 16.4 40.1 C16.6786529 38.3 15.8 36.3 17.2 34.9 C16.5744765 35.5 15.4 35.5 14.7 36.4 C14.0087588 37.3 13.6 38.5 14.1 39.6 L14.0697765 39.6 Z M13.5965176 14.6 C13.0533118 16.8 13.3 18.5 14.7 20.4 C14.9329529 18.8 15.4 17.5 16.3 16 C16.7753882 15.1 18.3 11.4 16.3 11.2 C14.6040529 11 13.9 13.4 13.6 14.6 L13.5965176 14.6 Z M46.5773 47.3 C47.2708176 47.3 48.3 46.3 48.9 45.9 C50.0374471 45.1 51.2 44.6 52.5 44.1 C51.1997588 43.5 48.9 43.9 47.6 44.5 C46.7573765 44.8 44.3 47.4 46.6 47.3 L46.5773 47.3 Z M5.85322941 6.3 C5.94103529 8 7.1 9.5 7.1 11.2 C7.17924706 8.5 8.2 6.9 9.2 4.6 C9.69882941 3.4 9.9 0.8 7.9 1.6 L7.54088824 1.8 C6.24612353 2.7 5.8 4.9 5.9 6.3 L5.85322941 6.3 Z M6.54674706 15.8 C5.43205882 16 3.8 17.8 5.6 18.3 C6.30416471 18.5 6.8 18.1 7.4 17.8 C8.46805882 17.4 9.6 16.8 10.8 16.9 C9.70775882 15.9 8 15.6 6.5 15.8 L6.54674706 15.8 Z M2.68626471 6.8 C1.59985294 6.7 -1.4 8.2 0.8 9.1 C1.37810588 9.4 2.6 9.2 3.3 9.3 C4.63287647 9.5 5.8 9.8 7 10.4 C6.15831765 8.5 4.9 6.9 2.7 6.8 L2.68626471 6.8 Z M4.7311 6.7 C4.16408235 5.6 4.8 0.3 3 0.5 C0.0520882353 0.9 4.3 5.9 4.7 6.7 L4.7311 6.7 Z" sketch:type="MSShapeGroup" class="style4"/></g><path d="M163.351682 25.2 C163.778806 25.6 164.9 25.7 165.5 25.9 C165.524506 27.6 163.1 28.2 161.8 28.6 C160.833588 28.8 159.3 28.6 158.5 29.3 C157.132347 30.4 159 31.1 160.1 31.2 C162.946882 31.4 158.5 34.1 157.5 34.3 C156.362929 34.5 155.1 34.2 154.2 35.2 C153.178106 36.2 154 36.7 154.9 37.4 C157.950876 39.4 150.8 41.3 149.8 41.4 C149.027418 41.5 148 41.3 147.7 42.3 C147.266835 44.3 151.5 42.5 151.9 43.6 C152.225635 44.8 149.8 46.1 149 46.5 C148.454447 46.9 147.9 47.5 147.3 47.7 C146.527182 48 145.5 47.8 144.6 47.9 C142.706882 48.1 140.5 48.2 139.1 49.7 C138.393976 50.4 138 51.4 137.2 51.9 C136.419088 52.4 135.5 52.5 134.8 53.1 C134.222453 53.5 133.9 54.2 133.5 54.8 C132.641947 55.8 131.6 56.6 131.2 54.8 C130.540559 52.1 132.7 49.6 133.5 47.2 C134.927876 42.9 135 39.1 135.8 34.7 C136.078282 32.8 136.3 30.8 137.1 29 C137.381976 28.3 138.4 26.6 139.1 27.2 C139.272035 27.3 139.4 27.5 139.5 27.7 C139.950671 28.7 139.4 29.9 139.8 30.8 C140.528106 32.2 141.7 31.4 142.1 30.4 C143.099776 28.4 142.9 25.9 143.3 23.8 C143.549224 22.2 144.7 17.8 147 18.7 C147.388871 19.9 146.5 22.7 148 23.2 C149.752188 23.8 150.1 19.8 150.5 18.7 C150.932359 17.6 153.3 14.6 154 16.4 C154.315118 17.2 153 21.3 154.7 21.1 C155.815259 21 156.3 18.3 156.7 17.5 C157.153182 16.6 158.6 13.4 159.8 13.9 C161.283035 14.5 159.5 16.9 160.9 17.3 C161.860471 17.6 163.9 15.4 164.7 14.9 C165.459024 14.4 168.7 12.5 167.6 14.8 C167.265741 15.6 164.1 18.1 165.2 19 C165.834059 19.5 167.6 17.7 167.3 19.6 C167.121382 20.8 162.7 24.6 163.4 25.2" sketch:type="MSShapeGroup" class="style1"/><path d="M143.799247 37.2 C145.168424 35.1 146.6 33.1 148.2 31.2 C149.557229 29.6 150.7 27.9 152.3 26.7 C153.514447 25.8 154.9 25.3 156 24.2 C152.899806 26.5 150.6 28.5 148.5 31.7 C146.446818 34.8 144.7 37.9 142.2 40.9 C140.656094 42.7 139.4 44.5 138.1 46.5 C137.462341 47.5 135.3 50.5 134 50.5 C133.987312 49.3 136.1 47.9 136.9 46.9 C137.6067 45.8 138.3 44.7 139 43.7 C140.4403 41.4 142.3 39.5 143.8 37.2" sketch:type="MSShapeGroup" class="style5"/><path d="M60.6574941 32.4 C60.3911 32.9 59.4 33.4 58.9 33.7 C59.4118412 35.3 61.9 35.1 63.2 35 C64.1771706 35 65.5 34.3 66.5 34.6 C68.1224824 35.2 66.6 36.5 65.6 36.9 C63.0431353 38 68.1 39.1 69 39 C70.1583882 38.8 71.2 38.1 72.4 38.7 C73.6483 39.3 73.1 40.1 72.4 41 C70.2774471 43.9 77.5 43.3 78.5 43.1 C79.2276941 42.9 80.1 42.4 80.7 43.2 C81.7606706 44.9 77.2 44.6 77.3 45.8 C77.3316824 47.1 80 47.4 80.9 47.6 C81.4913 47.7 82.2 48.1 82.8 48.1 C83.6566824 48.2 84.6 47.6 85.4 47.4 C87.2195176 47 89.3 46.4 91.1 47.3 C91.9833588 47.8 92.7 48.5 93.6 48.7 C94.4359706 48.9 95.4 48.8 96.2 49.1 C96.8573294 49.3 97.4 49.8 98 50.2 C99.0509882 50.9 100.3 51.3 100.1 49.5 C99.8025471 46.8 97 45.2 95.5 43.2 C92.7587294 39.6 91.4 36.1 89.4 32.3 C88.4488 30.7 87.6 28.9 86.3 27.5 C85.7893235 26.9 84.3 25.7 83.8 26.4 C83.7072824 26.6 83.6 26.8 83.6 27 C83.5153 28.1 84.4 29 84.3 30 C84.1344059 31.6 82.8 31.2 82 30.3 C80.4897176 28.8 79.9 26.5 78.9 24.6 C78.0758 23.2 75.7 19.5 73.7 21.1 C73.7941471 22.4 75.5 24.6 74.3 25.6 C72.8416765 26.7 71.3 23.1 70.5 22.2 C69.7595412 21.4 66.6 19.3 66.5 21.2 C66.4690529 22 69 25.4 67.4 25.8 C66.2979059 26 64.9 23.7 64.3 23.1 C63.6488471 22.4 61.3 20 60.3 20.8 C59.1365176 21.8 61.5 23.4 60.4 24.3 C59.6053118 24.9 57 23.5 56.1 23.3 C55.2358529 23.1 51.6 22.3 53.4 24.2 C53.9232294 24.7 57.7 26.1 57 27.3 C56.5291294 28 54.3 26.9 55.2 28.5 C55.7284588 29.5 61.1 31.6 60.7 32.4" sketch:type="MSShapeGroup" class="style1"/><path d="M82.6997471 37.2 C80.7576 35.8 78.7 34.3 76.6 33.1 C74.9013941 32.1 73.3 30.9 71.4 30.2 C69.9917059 29.8 68.5 29.7 67.2 29.1 C70.7789824 30.2 73.6 31.4 76.5 33.6 C79.4762294 35.9 82.1 38.2 85.4 40.1 C87.3862 41.3 89.1 42.6 90.9 44 C91.8970412 44.7 94.8 46.8 96.1 46.4 C95.7143647 45.3 93.3 44.7 92.2 44 C91.2273353 43.2 90.2 42.4 89.2 41.7 C87.1555235 40 84.8 38.9 82.7 37.2" sketch:type="MSShapeGroup" class="style5"/><path d="M164.388982 45.3 C165.505159 45.5 167.3 46 168.6 47.3 L169.179612 46.7 C168.124453 45.6 166.8 45 165.6 44.7 C167.794065 43.7 169.8 42.5 171.6 41.3 C174.744124 40.8 178.7 43.6 178.8 43.6 L179.266871 42.9 C179.109118 42.8 176 40.6 172.9 40.4 C174.830441 39 176.6 37.6 178.1 36.2 C183.215159 34.1 186.5 35 186.6 35 L186.788412 34.2 C186.654471 34.1 183.9 33.4 179.6 34.7 C183.884865 30.5 186.2 26.8 186.3 26.7 L185.105218 26 C185.091824 26 184 27.8 181.8 30.3 C181.914441 29.2 181.8 27.8 181 26.7 L180.265476 27.2 C181.289382 28.6 181 30.5 180.8 31.5 C179.060006 33.4 176.9 35.5 174.2 37.7 C174.498565 36.7 174.6 35.5 174 34.2 L173.235053 34.6 C174.065488 36.3 173.2 38 172.8 38.7 C170.885129 40.2 168.8 41.6 166.4 42.8 C167.026135 41.6 167.5 40 166.6 38.2 L165.8415 38.5 C166.971071 40.8 165.5 42.8 165 43.5 C163.329359 44.3 161.6 44.9 159.8 45.5 C160.1743 44.9 160.4 44 160.3 43.1 L159.445065 43.2 C159.643 44.3 159 45.3 158.6 45.9 C156.340606 46.5 154 47 151.5 47.2 L151.561882 48.6 C156.273635 48.2 160.6 47 164.4 45.3" sketch:type="MSShapeGroup" class="style6"/><path d="M195.409759 36 C194.696894 38.1 192.1 39 190.1 38.8 C187.821247 38.6 185.3 37.5 185.3 34.9 C185.230229 32.7 187.4 31 189.4 30.6 C191.096853 30.3 192.8 31 194.1 32 C195.293676 33 195.9 34.5 195.4 36 L195.409759 36 Z M177.080653 42.9 C175.650459 46.4 181.9 47.7 184.1 46.8 C185.829988 46.1 185.8 44.6 184.7 43.2 C182.923465 40.8 178.5 39.3 177.1 42.9 L177.080653 42.9 Z M187.001229 19.1 C186.376171 19.5 185.8 20.1 185.3 20.8 C183.231529 23.4 183.7 28.8 188.1 27.4 C190.0283 26.8 191.8 25.2 192.6 23.4 C193.448265 21.4 193.1 18.7 190.7 18.4 C189.200841 18.1 188 18.4 187 19.1 L187.001229 19.1 Z M180.915835 21.3 C180.307147 20.5 179.4 20 178.3 19.9 C174.785794 19.9 176.3 25 177.9 26.4 C179.074888 27.6 181.7 28.2 182 25.9 C182.2106 24.4 181.9 22.5 180.9 21.3 L180.915835 21.3 Z M176.098418 33 C176.463035 31.8 176.5 30.3 175.9 29.1 C175.220359 27.7 173.8 26.9 172.2 27.3 C170.661894 27.7 169.6 28.8 169.4 30.3 C169.209376 31.4 169.2 32.5 169.5 33.5 C169.709424 34 170 34.6 170.4 34.9 C172.287047 36.8 175.4 35.3 176.1 33 L176.098418 33 Z M164.255041 34.2 C160.647559 35.2 166 41.5 167.6 38.5 C168.5739 36.5 166.4 33.5 164.3 34.2 L164.255041 34.2 Z M170.434194 46 L170.225841 46 C168.977212 45.9 167.9 46.7 167.8 48 C167.633335 50.6 171.5 53.1 173.6 51.2 C176.181759 48.8 172.8 46.3 170.4 46 L170.434194 46 Z M160.128165 35.9 C157.424041 35.6 156.2 38 156.8 40.3 C157.203782 42.1 159.3 45.1 161.2 42.8 C162.315871 41.5 163.2 39.2 162.4 37.5 C161.867912 36.5 161 36 160.1 35.9 L160.128165 35.9 Z" sketch:type="MSShapeGroup" class="style7"/><path d="M151.686894 22.8 C150.023047 21.7 149.5 23.4 149.9 24.8 C147.558529 26.5 145.3 26.6 144.4 26.6 C145.361894 25 146.2 23.1 146.6 20.9 C146.867988 20.8 147.1 20.6 147.2 20.3 C147.421612 19.9 147.4 19.3 147 18.8 C145.925935 17.3 143.9 18.7 144.8 20.2 C145.059782 20.7 145.4 20.9 145.7 21 C144.620753 26.5 140.8 30 139.2 31.2 C138.804729 27.1 138.9 22.8 139.9 19.4 L139.992341 19.3 C141.101076 19.1 143.3 18.2 145.4 15.4 C145.891706 15.5 146.4 15.4 147 14.9 C148.013929 13.7 147.1 12.1 145.7 12 C145.497324 12 145.2 12.1 145 12.2 C143.637029 12.7 143.9 14.2 144.7 15 C143.049176 17.2 141.3 18.1 140.2 18.4 C140.496853 17.7 140.8 16.9 141.2 16.3 C141.435929 15.9 141.3 15.4 140.9 15.2 C140.547453 15 140 15.1 139.8 15.5 C138.783894 17.2 138.1 19.2 137.8 21.4 C135.438341 19.1 134.2 13.2 133.9 11.9 C134.825188 11.2 135 9.5 133.3 9.2 C131.644829 9 130.7 11 132.2 12 C132.509494 12.2 132.9 12.3 133.2 12.3 C133.525959 14.1 134.9 20.2 137.6 22.4 C137.335841 24.4 137.3 26.6 137.4 28.9 C135.030565 27.1 133.3 23.1 132.7 21.8 L132.8503 21.5 C133.403924 19.7 131.6 19 130.3 20.1 C128.394524 21.5 130.7 22.9 132.1 22.3 C132.795235 24.1 134.8 28.3 137.4 29.8 C137.575447 32.5 137.9 35.1 138.3 37.4 C134.148041 35.8 132.2 31.4 131.7 30.3 C132.388947 29.7 132.5 28.5 131.6 27.9 C129.552371 26.6 128.1 30 130.1 30.7 C130.451265 30.8 130.7 30.8 131 30.7 C131.579347 32.1 133.8 36.8 138.5 38.4 C139.438718 43.3 140.6 46.9 140.7 47.3 C140.810871 47.7 141.2 47.9 141.6 47.9 L141.7053 47.8 C142.1354 47.7 142.4 47.2 142.2 46.8 C142.212788 46.7 141.5 44.5 140.8 41.2 C141.441882 40.8 142.6 39.9 143.8 38.1 C145.425888 39 146.8 35.9 145.1 35.3 C143.922771 35 142.9 36.4 143.3 37.4 C142.247018 39 141.2 39.9 140.6 40.4 C140.0861 38 139.6 35.2 139.3 32.2 C140.162 31.6 142.2 30 143.9 27.4 C144.082012 27.4 145.2 27.5 146.7 27.2 C147.705865 26.9 148.9 26.5 150.2 25.6 C150.532024 26.1 151.1 26.4 151.8 26.2 C152.681035 25.8 152.4 23.2 151.7 22.8" sketch:type="MSShapeGroup" class="style8"/><path d="M148.585412 43.6 L148.577971 43.6 C145.531553 44.7 142.9 47.2 141.5 50.5 C139.996806 53.7 139.8 57.3 141 60.3 C143.637029 66.8 150.1 68.4 155.2 66.6 C157.4925 65.8 159.5 64.3 161 62.3 C163.512412 59 163.9 54.3 162 50 C160.266571 46 157 43.5 153.2 43.1 C151.616947 42.9 150.1 43.1 148.6 43.6" sketch:type="MSShapeGroup" class="style9"/><path d="M136.118465 63.2 C135.610976 62.3 135.4 61.1 135.4 60 C135.396671 59.6 136.4 55.8 137.1 56.2 C134.869835 55.1 135.1 50.4 136.6 48.9 C136.8983 48.6 139.1 47.1 139.5 47.7 C137.256965 44.5 141.8 39.6 145.1 41.7 C145.818782 35.8 154.5 37 156.3 41.4 C158.756012 40.5 162.6 40.2 164.6 42.2 C166.130218 43.7 166.6 46.7 165.2 48.5 C166.793971 49.3 168.2 50.3 168.9 52.1 C169.142406 52.9 169.2 53.8 169 54.6 C168.959353 54.8 168.1 56.9 168 56.7 C169.715376 58.4 169.5 61.6 168.2 63.4 C166.963629 65.1 164.6 66.9 162.4 65.9 C163.182024 66.3 161 69.5 160.4 70 C159.266476 71.1 156.6 71.4 155.1 70.9 C154.460965 70.7 152.5 69.4 152.9 68.5 C151.753865 70.8 149.8 71.9 147.1 71.5 C143.635541 70.8 142.8 68.1 142.2 65.2 C141.071312 65.8 138.9 65.4 137.8 64.9 C137.048612 64.6 136.5 64 136.1 63.2 L136.118465 63.2 Z M143.1474 57.7 C140.641212 59.4 144.2 62.6 145.4 60.9 C143.7546 63.3 148.2 64 148 62.2 C147.4484 64.1 151.1 65 151.1 63.5 C151.477053 65.8 154.5 65 154.9 63.2 C155.4179 64 156.3 63.9 157.1 63.4 C158.245547 62.8 158.2 62.1 158.6 61 C159.724853 63.2 161.7 60.4 161 58.8 C163.067429 58.5 162.2 55.9 161 55 C162.354565 54 161.6 51.3 159.8 51.3 C160.940741 49.8 158.9 46.6 157.1 47.8 C157.508871 45.7 153.8 44.5 153.9 46.9 C153.044165 46.4 153.3 45.6 152.2 45.8 C151.535094 46 151 46.7 151 47.1 C150.390641 45 147.9 45.8 147.9 47.8 L147.958865 47.8 C147.128429 46.3 144.1 47.9 145.3 49.3 C143.907888 48.5 143.2 50.6 144 51.6 C142.477694 51.2 140.6 53.3 142.4 54.2 C140.461135 54.7 141.6 57.5 143.1 57.7 L143.1474 57.7 Z" sketch:type="MSShapeGroup" class="style10"/><path d="M149.832553 48 C150.728471 47.7 151.7 47.6 152.6 47.7 C154.897018 47.9 156.9 49.5 158 52 C159.119141 54.6 158.9 57.6 157.4 59.6 C156.473059 60.8 155.2 61.8 153.8 62.3 C150.660012 63.4 146.7 62.4 145.1 58.4 C144.382635 56.6 144.5 54.3 145.4 52.3 C146.332224 50.3 147.9 48.7 149.8 48 L149.832553 48 L149.832553 48 Z M153.344788 61.1 C154.571094 60.7 155.6 59.9 156.4 58.8 C157.668112 57.2 157.8 54.7 156.8 52.5 C155.959618 50.4 154.3 49.1 152.5 48.9 C151.727076 48.8 151 48.9 150.2 49.2 L150.232888 49.2 C148.659824 49.7 147.3 51.1 146.5 52.8 C145.730976 54.5 145.6 56.4 146.3 58 C147.5496 61.2 150.8 62 153.3 61.1 L153.344788 61.1 Z" sketch:type="MSShapeGroup" class="style5"/><g sketch:type="MSShapeGroup"><path d="M149.097365 53.4 C150.095971 51.4 152.3 50.6 154.1 52 C156.450735 53.9 155.8 57.1 153.5 58.7 C152.042582 59.6 150.3 59.5 149.1 58.2 C147.854688 56.8 148.3 54.9 149.1 53.4" class="style11"/><path d="M107.608341 71.3 C107.100853 71.2 106.5 71.2 105.9 71.2 C106.045694 74 102.3 75.3 100.1 75.7 C97.0939588 76.4 94.5 75.9 91.7 74.6 C89.5203294 73.6 87.7 72.4 85.7 70.8 C84.1150588 69.5 83.7 68.3 84.2 66.1 C79.3035941 63.9 77.6 59.3 79.9 54.3 C80.9689294 51.9 86.7 40 91.2 44.8 C91.5473059 42.9 93.6 42.1 95 41.3 C97.0790765 40 99.5 39.8 101.9 40 C104.689912 40.3 106.9 41.7 108.7 43.7 C110.092206 45.2 110.1 47 110.9 48.7 C112.001612 48 114.8 49.9 115.6 50.9 C116.888976 52.5 117.3 55 116.7 57 C116.353212 58.2 115.6 60.7 114.8 61.6 C115.439435 62.1 115.5 64.4 115.4 65.3 C115.397765 66.8 114.6 68.3 113.4 69.2 C111.264935 71 109.8 71.3 107.6 71.3" class="style7"/></g><path d="M95.9941529 62.6 C95.0461471 62.3 94.2 61.7 93.7 61.1 C92.2274294 59.1 92.6 55.9 93.7 53.8 C95.2693824 50.9 99.1 50.9 101.6 52.5 C104.206235 54.1 104.8 57.2 102.9 59.6 C101.990253 60.8 100.7 61.9 99.3 62.6 C98.4348588 63 97.1 62.9 96 62.6" sketch:type="MSShapeGroup" class="style9"/><path d="M89.9697765 62.6 C90.4311294 62.6 90.9 62.8 91.1 63.1 C90.4713118 65.4 87.9 62.6 90 62.6 L89.9697765 62.6 Z M94.7857059 64.2 C94.6874824 64.1 93.9 63.4 93.8 63.6 C92.4893588 64.9 94.4 66.1 94.8 64.2 L94.7857059 64.2 Z M98.0494059 67.2 C98.3306824 66.8 97.8 65.3 97.2 65.9 C96.1801824 66.9 97.4 68.2 98 67.2 L98.0494059 67.2 Z M100.695488 65 C101.244647 64.4 100.2 63.6 99.6 64.2 C99.0375941 64.9 100.1 65.7 100.7 65 L100.695488 65 Z M103.610941 66.6 C104.530671 67 105.4 65.6 104.2 65.1 C103.188282 64.6 102.6 66.2 103.6 66.6 L103.610941 66.6 Z M104.359524 62.6 C105.780788 62.6 104.9 60.5 104.2 60.9 C103.618382 61.3 103.2 62.6 104.4 62.6 L104.359524 62.6 Z M108.322694 61.5 C109.602576 61.3 108.5 59.4 108 59.8 C107.310694 60.2 107.2 61.7 108.3 61.5 L108.322694 61.5 Z M106.478771 57.6 C107.599412 57.5 107.5 55.8 106.3 56 C105.233118 56.1 105.4 57.6 106.5 57.6 L106.478771 57.6 Z M106.624618 51.8 C107.660429 51.4 106.9 50.3 106 50.8 C105.250976 51.2 105.9 52.1 106.6 51.8 L106.624618 51.8 Z M102.408447 48.9 C102.033412 49 101.6 49.6 101.7 50 C102.332547 51.9 104.6 48.4 102.4 48.9 L102.408447 48.9 Z M104.0083 52.6 C104.329759 52.3 104.4 51.9 104.2 51.5 L103.807388 51.5 C103.162982 51.9 103.5 52.4 104 52.6 L104.0083 52.6 Z M99.2027882 49.6 C100.1627 49 99.4 48.1 98.5 48.5 C97.3722588 49 98.3 50.2 99.2 49.6 L99.2027882 49.6 Z M95.1652059 49.7 C96.1117235 49.3 95.2 47.9 94.7 48.3 C94.1413 48.7 94.2 50.2 95.2 49.7 L95.1652059 49.7 Z M97.2948706 46.3 C96.8409588 45.8 95.9 46.1 96 46.8 C96.0670765 48 98 47.2 97.3 46.3 L97.2948706 46.3 Z M93.3078882 52 C93.2424059 50.8 91.6 51.3 91.7 52.3 C91.8241176 53.5 93.3 52.7 93.3 52 L93.3078882 52 Z M90.9683824 50.5 C91.9268059 50.7 92.4 49.3 91.4 48.9 C90.3701118 48.5 90 50.2 91 50.5 L90.9683824 50.5 Z M89.7033824 54.8 C90.4579176 54.3 89.9 53 89 53.4 C87.9636353 53.8 88.7 55.5 89.7 54.8 L89.7033824 54.8 Z M90.3120706 58.1 C90.6112059 57.1 89.1 56.7 88.8 57.7 C88.5872059 58.6 90 59.1 90.3 58.1 L90.3120706 58.1 Z M109.809441 55.3 C110.635412 55.4 111.1 53.7 110 53.7 C109.112947 53.7 108.9 55.2 109.8 55.3 L109.809441 55.3 Z M111.875112 51 C112.204012 50 110.7 49.8 110.4 50.7 C110.055 51.9 111.6 51.9 111.9 51 L111.875112 51 Z M111.3453 59.3 C112.275447 59.9 113.4 57.9 112.2 57.6 C111.288747 57.3 110.5 58.8 111.3 59.3 L111.3453 59.3 Z M110.002912 66.1 C111.072953 65.8 110.7 64.2 109.5 64.5 C108.563788 64.9 109 66.3 110 66.1 L110.002912 66.1 Z M101.1494 69.1 C100.999088 70.2 102.9 70.1 102.8 69.2 C102.777529 68.7 102.2 68.5 101.8 68.6 C101.472347 68.6 101.2 68.8 101.1 69.1 L101.1494 69.1 Z M96.9287647 72.2 C97.7086 72.4 98.7 70.9 97.5 70.6 C96.4837824 70.4 95.9 72 96.9 72.2 L96.9287647 72.2 Z M92.2274294 69.9 C93.1322765 69.3 92.4 67.6 91.4 68.5 C90.5189353 69.1 91.3 70.4 92.2 69.9 L92.2274294 69.9 Z M87.5781824 68.2 C88.3669471 68 88.5 66.3 87.4 66.5 C86.3191353 66.7 86.6 68.3 87.6 68.2 L87.5781824 68.2 Z M85.5675765 60.9 C85.8786176 60.1 84.9 59.5 84.5 60.4 C84.3249 60.8 84.5 61.2 84.8 61.3 C85.0496706 61.5 85.4 61.4 85.6 60.9 L85.5675765 60.9 Z M86.1092941 57.9 C87.1704059 58 87.2 56.4 86.2 56.3 C85.0094882 56.2 85.1 57.8 86.1 57.9 L86.1092941 57.9 Z M84.5109294 52.3 C84.2996 53.1 85.5 53.2 85.7 52.4 C85.8518294 51.6 84.7 51.5 84.5 52.3 L84.5109294 52.3 Z M102.168841 45.4 C103.433841 45.3 103 43.7 101.8 44.1 C100.735671 44.4 101.2 45.6 102.2 45.4 L102.168841 45.4 Z M107.392547 46.9 C107.082994 46.1 105.9 46.6 105.8 47.3 C105.730188 48.5 107.8 47.9 107.4 46.9 L107.392547 46.9 Z M88.9488471 47 C89.6155765 46.3 89.1 45.8 88.3 46.4 C87.4159647 47.2 88.2 47.8 88.9 47 L88.9488471 47 Z M82.6119412 57.2 C83.7296059 56.2 82.3 55 81.4 56 C80.5194824 56.9 81.6 58 82.6 57.2 L82.6119412 57.2 Z M107.956588 69.9 C108.737912 69.6 108.9 68.1 107.7 68.4 C106.605271 68.6 106.8 70.3 108 69.9 L107.956588 69.9 Z" sketch:type="MSShapeGroup" class="style5"/><path d="M106.670753 16.2 L106.703494 16.2 C108.047371 16.9 108.1 19.4 108.5 20.6 C108.904594 19.5 110.4 16.5 112 17.1 C113.3946 17.7 112.5 20.5 112.3 21.6 C113.055282 21.3 114.8 18.2 115.5 20.4 C115.967759 22 115.5 23.4 115.1 24.9 C115.658206 24.4 117.8 21.7 118.8 22.5 C119.813359 23.2 118.5 25.9 118.1 26.6 C119.093053 26.3 122.4 24.4 122.7 26.5 C122.908888 28.1 121 29.6 119.7 30 C120.380376 30 121.6 29.5 122 30.3 C122.545759 31.5 120.5 32.7 119.7 32.9 C120.520271 33 122.6 32.9 123.3 33.9 C124.163471 35.5 120.9 35.9 120 35.7 C120.878935 36.1 122 37.2 120.6 37.7 C119.609471 38 118.4 37.9 117.4 37.8 C118.740341 38.7 120 38.9 121 40.3 C122.2749 42.2 119.7 41.6 118.7 41.5 C119.249318 42.4 120.2 44.5 118.4 44.5 C117.161324 44.5 115.7 43.1 114.8 42.3 C115.439435 42.8 116.9 44.4 116.9 45.3 C116.854747 46.8 114.6 45.8 114 45.2 C113.841071 46 114.5 48.9 112.7 48.3 C112.074535 48.1 111.5 47.3 111.1 46.9 C110.641365 46.4 110.4 45.4 109.9 45.1 C109.749912 46.6 109.3 48.4 108.4 49.6 C107.850924 50.4 107.2 50.7 106.6 50.1 C105.968306 49.5 106 48.8 106.1 48 C105.498024 48.7 105.3 49.6 104.6 50.1 C102.339988 51.6 102.3 48 102.5 46.6 C102.659959 45.9 103.3 44.8 103.2 44.2 C102.453094 45.1 101.5 45.8 100.7 46.5 C99.8873765 47.2 99 48 97.9 47.9 C96.8305412 47.9 96.9 46.7 96.8 45.8 C96.7754765 45.2 96.8 44.9 97 44.3 C97.2338529 43.9 97.7 43.4 97.7 42.9 C96.6861824 43.8 94.5 45.1 93.4 43.7 C92.2140353 42.1 94.2 41.1 94.8 40 C93.6739941 40.1 91.9 40.2 91.6 38.7 C91.1127412 36.9 95.5 35.7 96.7 35.1 C95.2470588 35.5 91.8 34.6 90.8 33.5 C90.0888353 32.7 89.9 31.5 90.9 30.9 C91.7244059 30.5 93 30.9 93.6 30.5 C92.7051529 30.2 90.2 28.1 90.7 27.1 C91.4639647 25.7 94 26.1 95.1 26.3 C94.3809059 25.7 92.6 23.6 93.9 22.8 C95.2024118 22 96.4 23.5 97.4 24.1 C96.2754294 23.2 95.9 20.4 97.3 19.5 C98.9066294 18.5 100.5 21.2 101.1 22.3 C100.699953 20.9 100.7 19.7 101.6 18.5 C102.100382 17.8 102.5 17.5 103.3 18.1 C103.651124 18.4 104.6 19.2 104.7 19.6 C104.457747 18.7 105.1 15.4 106.7 16.2" sketch:type="MSShapeGroup" class="style11"/><path d="M100.6687 32.4 C99.9989941 34.8 101.5 38 103.8 39.1 C109.038535 41.4 115.8 36.1 112.6 30.7 C109.426965 25.1 102.4 26.1 100.7 32.4" sketch:type="MSShapeGroup" class="style9"/><path d="M105.175076 38.6 C104.228559 38.1 104.9 36.6 105.9 37.1 C106.070994 37.2 106.2 37.3 106.3 37.5 C106.481747 38.1 105.9 38.9 105.2 38.6 L105.175076 38.6 Z M102.749253 36.8 C103.286506 37.1 104 36.6 103.9 36 C103.466582 34.5 101.4 36 102.7 36.8 L102.749253 36.8 Z M103.357941 33.7 C103.314782 32.6 101.9 32.7 102.2 33.7 C102.4397 34.3 103.4 34.5 103.4 33.7 L103.357941 33.7 Z M105.786741 34.3 C105.282229 33.4 103.8 34.8 104.7 35.3 C105.277765 35.7 106.1 34.9 105.8 34.3 L105.786741 34.3 Z M105.044112 31.6 C104.445841 30.7 103.3 31.5 104.1 32.3 C104.627406 32.7 105.5 32.2 105 31.6 L105.044112 31.6 Z M103.026065 31.2 C103.506765 30.4 102.2 29.6 101.9 30.6 C101.628612 31.3 102.6 32 103 31.2 L103.026065 31.2 Z M104.963747 30 C105.679588 29.6 105 28.3 104.3 28.6 C103.454676 29 104.2 30.4 105 30 L104.963747 30 Z M107.151453 31.8 C108.022071 31.4 106.9 30.2 106.2 30.5 C105.362594 30.9 106.3 32.3 107.2 31.8 L107.151453 31.8 Z M106.532347 36.6 C107.224376 37 107.9 36.1 107.5 35.4 C106.868688 34.2 105.2 35.8 106.5 36.6 L106.532347 36.6 Z M106.864224 32.9 C106.638012 32 105.1 32.3 105.6 33.1 C105.916218 33.7 107.1 33.6 106.9 32.9 L106.864224 32.9 Z M109.071276 34 C109.129318 32.9 107.5 32.8 107.7 33.8 C107.758653 34.5 109 34.9 109.1 34 L109.071276 34 Z M109.885341 32.1 C110.215729 31.1 108.8 30.7 108.6 31.6 C108.420918 32.4 109.6 33 109.9 32.1 L109.885341 32.1 Z M107.242235 29.5 C107.513094 28.6 106.2 28.3 106.1 29.2 C106.081412 29.8 107 30.2 107.2 29.5 L107.242235 29.5 Z M108.989424 27.9 C108.563788 27.1 107.3 28.1 108.1 28.6 C108.569741 29 109.3 28.5 109 27.9 L108.989424 27.9 Z M106.435612 27.7 C106.225771 27.1 105 27.4 105.4 28 C105.666194 28.5 106.6 28.3 106.4 27.7 L106.435612 27.7 Z M109.2454 30.3 C109.551976 29.6 108.5 29 108.2 29.8 C107.916406 30.6 108.9 31.1 109.2 30.3 L109.2454 30.3 Z M111.517935 30.6 C111.7754 29.8 110.4 28.6 110.1 29.8 C109.935941 30.5 111.2 31.6 111.5 30.6 L111.517935 30.6 Z M112.055188 33.4 C112.172759 33.3 112.2 33.1 112.2 32.8 C112.140018 32.3 111 32.1 110.8 32.7 C110.526771 33.3 111.6 33.7 112.1 33.4 L112.055188 33.4 Z M109.993982 28.4 C109.569835 27.8 109.1 28.5 109.5 28.9 C109.790094 29.2 110.3 28.8 110 28.4 L109.993982 28.4 Z M110.824418 34.5 C110.7887 33.5 109.5 33.9 109.8 34.7 C109.988029 35.3 110.8 35.3 110.8 34.5 L110.824418 34.5 Z M112.651971 35.2 C112.6609 34.2 111.4 33.8 111.6 35 C111.760518 35.6 112.6 36.2 112.7 35.2 L112.651971 35.2 Z M112.637088 31.7 C112.840976 31.2 112 30.7 111.8 31.3 C111.602765 31.9 112.4 32.3 112.6 31.7 L112.637088 31.7 Z M109.587694 36.6 C109.886829 36 108.9 34.9 108.4 35.8 C108.050347 36.6 109.2 37.5 109.6 36.6 L109.587694 36.6 Z M111.592347 36.8 C111.753076 36.2 110.9 35.7 110.7 36.4 C110.424082 37 111.4 37.6 111.6 36.8 L111.592347 36.8 Z M101.723859 35 C102.048294 34.2 101 33.6 100.8 34.5 C100.722276 35 101.4 35.8 101.7 35 L101.723859 35 Z M108.047371 38.4 C108.254235 38.1 107.7 37.2 107.3 37.7 C107.047276 38 107.7 39.1 108 38.4 L108.047371 38.4 Z M110.172571 38.3 L110.190429 38.2 C110.208288 37.5 109.5 37.5 109.4 38.1 C109.2707 38.7 110 38.9 110.2 38.3 L110.172571 38.3 Z M103.843106 38.5 L104.003835 38.4 C104.4637 38 103.6 37.2 103.2 37.6 C102.691212 38 103.4 38.6 103.8 38.5 L103.843106 38.5 Z M101.642006 32.1 C101.578012 32 101.5 31.9 101.3 31.9 C100.850265 31.9 100.5 32.4 100.9 32.7 C101.369659 33.1 101.9 32.4 101.6 32.1 L101.642006 32.1 Z" sketch:type="MSShapeGroup" class="style5"/><path d="M103.673447 29.8 C102.369753 27.5 101.2 27 101.2 27 L101.360729 26.5 C101.414306 26.5 102.7 27 104.2 29.6 L103.673447 29.8 L103.673447 29.8 Z M102.005135 32 L102.048294 31.4 C99.4275118 31.3 98 29.7 98 29.7 L97.5523353 30.1 C97.6163294 30.1 99.2 31.8 102 32 L102.005135 32 Z M99.4379294 35.3 C100.119541 35.3 101.1 35.2 102.1 34.8 L101.866729 34.3 C100.140376 34.9 98.5 34.7 98.5 34.7 L98.3961647 35.2 C98.4289059 35.2 98.8 35.3 99.4 35.3 L99.4379294 35.3 Z M100.960394 40.7 C100.969324 40.7 101.8 38.6 103.5 38.3 L103.424912 37.7 C101.409841 38.1 100.5 40.4 100.5 40.5 L100.960394 40.7 L100.960394 40.7 Z M106.879106 28.4 C107.071088 26.4 106.7 24.3 106.7 24.2 L106.151359 24.3 C106.157312 24.4 106.5 26.4 106.3 28.4 L106.879106 28.4 L106.879106 28.4 Z M110.834835 29.3 C111.184571 27.9 112.2 27.2 112.2 27.2 L111.863206 26.8 C111.820047 26.8 110.7 27.5 110.3 29.1 L110.834835 29.3 L110.834835 29.3 Z M113.251729 32.7 C114.674482 32.7 115.9 32.2 116 32.2 L115.820424 31.7 C115.801076 31.7 114.1 32.3 112.4 32.1 L112.354324 32.6 C112.651971 32.7 113 32.7 113.3 32.7 L113.251729 32.7 Z M114.650671 37.4 L115.036124 37.1 C114.978082 37 113.6 35.7 112 35.7 L111.951012 36.2 C113.387159 36.2 114.6 37.4 114.7 37.4 L114.650671 37.4 Z M110.566953 40.9 L110.950918 40.5 C110.936035 40.5 109.9 39.5 109.7 38 L109.135271 38.1 C109.368924 39.7 110.5 40.9 110.6 40.9 L110.566953 40.9 Z M105.334318 41.8 L105.879012 41.8 C105.879012 41.7 105.8 39.5 106.5 38.5 L106.007 38.2 C105.210794 39.4 105.3 41.7 105.3 41.8 L105.334318 41.8 Z" sketch:type="MSShapeGroup" class="style9"/><path d="M101.458953 27.2 C100.476718 28 98.9 27 98.7 25.9 C98.5256412 24.9 99.1 23.9 100.2 24 C100.702929 24.1 101.2 24.5 101.5 25 C101.966441 25.7 102.1 26.7 101.5 27.2 L101.458953 27.2 Z M107.394035 24.3 C107.800324 23.9 107.7 23.3 107.4 22.8 C106.574018 21.9 104.9 22 104.9 23.4 C104.771765 24.7 106.6 25.3 107.4 24.3 L107.394035 24.3 Z M113.530029 27.2 C113.733918 27 113.9 26.7 113.9 26.4 C113.952688 25.3 112.3 24.2 111.3 25 C110.680059 25.6 110.8 26.5 111.4 27.1 C111.915294 27.7 113 27.7 113.5 27.2 L113.530029 27.2 Z M115.170065 31.5 C114.510776 33 116.9 34 117.7 32.7 C118.846006 31 116.1 29.3 115.2 31.5 L115.170065 31.5 Z M115.515335 36.2 C114.015194 36.1 114.1 38.5 115.2 38.9 C117.149418 39.7 117.5 36.3 115.5 36.2 L115.515335 36.2 Z M112.178712 43.4 C113.497288 43.3 113.1 41.6 112.5 40.9 C111.833441 40.2 110.5 40 110.3 41.1 C110.011841 42.2 111 43.5 112.2 43.4 L112.178712 43.4 Z M104.660147 42.3 C104.639312 42.7 104.7 43.6 105.3 43.8 C106.236188 44.2 106.8 42.5 106.4 41.8 C105.786741 40.8 104.7 41.1 104.7 42.3 L104.660147 42.3 Z M97.9288588 41.2 C98.0687529 42 99.5 42.7 100.3 42.5 C101.531876 42.2 101.6 40.7 100.7 39.9 C99.9126765 39.2 98.8 39.8 98.2 40.5 C97.9526706 40.7 97.9 40.9 97.9 41.2 L97.9288588 41.2 Z M98.5479647 33.9 C97.8098 33.2 96.7 33.8 96.5 34.7 C96.2962647 35.4 97 36.6 97.8 36.7 C99.0405706 36.8 99.3 34.5 98.5 33.9 L98.5479647 33.9 Z M98.0687529 29.6 C98.0166647 29.1 97.7 28.5 97.2 28.3 C95.7054353 27.8 94.3 29.5 95.8 30.5 C96.6415353 31.1 98.2 31 98.1 29.6 L98.0687529 29.6 Z" sketch:type="MSShapeGroup" class="style12"/><path d="M142.5908 61.7 C141.470159 62.8 139.8 63.8 138.4 64.2 C137.838865 64.3 135.5 64.1 135.2 64.5 C131.795141 68.2 128.8 70.7 123.4 69.4 C119.582682 68.5 116.2 65.8 114.8 62.1 C114.607512 61.6 112.8 61.2 112.3 61 C111.723312 60.7 111.1 60.4 110.5 60.1 C107.874735 58.8 106.3 55.3 105.6 52.6 C104.7926 49.5 105 46.1 107.3 43.8 C108.539976 42.6 111.9 40.7 113.6 40.5 C113.259171 40.5 116.1 34.6 116.5 34.1 C118.515618 31.5 121.3 29 124.7 28.6 C127.678682 28.3 130.7 30.4 132.7 32.3 C134.0141 33.6 135.2 35.1 136 36.8 C136.204782 37.1 137.8 41.6 137.4 41.7 C140.150094 41.4 143.3 44.7 144.4 46.9 C144.751718 47.6 145 48.4 145.2 49.2 C146.315853 53.2 145.7 57.9 143.1 61.2 C142.9197 61.4 142.8 61.5 142.6 61.7" sketch:type="MSShapeGroup" class="style12"/><path d="M119.822288 54.4 C121.695976 57.2 124.7 57.2 127.4 56 C132.003494 54 131.2 48.5 127.1 46.3 C122.395447 43.7 116.8 50 119.8 54.4" sketch:type="MSShapeGroup" class="style5"/><path d="M122.697559 50.2 C121.166165 53.6 126.7 55.7 128.2 52.6 C129.850018 49.2 124.1 47 122.7 50.2" sketch:type="MSShapeGroup" class="style9"/><path d="M118.600447 56.1 C118.838565 55.7 119 56.1 119.3 56.3 C120.102076 56.7 120.7 57.4 121.5 57.8 C123.5146 58.7 125.7 58.4 127.7 57.7 C128.394524 57.5 129 57 129.6 56.6 C129.8143 56.4 130.7 55.7 130.9 55.7 C131.676082 55.9 130.6 57.4 130.3 57.7 C129.591065 58.4 128.7 59 127.8 59.6 C126.181518 60.6 123.9 60.8 122.1 60.2 C121.082824 59.8 120.2 59 119.5 58.2 C119.265688 57.9 118.6 57 118.5 56.4 L118.600447 56.1 L118.600447 56.1 Z M125.845176 63 C124.785553 63.2 123.7 63.2 122.7 62.9 C122.248112 62.7 120.9 61.8 120.9 62.3 C120.642306 63.5 122.9 64 123.7 64.2 C125.266253 64.5 127 64.2 128.5 63.7 C129.857459 63.2 130.9 62.1 131.5 60.9 C131.753471 60.5 132.8 57.5 131.6 58.4 C131.345694 58.6 131.4 58.9 131.3 59.1 C130.248865 61.1 128.1 62.6 125.8 63 L125.845176 63 Z M117.394976 52.5 C117.073518 50.5 117.8 48.3 118.9 46.6 C119.192765 46 119.6 45.3 120.1 45 C121.184024 44.2 122.3 43.6 123.5 43.2 C122.724347 42.1 120.1 43.5 119.3 44.1 C118.563241 44.7 117.9 45.3 117.3 46.1 C115.865071 48.1 115.4 50.4 115.8 52.8 C115.943947 53.6 116.4 56 117.6 55.9 C117.731318 55.9 117.4 52.8 117.4 52.5 L117.394976 52.5 Z M113.646112 52.6 C113.471988 51.1 113.4 49.7 113.7 48.3 C113.686294 48.1 114 45.5 113.7 45.7 C112.531424 46.5 112.1 48.6 112 49.9 C111.8007 52.6 112.4 56 114 58.2 C114.714665 59.1 115.7 59.7 116.6 60.3 C117.228294 60.7 117.9 61.1 118.6 61.3 C118.624259 61.4 120.5 61.7 120.2 61.2 C119.686859 60.5 118.6 60.4 117.9 59.8 C116.698482 58.8 115.5 58 114.8 56.6 C114.473571 55.7 114.2 54.9 113.9 54 C113.7994 53.6 113.7 53.1 113.6 52.6 L113.646112 52.6 Z M109.809441 55.2 C108.730471 53.1 108.2 50.9 108.8 48.5 C108.928406 48 110.2 45.2 109.7 45.1 C108.806371 44.7 107.5 48.6 107.3 49.2 C106.566576 51.8 107.5 55 109.4 57 C110.418129 58.1 112.2 59.6 113.8 59.6 C113.509194 58.7 112.4 58.3 111.7 57.7 C110.956871 57.1 110.3 56.2 109.8 55.2 L109.809441 55.2 Z M113.989894 41.8 C113.113324 41 111.2 44.3 111 44.8 C110.861624 45.4 110.7 46.1 110.6 46.7 C110.623506 46.8 110.9 48.3 111.1 48 C111.586394 47.3 111.4 46.4 111.7 45.6 C111.756053 45.4 112 45.1 112.3 44.7 C113.0151 43.6 114.2 42 114 41.8 L113.989894 41.8 Z M117.774476 43.1 C120.750947 40 125.3 39.7 129.1 41.5 C129.299371 41.6 131 42.6 131 42.3 C131.131388 41.9 130.3 40.9 130 40.7 C129.049347 39.9 127.6 39.4 126.4 39.1 C122.496647 38.2 118.2 38.8 115.8 42.4 C115.424553 43 114.2 45.7 115.3 46.1 C115.3174 46.1 117.6 43.4 117.8 43.1 L117.774476 43.1 Z M128.8529 45.1 C130.040512 46.3 131.1 47.7 131.8 49.2 C132.543724 50.8 132.8 52.5 132.5 54.3 C132.339835 54.8 132.1 55.3 131.9 55.8 C131.685012 56.6 131.9 57 132.7 56.3 C133.619718 55.6 133.9 54 134 52.8 C134.0141 50.4 132.9 47.6 131.2 45.8 C130.341135 44.9 129 44 127.9 43.3 C127.290253 42.9 125.2 41.8 124.6 42.3 C124.743882 42.2 128.5 44.8 128.9 45.1 L128.8529 45.1 Z M133.244682 60.2 C133.110741 60.4 132.5 60.6 132.9 60.9 C133.058653 61.1 133.6 60.8 133.8 60.7 C134.277518 60.4 134.6 59.9 135 59.4 C135.923506 58.4 136.5 57.3 137 56 C138.225806 52.8 137.7 50.3 136.1 47.4 C135.6333 46.7 131.5 42 130.6 43.9 C132.781841 45.1 134.6 46.7 135.2 49.3 C135.521682 50.6 135.6 52 135.6 53.4 C135.526147 54.8 135 56 134.6 57.4 C134.362347 58.5 133.9 59.3 133.2 60.2 L133.244682 60.2 Z M135.282076 44.4 C135.587165 45.1 135.6 45.8 136.3 46.1 C136.816447 45.1 136.2 43.3 135.9 42.4 C135.295471 40.6 133.5 39.1 132.1 37.9 C129.976518 36.2 127.3 34.4 124.4 34.6 C121.624541 34.7 119.2 36 117.4 38.1 C117.141976 38.4 115.5 40.4 116.4 40.7 C116.682112 40.8 117.7 39.4 117.9 39.2 C119.969624 36.9 122.7 35.9 125.8 36.7 C128.406429 37.4 130.6 38.9 132.4 41 C133.359276 42.1 134.5 42.9 135.2 44.3 L135.282076 44.4 L135.282076 44.4 Z M118.615329 35 C118.895118 34.8 119.5 34.7 119.6 34.3 C119.901165 33.7 119.2 33.7 118.8 33.8 C118.259641 33.9 117.8 34.4 117.5 34.8 C117.149418 35.1 116.7 35.6 116.5 36 C116.402324 36.1 116.1 37.6 116.3 37.6 L116.472271 37.6 C116.580912 37.6 118.3 35.3 118.6 35 L118.615329 35 Z M129.032976 31.3 C126.060971 29.7 122 30.2 120.6 33.6 L120.881912 33.8 C120.773271 33.7 123 32.9 123.2 32.8 C124.1218 32.7 125 32.8 125.9 33 C128.026929 33.4 130 34.3 131.7 35.5 C132.842859 36.3 133.6 37.5 134.6 38.4 C134.7731 38.5 134.8 38.7 135 38.8 C135.563353 38.2 134.2 36.4 133.8 35.8 C132.8756 34.2 130.7 32.3 129 31.3 L129.032976 31.3 Z M140.580194 52.8 C140.331659 51.8 140.1 50.9 139.7 50 C139.3777 49.1 138.8 48.4 138.3 47.6 C138.0115 48 138.5 49.1 138.7 49.5 C139.130653 50.8 139.4 52.3 139.3 53.7 C139.147024 55.6 138.6 57.4 137.9 59 C137.654324 59.6 137.2 60.2 137 60.8 C136.6453 61.8 137.3 61.2 137.8 60.7 C138.812171 59.7 139.7 58.7 140.4 57.5 C141.050476 56.1 141 54.3 140.6 52.8 L140.580194 52.8 Z M143.617682 50.7 C143.520947 50.3 143.4 49.9 143.3 49.5 C142.858682 48.2 142.2 47 141.3 46 C141.066847 45.8 138.5 43.4 138.4 43.6 C138.170741 43.9 139.9 46.4 140.2 47 C141.516294 49.4 142.5 51.8 142.4 54.7 C142.346729 56.3 141.9 57.8 141.3 59.3 C141.102565 59.8 139.8 61.7 140.2 62 C141.053453 62.5 142.8 58.6 143 58.1 C144.114753 55.5 144.2 53.3 143.6 50.7 L143.617682 50.7 Z M120.899771 64.9 C119.963671 64.5 119.1 63.9 118.5 63.2 C118.018547 62.7 117.9 62.1 117.6 61.6 C117.089888 62.6 118.2 64.7 119.1 65.2 C120.557476 66.1 123.6 67.1 125 65.5 C124.987953 65.6 123.3 65.5 123.1 65.5 C122.380565 65.4 121.6 65.2 120.9 64.9 L120.899771 64.9 Z M124.764718 66.8 C124.127753 67 122.8 67 122.3 67.4 C125.921076 69.3 131.8 66.1 134.1 63.4 C134.780541 62.6 136.4 61 136.1 59.9 C134.725476 60.5 134 62 133 63 C131.449871 64.5 129.5 65.2 127.5 65.9 C126.604176 66.2 125.7 66.5 124.8 66.8 L124.764718 66.8 Z" sketch:type="MSShapeGroup" class="style5"/></g></g></svg>
