<svg xmlns="http://www.w3.org/2000/svg" xmlns:xlink="http://www.w3.org/1999/xlink" version="1.1" x="0px" y="0px" width="81.497px" height="11.652px" viewBox="0 0 81.497 11.652" enable-background="new 0 0 81.497 11.652" xml:space="preserve"><g><g><path fill="#4E4E4E" d="M3.626 3.449c1.557 0 2.7 1.1 2.9 2.705c0.041 0.289-0.161 0.559-0.45 0.6 C5.854 6.8 5.6 6.6 5.5 6.303c-0.158-1.108-0.871-1.78-1.91-1.799C3.597 4.5 3.6 4.5 3.6 4.5 c-1.033 0-2.248 0.722-2.481 2.069c-0.137 0.8 0.1 1.7 0.8 2.323c0.43 0.5 0.9 0.8 1.5 1.1 c1.838 0.8 4.1 0.9 5.9 0.283c2.531-0.807 4.688-2.217 6.737-3.698c-0.685-0.05-1.352-0.218-1.874-0.563 c-0.826-0.546-1.239-1.395-1.16-2.389c0.045-0.564 0.308-1.064 0.738-1.401c0.468-0.369 1.092-0.521 1.708-0.416 c0.751 0.1 1.3 0.6 1.4 1.243c0.055 0.549-0.292 1.017-0.931 1.25c-0.27 0.103-0.454-0.114-0.553-0.388 c-0.103-0.277 0.161-0.656 0.434-0.754c0.004-0.058-0.144-0.26-0.49-0.314c-0.346-0.046-0.661 0.024-0.887 0.2 c-0.202 0.156-0.318 0.384-0.339 0.657c-0.048 0.6 0.2 1.1 0.7 1.421c0.816 0.5 2.2 0.6 3.1 0.1 c0.015-0.004 0 0 0.034-0.004c2.693-1.961 5.514-3.896 9.18-4.658c1.051-0.218 2.125-0.363 3.205-0.455 c0.026-0.005 0.053-0.015 0.078-0.02c0.025-0.005 0 0 0.1 0.015c2.961-0.222 6 0 8.7 0.8 c0.28 0.1 0.4 0.4 0.4 0.648c-0.071 0.28-0.373 0.466-0.648 0.365c-2.663-0.73-5.583-0.972-8.449-0.745 c-1.84 0.314-3.865 3.175-3.771 4.821c0.026 0.5 0.3 1 0.6 1.27c0.241 0.2 0.5 0.3 0.8 0.2 c0.301-0.038 0.82-0.52 0.792-1.195c-0.248-0.151-0.325-0.475-0.173-0.727c0.152-0.242 0.474-0.325 0.726-0.174 c0.503 0.3 0.7 0.8 0.6 1.399c-0.177 0.822-1.043 1.649-1.809 1.743c-0.095 0.015-0.19 0.018-0.281 0 c-0.504 0-0.968-0.169-1.37-0.502c-0.565-0.476-0.927-1.23-0.972-2.021c-0.075-1.374 0.853-3.234 2.161-4.513 c-0.147 0.029-0.302 0.037-0.45 0.065c-3.733 0.781-6.492 2.806-9.414 4.95c-2.489 1.817-5.057 3.705-8.254 4.7 c-0.873 0.274-1.838 0.412-2.816 0.412c-1.311 0-2.646-0.246-3.826-0.728c-0.693-0.284-1.346-0.74-1.877-1.314 C0.229 8.69-0.146 7.5 0.1 6.39C0.39 4.4 2.1 3.6 3.6 3.449z"/></g></g><path fill="#4E4E4E" d="M77.868 3.449c-1.555 0.025-2.708 1.085-2.938 2.705c-0.044 0.3 0.2 0.6 0.4 0.6 c0.264 0 0.557-0.161 0.597-0.449c0.157-1.108 0.872-1.78 1.91-1.799C77.898 4.5 77.9 4.5 77.9 4.5 c1.035 0 2.2 0.7 2.5 2.069c0.136 0.79-0.149 1.659-0.768 2.323c-0.429 0.463-0.948 0.829-1.501 1.1 c-1.839 0.759-4.113 0.862-5.922 0.283c-2.532-0.807-4.691-2.217-6.738-3.698c0.683-0.05 1.353-0.218 1.875-0.563 c0.826-0.546 1.236-1.395 1.16-2.389c-0.045-0.564-0.309-1.064-0.738-1.401c-0.467-0.369-1.094-0.521-1.708-0.416 c-0.75 0.114-1.315 0.626-1.376 1.243c-0.057 0.5 0.3 1 0.9 1.25c0.269 0.1 0.454-0.114 0.554-0.388 c0.102-0.277-0.161-0.656-0.434-0.754c-0.004-0.058 0.144-0.26 0.49-0.314c0.348-0.046 0.7 0 0.9 0.2 c0.202 0.2 0.3 0.4 0.3 0.657c0.05 0.609-0.182 1.088-0.684 1.421c-0.817 0.533-2.225 0.591-3.119 0.1 c-0.012-0.004-0.02 0-0.033-0.004c-2.656-1.935-5.55-3.922-9.18-4.658c-1.051-0.218-2.123-0.363-3.204-0.455 c-0.025-0.005-0.054-0.015-0.078-0.02s-0.042 0.015-0.065 0.015c-2.964-0.222-5.935 0.022-8.711 0.8 c-0.281 0.074-0.444 0.367-0.367 0.648c0.072 0.3 0.4 0.5 0.6 0.365c2.664-0.73 5.584-0.972 8.448-0.745 c1.84 0.3 3.9 3.2 3.8 4.821c-0.025 0.498-0.256 0.984-0.598 1.27c-0.24 0.201-0.5 0.288-0.838 0.2 c-0.301-0.038-0.82-0.52-0.791-1.195c0.248-0.151 0.326-0.475 0.174-0.727c-0.154-0.242-0.474-0.325-0.726-0.174 c-0.505 0.311-0.722 0.817-0.599 1.399c0.178 0.8 1 1.6 1.8 1.743c0.095 0 0.2 0 0.3 0 c0.504 0 0.969-0.169 1.369-0.502c0.565-0.476 0.928-1.23 0.973-2.021c0.075-1.374-0.852-3.234-2.16-4.513 c0.148 0 0.3 0 0.4 0.065c3.732 0.8 6.5 2.8 9.4 4.95c2.488 1.8 5.1 3.7 8.3 4.7 c0.876 0.3 1.8 0.4 2.8 0.412c1.311 0 2.647-0.246 3.826-0.728c0.693-0.284 1.345-0.74 1.876-1.314 c0.855-0.92 1.23-2.096 1.032-3.221C81.107 4.4 79.4 3.6 77.9 3.449z"/></svg>
