<?xml version="1.0" encoding="UTF-8" standalone="no"?>
<svg width="305px" height="117px" viewBox="0 0 305 117" version="1.1" xmlns="http://www.w3.org/2000/svg" xmlns:xlink="http://www.w3.org/1999/xlink" xmlns:sketch="http://www.bohemiancoding.com/sketch/ns">
    <!-- Generator: Sketch 3.3.1 (12002) - http://www.bohemiancoding.com/sketch -->
    <title>Imported Layers</title>
    <desc>Created with Sketch.</desc>
    <defs></defs>
    <g id="Page-1" stroke="none" stroke-width="1" fill="none" fill-rule="evenodd" sketch:type="MSPage">
        <g id="Imported-Layers" sketch:type="MSLayerGroup" transform="translate(0.000000, -58.000000)" fill="#FDFCF3">
            <path d="M73.0507861,114.842091 C65.7776057,120.043911 60.001481,125.196068 53.7480501,132.040236 C35.381884,152.138788 27.9287778,172.961661 27.8570535,173.168874 L28.4740774,173.38636 C28.5473168,173.178067 35.9669201,152.46305 54.2498457,132.461739 C71.1109723,114.017921 108.096252,97.8706228 148.382922,91.7722724 L148.353803,89.8158368 C129.713353,91.8940022 107.631539,96.4749114 90.5737294,104.531868 C84.4717882,107.413978 78.6200575,110.859146 73.0507861,114.842091" id="Fill-3" sketch:type="MSShapeGroup"></path>
            <path d="M0.776756627,141.333165 L45.5170768,142.880571 C37.8622835,153.40432 33.3477485,162.817976 31.3150823,167.564717 L0.776756627,141.333165 L0.776756627,141.333165 Z M111.493936,63.3736315 L106.477095,99.8235825 C115.208408,97.4087609 124.374775,94.8013638 134.91459,94.595176 L111.493936,63.3736315 L111.493936,63.3736315 Z M75.4892134,113.824928 C82.9577433,108.822729 91.4703392,104.442155 101.140405,101.216134 L72.5790609,74.3309664 L75.4892134,113.824928 L75.4892134,113.824928 Z M48.6251254,138.708643 C54.1889227,131.693738 61.1240999,124.41746 69.6232224,117.866773 L30.1025291,100.372859 L48.6251254,138.708643 L48.6251254,138.708643 Z" id="Fill-4" sketch:type="MSShapeGroup"></path>
            <path d="M233.271601,115.605015 C240.544781,120.806835 246.320906,125.958992 252.574337,132.803161 C270.940503,152.901712 278.393609,173.724585 278.465334,173.931798 L277.84831,174.149284 C277.77507,173.940991 270.355467,153.225974 252.072541,133.224663 C235.211415,114.780846 198.226135,98.6335473 157.939465,92.5351969 L157.968584,90.5787613 C176.609034,92.6569267 198.690848,97.237836 215.748658,105.294793 C221.850599,108.176902 227.70233,111.62207 233.271601,115.605015" id="Fill-3-Copy" sketch:type="MSShapeGroup"></path>
            <path d="M304.719465,141.1803 L259.979145,142.727706 C267.633938,153.251455 272.148474,162.665111 274.18114,167.411852 L304.719465,141.1803 L304.719465,141.1803 Z M194.002286,63.2207665 L199.019127,99.6707176 C190.287814,97.2558959 181.121447,94.6484989 170.581632,94.442311 L194.002286,63.2207665 L194.002286,63.2207665 Z M230.007009,113.672063 C222.538479,108.669864 214.025883,104.28929 204.355817,101.063269 L232.917161,74.1781015 L230.007009,113.672063 L230.007009,113.672063 Z M256.871097,138.555778 C251.307299,131.540873 244.372122,124.264595 235.873,117.713908 L275.393693,100.219994 L256.871097,138.555778 L256.871097,138.555778 Z" id="Fill-4-Copy" sketch:type="MSShapeGroup"></path>
            <path d="M154.815489,58.6105263 L140.183246,93.3287539 C149.515176,92.3774724 157.72326,92.7286362 165.530976,93.4902416" sketch:type="MSShapeGroup"></path>
        </g>
    </g>
</svg>