<?xml version="1.0" encoding="UTF-8" standalone="no"?>
<svg width="23px" height="56px" viewBox="0 0 23 56" version="1.1" xmlns="http://www.w3.org/2000/svg" xmlns:xlink="http://www.w3.org/1999/xlink" xmlns:sketch="http://www.bohemiancoding.com/sketch/ns">
    <!-- Generator: Sketch 3.4 (15575) - http://www.bohemiancoding.com/sketch -->
    <title>Fill 1</title>
    <desc>Created with Sketch.</desc>
    <defs></defs>
    <g id="Page-1" stroke="none" stroke-width="1" fill="none" fill-rule="evenodd" sketch:type="MSPage">
        <g sketch:type="MSLayerGroup" transform="translate(11.500000, 27.500000) scale(-1, 1) translate(-11.500000, -27.500000) translate(0.000000, -1.000000)" id="Fill-1" fill="#FFFFFF">
            <path d="M11.0343176,4.13727209 C11.0586706,4.11473721 11.0694941,4.08955116 11.0952,4.06701628 C11.0018471,3.27696977 11.2616118,2.16613256 12.8269647,0.995644186 C12.8269647,0.995644186 14.0378471,4.07629535 12.1653765,5.05324884 C12.6808471,7.11717907 13.0813176,9.15194651 13.3735529,11.1535744 C15.9454941,5.02938837 19.1560235,4.93659767 19.1560235,4.93659767 C18.6243176,9.52576047 14.5925529,11.2344349 13.4439059,11.6307837 C13.6955529,13.4441791 13.8646706,15.233714 13.9580235,16.9861326 C14.8590824,14.9593186 16.7193765,12.2166907 20.1923765,12.2856209 C20.1923765,12.2856209 19.3562588,17.1836442 14.0243176,18.8684581 C14.0770824,21.2240163 14.0040235,23.5212488 13.8213765,25.7336442 C14.9186118,23.9812256 17.6326118,20.6937837 22.3178471,21.227993 C22.3178471,21.227993 18.7163176,28.1475279 13.7226118,26.9160628 C13.4750235,29.4386442 13.0840235,31.8392721 12.6132,34.1285512 C15.7209059,29.435993 19.8500824,29.7978767 19.8500824,29.7978767 C18.0709647,34.8788302 13.8335529,36.0665512 12.1180235,36.3435977 C11.5836118,38.5705744 10.9774941,40.6504116 10.3334941,42.5751558 C13.6035529,39.182993 17.0752,40.3309465 17.0752,40.3309465 C14.5208471,44.8710628 11.1290235,44.4972488 9.79772941,44.132714 C9.0712,46.1515744 8.32843529,47.9543651 7.61814118,49.5357837 C9.00625882,48.2512953 12.0219647,46.0614349 14.8279647,48.0670395 C14.8279647,48.0670395 12.1261412,52.1869465 7.19467059,50.4623651 C5.35061176,54.4099465 3.84614118,56.6925977 3.79743529,56.7628535 C3.64861176,56.9643419 3.40102353,57.0465279 3.15343529,56.9736209 C3.09931765,56.9696442 3.05331765,56.9471093 3.00461176,56.9205977 C2.74349412,56.7350163 2.66502353,56.3916907 2.83955294,56.1212721 C2.88961176,56.0523419 4.31425882,53.8929698 6.07849412,50.1521791 C4.34672941,49.6484581 0.185082353,47.992807 -0.000270588235,43.5759698 C-0.000270588235,43.5759698 5.82008235,44.6828302 6.72384706,48.7377837 C7.34078824,47.3419465 7.98343529,45.7764349 8.61390588,44.0505279 C3.90296471,44.7968302 2.16172941,37.4782953 2.16172941,37.4782953 C6.9322,37.846807 8.50431765,41.2429465 9.00084706,42.9569233 C9.6922,40.949993 10.3524353,38.7482023 10.9301412,36.3846907 C3.84749412,35.8093884 3.53090588,28.2124814 3.53090588,28.2124814 C8.80196471,28.3795047 10.6162588,33.2894581 11.1574353,35.4369 C11.7716706,32.7791093 12.2641412,29.9304349 12.5712588,26.9173884 C6.66431765,27.881086 2.16849412,21.161714 2.16849412,21.161714 C8.54084706,20.5572488 11.5416706,23.9335047 12.6686706,25.7296674 C12.8472588,23.6272953 12.9257294,21.4533419 12.8837882,19.2184116 C7.23796471,21.4202023 3.8732,15.2045512 3.8732,15.2045512 C9.96549412,15.0043884 12.0990824,16.5089233 12.8432,17.7085744 C12.7620235,15.7891326 12.5861412,13.817993 12.3114941,11.813714 C6.15967059,12.3293651 3.32661176,7.09596977 3.32661176,7.09596977 C8.28784706,7.08403953 10.8164941,8.75427209 12.0503765,10.0957605 C11.8041412,8.6256907 11.4916118,7.12778372 11.1195529,5.6259 C8.45561176,5.52117907 7.97125882,3.75815581 7.97125882,3.75815581 C9.53390588,3.44664419 10.4701412,3.71838837 11.0343176,4.13727209" sketch:type="MSShapeGroup"></path>
        </g>
    </g>
</svg>