<?xml version="1.0" encoding="UTF-8" standalone="no"?>
<svg width="95px" height="24px" viewBox="0 0 95 24" version="1.1" xmlns="http://www.w3.org/2000/svg" xmlns:xlink="http://www.w3.org/1999/xlink" xmlns:sketch="http://www.bohemiancoding.com/sketch/ns">
    <!-- Generator: Sketch 3.4 (15575) - http://www.bohemiancoding.com/sketch -->
    <title>Page 1 + Page 1</title>
    <desc>Created with Sketch.</desc>
    <defs>
        <path id="path-1" d="M0,0.464583333 L55.2605926,0.464583333 L55.2605926,23.9583333 L0,23.9583333"></path>
        <path id="path-3" d="M0,0.464583333 L55.2605926,0.464583333 L55.2605926,23.9583333 L0,23.9583333"></path>
    </defs>
    <g id="Page-1" stroke="none" stroke-width="1" fill="none" fill-rule="evenodd" sketch:type="MSPage">
        <g id="Page-1-+-Page-1" sketch:type="MSLayerGroup">
            <g id="Page-1">
                <mask id="mask-2" sketch:name="Clip 2" fill="white">
                    <use xlink:href="#path-1"></use>
                </mask>
                <g id="Clip-2"></g>
                <path d="M4.79733333,15.7798958 C0.0632592593,20.2798958 10.9957037,26.4340625 13.8143704,19.2038542 C14.6823704,17.7330208 15.5866667,15.3371875 16.1508148,12.2705208 C16.2482963,9.49447917 18.1522963,4.80072917 14.2820741,1.90489583 C11.6791111,0.994479167 10.0831111,3.97677083 10.0032593,6.02052083 C9.68177778,8.2496875 9.744,10.4705208 9.90474074,12.7851042 C10.1681481,15.0601042 10.694963,17.4496875 12.1758519,19.3944792 C13.5623704,21.3996875 16.7118519,22.1153125 18.7205926,20.6923958 C20.6868148,19.5267708 22.7059259,17.8746875 22.9527407,15.3246875 C22.8386667,14.2726042 22.0297778,12.4038542 20.4597037,13.1965625 C19.348,13.9778125 19.122963,15.2007292 19.0804444,16.2809375 C18.9715556,18.5976042 20.9346667,20.4663542 22.9527407,20.6184375 C25.1471111,20.7351042 26.516,18.9486458 27.3031111,17.6048958 C30.1259259,11.5830208 29.6333333,7.17052083 29.7266667,7.21322917 C29.6924444,7.2184375 29.7961481,6.1528125 29.6219259,4.2965625 C29.5752593,3.41947917 29.342963,2.02989583 28.2499259,1.07052083 C27.021037,-0.5378125 24.7644444,1.3934375 24.7748148,2.97052083 C23.941037,6.16947917 23.7865185,10.0986458 24.862963,14.1851042 C25.4654815,16.1611458 26.516,18.3809375 28.7414815,19.4090625 C30.9825185,20.2913542 33.5647407,19.5673958 35.3837037,18.0580208 C36.9382222,16.2236458 37.9866667,13.6194792 36.5171852,11.2278125 C35.1731852,10.4351042 33.5647407,11.5590625 33.4226667,12.8778125 C33.2028148,14.1465625 33.5481481,15.3340625 33.964,16.4205208 C34.8745185,18.5663542 36.3637037,20.5132292 38.4906667,21.4861458 C40.6207407,22.5121875 43.5358519,21.3038542 44.0979259,19.1319792 C45.5414815,15.2007292 45.5259259,11.3778125 45.022963,8.26947917 C44.7077037,6.77677083 44.2140741,5.1590625 42.8016296,4.5653125 C41.3798519,4.08302083 40.1478519,5.05489583 39.8315556,5.88614583 C38.6711111,9.04760417 39.5536296,11.8580208 40.0856296,14.3142708 C40.628,16.8059375 41.7967407,19.0569792 43.6032593,20.5684375 C47.6819259,24.0288542 52.8567407,20.5403125 55.2605926,16.4069792 C52.6026667,20.4736458 47.5284444,23.4601042 43.9465185,20.1590625 C40.881037,17.3048958 39.3721481,11.6548958 40.4797037,6.22260417 C41.0013333,4.3840625 44.1134815,4.96947917 44.3074074,8.4121875 C44.7917037,11.3330208 44.7844444,15.1726042 43.4259259,18.8423958 C41.8216296,23.3059375 35.7663704,20.3434375 34.6401481,16.1434375 C33.5979259,14.3423958 34.0117037,11.0267708 36.0722963,11.8101042 C37.0118519,13.1486458 36.230963,16.2236458 34.917037,17.4965625 C33.2857778,18.8673958 30.8943704,19.4934375 29.0183704,18.7309375 C27.1734815,17.9007292 26.1125926,15.8444792 25.5619259,13.9778125 C24.529037,10.0851042 24.6773333,6.18197917 25.4717037,3.1746875 C26.402963,-1.05135417 29.3678519,2.8559375 28.8980741,4.3715625 C29.0681481,6.1903125 28.9665185,7.2028125 28.9986667,7.20385417 C28.9312593,7.0996875 29.342963,11.5465625 26.6767407,17.2340625 C25.9362963,18.5184375 24.6762963,20.0184375 22.9931852,19.8871875 C21.3588148,19.7371875 19.712,18.2340625 19.8074074,16.2934375 C19.8053333,15.3923958 20.1361481,14.2726042 20.8237037,13.8351042 C21.4677037,13.3423958 22.0982222,14.4840625 22.2216296,15.3371875 C22.0619259,17.3048958 20.2211852,18.9996875 18.3762963,20.0434375 C13.9263704,22.7319792 10.6368889,16.8632292 10.6285926,12.7080208 C10.4740741,10.5017708 10.4180741,8.2215625 10.7271111,6.14135417 C10.8857778,4.06010417 12.2007407,1.8840625 14.0497778,2.59760417 C16.9908148,4.61947917 15.6965926,9.48927083 15.4352593,12.1392708 C14.8856296,15.1371875 14.001037,17.4590625 13.1838519,18.8371875 C10.666963,25.3861458 1.24444444,19.7048958 5.14266667,16.1840625 C8.78577778,16.7048958 5.1602963,25.7996875 0,23.4934375 C4.77555556,26.1048958 10.164,16.9236458 4.79733333,15.7798958 Z" id="Fill-1" fill="#FFFFFF" sketch:type="MSShapeGroup" mask="url(#mask-2)"></path>
            </g>
            <g id="Page-1" transform="translate(39.000000, 0.000000)">
                <g transform="translate(28.000000, 12.000000) scale(-1, 1) translate(-28.000000, -12.000000) ">
                    <mask id="mask-4" sketch:name="Clip 2" fill="white">
                        <use xlink:href="#path-3"></use>
                    </mask>
                    <g id="Clip-2"></g>
                    <path d="M0,23.4934375 C4.77555556,26.1048958 10.164,16.9236458 4.79733333,15.7798958 C0.0632592593,20.2798958 10.9957037,26.4340625 13.8143704,19.2038542 C14.6823704,17.7330208 15.5866667,15.3371875 16.1508148,12.2705208 C16.2482963,9.49447917 18.1522963,4.80072917 14.2820741,1.90489583 C11.6791111,0.994479167 10.0831111,3.97677083 10.0032593,6.02052083 C9.68177778,8.2496875 9.744,10.4705208 9.90474074,12.7851042 C10.1681481,15.0601042 10.694963,17.4496875 12.1758519,19.3944792 C13.5623704,21.3996875 16.7118519,22.1153125 18.7205926,20.6923958 C20.6868148,19.5267708 22.7059259,17.8746875 22.9527407,15.3246875 C22.8386667,14.2726042 22.0297778,12.4038542 20.4597037,13.1965625 C19.348,13.9778125 19.122963,15.2007292 19.0804444,16.2809375 C18.9715556,18.5976042 20.9346667,20.4663542 22.9527407,20.6184375 C25.1471111,20.7351042 26.516,18.9486458 27.3031111,17.6048958 C30.1259259,11.5830208 29.6333333,7.17052083 29.7266667,7.21322917 C29.6924444,7.2184375 29.7961481,6.1528125 29.6219259,4.2965625 C29.5752593,3.41947917 29.342963,2.02989583 28.2499259,1.07052083 C27.021037,-0.5378125 24.7644444,1.3934375 24.7748148,2.97052083 C23.941037,6.16947917 23.7865185,10.0986458 24.862963,14.1851042 C25.4654815,16.1611458 26.516,18.3809375 28.7414815,19.4090625 C30.9825185,20.2913542 33.5647407,19.5673958 35.3837037,18.0580208 C36.9382222,16.2236458 37.9866667,13.6194792 36.5171852,11.2278125 C35.1731852,10.4351042 33.5647407,11.5590625 33.4226667,12.8778125 C33.2028148,14.1465625 33.5481481,15.3340625 33.964,16.4205208 C34.8745185,18.5663542 36.3637037,20.5132292 38.4906667,21.4861458 C40.6207407,22.5121875 43.5358519,21.3038542 44.0979259,19.1319792 C45.5414815,15.2007292 45.5259259,11.3778125 45.022963,8.26947917 C44.7077037,6.77677083 44.2140741,5.1590625 42.8016296,4.5653125 C41.3798519,4.08302083 40.1478519,5.05489583 39.8315556,5.88614583 C38.6711111,9.04760417 39.5536296,11.8580208 40.0856296,14.3142708 C40.628,16.8059375 41.7967407,19.0569792 43.6032593,20.5684375 C47.6819259,24.0288542 52.8567407,20.5403125 55.2605926,16.4069792 C52.6026667,20.4736458 47.5284444,23.4601042 43.9465185,20.1590625 C40.881037,17.3048958 39.3721481,11.6548958 40.4797037,6.22260417 C41.0013333,4.3840625 44.1134815,4.96947917 44.3074074,8.4121875 C44.7917037,11.3330208 44.7844444,15.1726042 43.4259259,18.8423958 C41.8216296,23.3059375 35.7663704,20.3434375 34.6401481,16.1434375 C33.5979259,14.3423958 34.0117037,11.0267708 36.0722963,11.8101042 C37.0118519,13.1486458 36.230963,16.2236458 34.917037,17.4965625 C33.2857778,18.8673958 30.8943704,19.4934375 29.0183704,18.7309375 C27.1734815,17.9007292 26.1125926,15.8444792 25.5619259,13.9778125 C24.529037,10.0851042 24.6773333,6.18197917 25.4717037,3.1746875 C26.402963,-1.05135417 29.3678519,2.8559375 28.8980741,4.3715625 C29.0681481,6.1903125 28.9665185,7.2028125 28.9986667,7.20385417 C28.9312593,7.0996875 29.342963,11.5465625 26.6767407,17.2340625 C25.9362963,18.5184375 24.6762963,20.0184375 22.9931852,19.8871875 C21.3588148,19.7371875 19.712,18.2340625 19.8074074,16.2934375 C19.8053333,15.3923958 20.1361481,14.2726042 20.8237037,13.8351042 C21.4677037,13.3423958 22.0982222,14.4840625 22.2216296,15.3371875 C22.0619259,17.3048958 20.2211852,18.9996875 18.3762963,20.0434375 C13.9263704,22.7319792 10.6368889,16.8632292 10.6285926,12.7080208 C10.4740741,10.5017708 10.4180741,8.2215625 10.7271111,6.14135417 C10.8857778,4.06010417 12.2007407,1.8840625 14.0497778,2.59760417 C16.9908148,4.61947917 15.6965926,9.48927083 15.4352593,12.1392708 C14.8856296,15.1371875 14.001037,17.4590625 13.1838519,18.8371875 C10.666963,25.3861458 1.24444444,19.7048958 5.14266667,16.1840625 C8.78577778,16.7048958 5.1602963,25.7996875 0,23.4934375" id="Fill-1" fill="#FFFFFF" sketch:type="MSShapeGroup" mask="url(#mask-4)"></path>
                </g>
            </g>
        </g>
    </g>
</svg>